SplineFontDB: 3.0
FontName: Neuton-ExtralightItalic
FullName: Neuton Extralight Italic
FamilyName: Neuton
Weight: ExtraLight
Copyright: Copyright (c) 2010, 2011 Brian M Zick (http://21326.info/), \nwith Reserved Font Name 'Neuton'.\n\nThis Font Software is licensed under the SIL Open Font License, Version 1.1.\nThis license is available with a FAQ at: http://scripts.sil.org/OFL\n   WITHOUT WARRANTIES OR CONDITIONS OF ANY KIND, either express or implied.\n   See the License for the specific language governing permissions and\n   limitations under the License.
UComments: "2011-7-27: Created." 
Version: 1.46
ItalicAngle: -9
UnderlinePosition: -361
UnderlineWidth: 0
Ascent: 1638
Descent: 410
LayerCount: 3
Layer: 0 1 "Back"  1
Layer: 1 1 "Fore"  0
Layer: 2 1 "Compare"  0
XUID: [1021 467 2011608612 16041572]
FSType: 1
OS2Version: 1
OS2_WeightWidthSlopeOnly: 0
OS2_UseTypoMetrics: 0
CreationTime: 1311747327
ModificationTime: 1333038472
PfmFamily: 17
TTFWeight: 500
TTFWidth: 5
LineGap: 0
VLineGap: 0
OS2TypoAscent: 2106
OS2TypoAOffset: 0
OS2TypoDescent: -485
OS2TypoDOffset: 0
OS2TypoLinegap: 0
OS2WinAscent: 2106
OS2WinAOffset: 0
OS2WinDescent: 485
OS2WinDOffset: 0
HheadAscent: 2106
HheadAOffset: 0
HheadDescent: -485
HheadDOffset: 0
OS2SubXSize: 1095
OS2SubYSize: 1179
OS2SubXOff: 0
OS2SubYOff: 235
OS2SupXSize: 1095
OS2SupYSize: 1179
OS2SupXOff: 0
OS2SupYOff: 809
OS2StrikeYSize: 84
OS2StrikeYPos: 436
OS2Vendor: 'PfEd'
Lookup: 1 0 0 "'onum' Oldstyle Figures lookup 1"  {"'onum' Oldstyle Figures lookup 1-1" ("osf" ) } ['onum' ('DFLT' <'dflt' > 'hebr' <'dflt' > 'latn' <'dflt' > ) ]
Lookup: 3 0 0 "Neuton-Regular-'salt' Stylistic Alternates"  {"Neuton-Regular-Alternate Substitution in Latin lookup 0-1"  } ['salt' ('DFLT' <'dflt' > 'latn' <'dflt' > ) ]
MarkAttachClasses: 1
DEI: 91125
TtTable: prep
PUSHW_1
 511
SCANCTRL
PUSHB_1
 4
SCANTYPE
EndTTInstrs
LangName: 1033 
GaspTable: 1 65535 3 0
Encoding: UnicodeBmp
Compacted: 1
UnicodeInterp: none
NameList: Adobe Glyph List

StartChar: exclam
Encoding: 33 33 0
Width: 248
VWidth: 0
Flags: MW
LayerCount: 3
Back
SplineSet
83 92 m 0,0,1
 83 142 83 142 119.5 176 c 0
 156 210 156 210 206 210 c 0,2,3
 257 210 257 210 294 175 c 0
 331 140 331 140 331 90 c 0,4,5
 331 37 331 37 294.5 0.5 c 0
 258 -36 258 -36 206 -36 c 0,6,7
 154 -36 154 -36 118.5 1.5 c 0
 83 39 83 39 83 92 c 0,0,1
109 1245 m 0,8,9
 109 1270 109 1270 152 1281 c 0
 195 1292 195 1292 240 1292 c 0,10,11
 304 1292 304 1292 304 1253 c 0,12,13
 304 1086 304 1086 249 357 c 1,14,-1
 162 376 l 1,15,16
 157 483 157 483 133 815 c 0
 109 1147 109 1147 109 1245 c 0,8,9
EndSplineSet
Fore
SplineSet
266 1253 m 0,0,1
 269 1272 269 1272 291 1283 c 128,-1,2
 313 1294 313 1294 342 1294 c 0,3,4
 365 1294 365 1294 378.5 1284.5 c 128,-1,5
 392 1275 392 1275 388 1253 c 0,6,7
 368 1126 368 1126 312.5 864 c 128,-1,8
 257 602 257 602 198 360 c 1,9,-1
 155 369 l 1,10,11
 181 599 181 599 216.5 882 c 128,-1,12
 252 1165 252 1165 266 1253 c 0,0,1
72 66 m 0,13,14
 78 107 78 107 98.5 133 c 128,-1,15
 119 159 119 159 144 159 c 0,16,17
 171 159 171 159 183.5 133 c 128,-1,18
 196 107 196 107 189 66 c 0,19,20
 173 -33 173 -33 115 -33 c 0,21,22
 85 -33 85 -33 75 -5.5 c 128,-1,23
 65 22 65 22 72 66 c 0,13,14
EndSplineSet
Colour: ffffff
EndChar

StartChar: quotedbl
Encoding: 34 34 1
Width: 396
VWidth: 0
Flags: MW
LayerCount: 3
Back
SplineSet
50 1302 m 1,0,-1
 233 1286 l 1,1,-1
 197 903 l 1,2,-1
 104 892 l 1,3,-1
 50 1302 l 1,0,-1
258 1302 m 1,4,-1
 442 1286 l 1,5,-1
 406 903 l 1,6,-1
 311 892 l 1,7,-1
 258 1302 l 1,4,-1
EndSplineSet
Fore
SplineSet
226 1302 m 1,0,-1
 336 1296 l 1,1,-1
 300 895 l 1,2,-1
 247 891 l 1,3,-1
 226 1302 l 1,0,-1
61 1302 m 1,4,-1
 170 1296 l 1,5,-1
 134 895 l 1,6,-1
 82 891 l 1,7,-1
 61 1302 l 1,4,-1
EndSplineSet
Colour: ffffff
EndChar

StartChar: numbersign
Encoding: 35 35 2
Width: 1090
VWidth: 0
Flags: MW
LayerCount: 3
Back
SplineSet
182 -26 m 9,0,-1
 359 1149 l 1,1,-1
 475 1159 l 1,2,-1
 299 -19 l 1,3,-1
 182 -26 l 9,0,-1
49 711 m 17,4,-1
 83 836 l 1,5,-1
 992 836 l 1,6,-1
 961 711 l 1,7,-1
 49 711 l 17,4,-1
-22 326 m 1,8,-1
 11 451 l 1,9,-1
 917 451 l 1,10,-1
 886 326 l 1,11,-1
 -22 326 l 1,8,-1
487 -26 m 9,12,-1
 663 1149 l 1,13,-1
 781 1158 l 1,14,-1
 604 -19 l 1,15,-1
 487 -26 l 9,12,-1
EndSplineSet
Fore
SplineSet
662 -19 m 1,0,-1
 593 -26 l 1,1,-1
 646 326 l 1,2,-1
 383 326 l 1,3,-1
 331 -19 l 1,4,-1
 264 -26 l 1,5,-1
 317 326 l 1,6,-1
 43 326 l 1,7,-1
 64 403 l 1,8,-1
 328 403 l 1,9,-1
 374 712 l 1,10,-1
 114 712 l 1,11,-1
 136 789 l 1,12,-1
 386 789 l 1,13,-1
 440 1151 l 1,14,-1
 508 1161 l 1,15,-1
 452 789 l 1,16,-1
 716 789 l 1,17,-1
 770 1151 l 1,18,-1
 838 1160 l 1,19,-1
 783 789 l 1,20,-1
 1047 789 l 1,21,-1
 1028 712 l 1,22,-1
 771 712 l 1,23,-1
 725 403 l 1,24,-1
 973 403 l 1,25,-1
 952 326 l 1,26,-1
 714 326 l 1,27,-1
 662 -19 l 1,0,-1
658 403 m 1,28,-1
 704 712 l 1,29,-1
 441 712 l 1,30,-1
 394 403 l 1,31,-1
 658 403 l 1,28,-1
EndSplineSet
Colour: ffffff
EndChar

StartChar: dollar
Encoding: 36 36 3
Width: 822
VWidth: 0
Flags: MW
LayerCount: 3
Back
SplineSet
66 122 m 1,0,-1
 79 389 l 1,1,-1
 181 375 l 1,2,-1
 220 187 l 1,3,4
 249 141 249 141 304.5 109 c 0
 360 77 360 77 426 77 c 0,5,6
 483 77 483 77 534.5 97.5 c 0
 586 118 586 118 624.5 167.5 c 0
 663 217 663 217 663 287 c 0,7,8
 663 339 663 339 631.5 383.5 c 0
 600 428 600 428 549.5 461 c 0
 499 494 499 494 437.5 526 c 0
 376 558 376 558 315 594.5 c 0
 254 631 254 631 203.5 673.5 c 0
 153 716 153 716 121.5 778.5 c 0
 90 841 90 841 90 916 c 0,9,10
 90 1025 90 1025 147 1107 c 0
 204 1189 204 1189 291 1229 c 0
 378 1269 378 1269 479 1269 c 0,11,12
 641 1269 641 1269 761 1169 c 1,13,14
 739 887 l 1,15,-1
 640 899 l 1,16,-1
 615 1090 l 1,17,18
 599 1122 599 1122 549.5 1153.5 c 0
 500 1185 500 1185 445 1185 c 0,19,20
 365 1185 365 1185 314 1137 c 0
 263 1089 263 1089 263 995 c 0,21,22
 263 937 263 937 295 889.5 c 0
 327 842 327 842 378.5 807.5 c 0
 430 773 430 773 492.5 741 c 0
 555 709 555 709 617.5 673 c 0
 680 637 680 637 731.5 595.5 c 0
 783 554 783 554 815 492 c 0
 847 430 847 430 847 354 c 0,23,24
 847 243 847 243 783 155 c 0
 719 67 719 67 618 21.5 c 0
 517 -24 517 -24 402 -24 c 0,25,26
 298 -24 298 -24 207.5 17.5 c 0
 117 59 117 59 66 122 c 1,0,-1
367 -179 m 1,27,-1
 379 9 l 1,28,-1
 416 54 l 1,29,-1
 416 631 l 1,30,-1
 421 700 l 1,31,-1
 421 1207 l 1,32,-1
 385 1242 l 1,33,-1
 370 1394 l 1,34,-1
 535 1409 l 1,35,-1
 518 1242 l 1,36,-1
 483 1202 l 1,37,-1
 483 666 l 1,38,-1
 486 582 l 1,39,-1
 486 54 l 1,40,-1
 527 20 l 1,41,-1
 540 -164 l 1,42,-1
 367 -179 l 1,27,-1
EndSplineSet
Fore
SplineSet
64 116 m 1,0,-1
 140 401 l 1,1,-1
 186 393 l 1,2,-1
 180 174 l 1,3,4
 199 121 199 121 253.5 86 c 128,-1,5
 308 51 308 51 379 41 c 1,6,-1
 387 54 l 1,7,-1
 472 594 l 1,8,9
 412 637 412 637 377 667.5 c 128,-1,10
 342 698 342 698 303 744 c 128,-1,11
 264 790 264 790 250.5 843.5 c 128,-1,12
 237 897 237 897 247 959 c 0,13,14
 260 1042 260 1042 309.5 1109 c 128,-1,15
 359 1176 359 1176 425 1214 c 128,-1,16
 491 1252 491 1252 565 1265 c 1,17,-1
 577 1396 l 1,18,-1
 688 1411 l 1,19,-1
 654 1270 l 1,20,21
 733 1266 733 1266 799.5 1238.5 c 128,-1,22
 866 1211 866 1211 903 1161 c 1,23,-1
 821 851 l 1,24,-1
 776 858 l 1,25,-1
 787 1101 l 1,26,27
 771 1143 771 1143 726 1173 c 128,-1,28
 681 1203 681 1203 627 1211 c 1,29,-1
 623 1205 l 1,30,-1
 542 694 l 1,31,32
 557 683 557 683 588 661 c 0,33,34
 641 623 641 623 667.5 602 c 128,-1,35
 694 581 694 581 734.5 543 c 128,-1,36
 775 505 775 505 793.5 474 c 128,-1,37
 812 443 812 443 823 399 c 128,-1,38
 834 355 834 355 827 308 c 0,39,40
 807 180 807 180 705.5 90 c 128,-1,41
 604 0 604 0 452 -21 c 1,42,43
 440 -164 l 1,44,-1
 320 -179 l 1,45,-1
 354 -26 l 1,46,47
 256 -22 256 -22 179.5 17.5 c 128,-1,48
 103 57 103 57 64 116 c 1,0,-1
498 728 m 1,49,-1
 574 1208 l 1,50,-1
 573 1213 l 1,51,52
 491 1206 491 1206 428.5 1150.5 c 128,-1,53
 366 1095 366 1095 352 1006 c 0,54,55
 339 923 339 923 378.5 857.5 c 128,-1,56
 418 792 418 792 498 728 c 1,49,-1
522 557 m 1,57,-1
 443 54 l 1,58,-1
 449 37 l 1,59,60
 545 42 545 42 619 101 c 128,-1,61
 693 160 693 160 709 262 c 0,62,63
 715 300 715 300 707.5 335.5 c 128,-1,64
 700 371 700 371 685 398.5 c 128,-1,65
 670 426 670 426 641.5 456 c 128,-1,66
 613 486 613 486 587 507.5 c 128,-1,67
 561 529 561 529 522 557 c 1,57,-1
EndSplineSet
Colour: ffffff
EndChar

StartChar: percent
Encoding: 37 37 4
Width: 1110
VWidth: 0
Flags: MW
LayerCount: 3
Back
SplineSet
29 898 m 0,0,1
 29 1020 29 1020 117 1115.5 c 0
 205 1211 205 1211 301 1211 c 0,2,3
 321 1211 321 1211 330 1208 c 1,4,-1
 340 1142 l 1,5,6
 310 1154 310 1154 295 1154 c 0,7,8
 258 1154 258 1154 234 1112 c 0
 210 1070 210 1070 202 1016 c 0
 194 962 194 962 194 898 c 0,9,10
 194 798 194 798 220 723.5 c 0
 246 649 246 649 297 649 c 0,11,12
 402 649 402 649 402 898 c 0,13,14
 402 1082 402 1082 364 1198 c 1,15,-1
 921 1210 l 1,16,-1
 931 1121 l 1,17,-1
 491 1137 l 1,18,19
 525 1102 525 1102 545.5 1024 c 0
 566 946 566 946 566 898 c 0,20,21
 566 775 566 775 478 679 c 0
 390 583 390 583 297 583 c 0,22,23
 195 583 195 583 112 672 c 0
 29 761 29 761 29 898 c 0,0,1
123 -10 m 1,24,-1
 530 588 l 1,25,-1
 921 1210 l 1,26,-1
 1087 1207 l 1,27,-1
 1085 1178 l 1,28,-1
 684 591 l 1,29,-1
 313 -32 l 1,30,-1
 123 -10 l 1,24,-1
647 277 m 0,31,32
 647 399 647 399 734 494.5 c 0
 821 590 821 590 917 590 c 0,33,34
 1025 590 1025 590 1103 498.5 c 0
 1181 407 1181 407 1181 274 c 0,35,36
 1181 152 1181 152 1096.5 58 c 0
 1012 -36 1012 -36 920 -36 c 0,37,38
 818 -36 818 -36 732.5 53 c 0
 647 142 647 142 647 277 c 0,31,32
812 277 m 0,39,40
 812 180 812 180 840 106 c 0
 868 32 868 32 920 32 c 0,41,42
 1021 32 1021 32 1021 279 c 0,43,44
 1021 344 1021 344 1011.5 399 c 0
 1002 454 1002 454 977.5 494 c 0
 953 534 953 534 917 534 c 0,45,46
 887 534 887 534 865 510.5 c 0
 843 487 843 487 832 447.5 c 0
 821 408 821 408 816.5 366 c 0
 812 324 812 324 812 277 c 0,39,40
EndSplineSet
Fore
SplineSet
759 278 m 1,0,1
 751 234 751 234 753 185 c 128,-1,2
 755 136 755 136 763.5 95 c 128,-1,3
 772 54 772 54 791.5 27 c 128,-1,4
 811 0 811 0 838 0 c 0,5,6
 878 0 878 0 916 45.5 c 128,-1,7
 954 91 954 91 978 153.5 c 128,-1,8
 1002 216 1002 216 1012 280 c 1,9,10
 1020 344 1020 344 1014.5 406 c 128,-1,11
 1009 468 1009 468 984.5 513.5 c 128,-1,12
 960 559 960 559 924 559 c 0,13,14
 894 559 894 559 865 531.5 c 128,-1,15
 836 504 836 504 815.5 461 c 128,-1,16
 795 418 795 418 780.5 371 c 128,-1,17
 766 324 766 324 759 278 c 1,0,1
666 278 m 0,18,19
 686 407 686 407 762 499 c 128,-1,20
 838 591 838 591 929 591 c 0,21,22
 998 591 998 591 1043 549 c 128,-1,23
 1088 507 1088 507 1103 435.5 c 128,-1,24
 1118 364 1118 364 1103 274 c 0,25,26
 1083 147 1083 147 1002 55.5 c 128,-1,27
 921 -36 921 -36 832 -36 c 0,28,29
 736 -36 736 -36 690 50 c 128,-1,30
 644 136 644 136 666 278 c 0,18,19
164 -43 m 1,31,-1
 610 588 l 1,32,-1
 992 1163 l 1,33,-1
 617 1163 l 1,34,35
 632 1134 632 1134 632.5 1033.5 c 128,-1,36
 633 933 633 933 625 899 c 1,37,38
 605 771 605 771 524.5 678.5 c 128,-1,39
 444 586 444 586 355 586 c 0,40,41
 259 586 259 586 213.5 671 c 128,-1,42
 168 756 168 756 190 899 c 0,43,44
 211 1029 211 1029 286 1121 c 128,-1,45
 361 1213 361 1213 452 1213 c 0,46,47
 489 1213 489 1213 495 1210 c 1,48,-1
 479 1163 l 1,49,50
 477 1165 477 1165 474.5 1168.5 c 128,-1,51
 472 1172 472 1172 471 1173 c 128,-1,52
 470 1174 470 1174 467.5 1176 c 128,-1,53
 465 1178 465 1178 464 1179 c 128,-1,54
 463 1180 463 1180 460 1181 c 128,-1,55
 457 1182 457 1182 454 1182 c 128,-1,56
 451 1182 451 1182 447 1182 c 0,57,58
 407 1182 407 1182 370.5 1134 c 128,-1,59
 334 1086 334 1086 312 1024 c 128,-1,60
 290 962 290 962 280 899 c 1,61,62
 272 836 272 836 276 775.5 c 128,-1,63
 280 715 280 715 302.5 670 c 128,-1,64
 325 625 325 625 361 625 c 0,65,66
 401 625 401 625 438.5 669 c 128,-1,67
 476 713 476 713 500 774.5 c 128,-1,68
 524 836 524 836 534 899 c 0,69,70
 562 1078 562 1078 526 1194 c 1,71,-1
 1025 1212 l 1,72,-1
 1121 1207 l 1,73,-1
 1118 1203 l 1,74,-1
 690 591 l 1,75,-1
 265 -47 l 1,76,-1
 164 -43 l 1,31,-1
EndSplineSet
Colour: ffffff
EndChar

StartChar: ampersand
Encoding: 38 38 5
Width: 1237
VWidth: 0
Flags: MW
LayerCount: 3
Back
SplineSet
33 313 m 0,0,1
 33 544 33 544 310 701 c 1,2,3
 256 746 256 746 217 820 c 0
 178 894 178 894 178 974 c 0,4,5
 178 1090 178 1090 275.5 1180.5 c 0
 373 1271 373 1271 494 1271 c 0,6,7
 634 1271 634 1271 710 1207 c 0
 786 1143 786 1143 786 1011 c 0,8,9
 786 856 786 856 556 716 c 1,10,-1
 556 705 l 1,11,-1
 787 449 l 1,12,-1
 964 719 l 1,13,-1
 813 761 l 1,14,-1
 823 837 l 1,15,-1
 1255 837 l 1,16,-1
 1245 761 l 1,17,-1
 1075 722 l 1,18,-1
 859 380 l 1,19,20
 1113 106 1113 106 1202 79 c 1,21,-1
 1235 70 l 1,22,-1
 1220 0 l 1,23,24
 1166 -19 1166 -19 1100 -19 c 0,25,26
 1061 -19 1061 -19 1023 -6 c 0
 985 7 985 7 951 32.5 c 0
 917 58 917 58 895 78 c 0
 873 98 873 98 844 128 c 2,27,-1
 756 218 l 1,28,29
 717 161 717 161 684 123 c 0
 651 85 651 85 605.5 50 c 0
 560 15 560 15 504 -2 c 0
 448 -19 448 -19 380 -19 c 0,30,31
 225 -19 225 -19 129 72 c 0
 33 163 33 163 33 313 c 0,0,1
221 393 m 0,32,33
 221 270 221 270 276.5 187.5 c 0
 332 105 332 105 439 105 c 0,34,35
 519 105 519 105 584.5 159 c 0
 650 213 650 213 685 282 c 1,36,-1
 372 629 l 1,37,-1
 355 632 l 1,38,39
 297 592 297 592 259 531 c 0
 221 470 221 470 221 393 c 0,32,33
338 1024 m 0,40,41
 338 956 338 956 385 886 c 0
 432 816 432 816 488 773 c 1,42,43
 533 803 533 803 557.5 827 c 0
 582 851 582 851 599 891.5 c 0
 616 932 616 932 616 988 c 0,44,45
 616 1078 616 1078 582 1133 c 0
 548 1188 548 1188 474 1188 c 0,46,47
 413 1188 413 1188 375.5 1139 c 0
 338 1090 338 1090 338 1024 c 0,40,41
EndSplineSet
Fore
SplineSet
458 1026 m 0,0,1
 448 965 448 965 478 892 c 128,-1,2
 508 819 508 819 565 731 c 1,3,4
 671 803 671 803 732 865.5 c 128,-1,5
 793 928 793 928 804 1000 c 0,6,7
 818 1087 818 1087 774.5 1149.5 c 128,-1,8
 731 1212 731 1212 656 1212 c 0,9,10
 582 1212 582 1212 526 1156.5 c 128,-1,11
 470 1101 470 1101 458 1026 c 0,0,1
207 281 m 0,12,13
 193 191 193 191 245.5 128 c 128,-1,14
 298 65 298 65 390 65 c 0,15,16
 482 65 482 65 568 124 c 128,-1,17
 654 183 654 183 739 290 c 1,18,-1
 509 622 l 1,19,-1
 506 622 l 1,20,21
 456 588 456 588 420.5 562.5 c 128,-1,22
 385 537 385 537 345 502 c 128,-1,23
 305 467 305 467 279 435 c 128,-1,24
 253 403 253 403 233.5 363 c 128,-1,25
 214 323 214 323 207 281 c 0,12,13
88 243 m 0,26,27
 94 283 94 283 111 321.5 c 128,-1,28
 128 360 128 360 147 390.5 c 128,-1,29
 166 421 166 421 200 456 c 128,-1,30
 234 491 234 491 259 514 c 128,-1,31
 284 537 284 537 329 570.5 c 128,-1,32
 374 604 374 604 399 621 c 128,-1,33
 424 638 424 638 474 672 c 1,34,35
 420 753 420 753 390 828.5 c 128,-1,36
 360 904 360 904 371 975 c 0,37,38
 383 1053 383 1053 429 1121 c 128,-1,39
 475 1189 475 1189 545.5 1230.5 c 128,-1,40
 616 1272 616 1272 693 1272 c 0,41,42
 809 1272 809 1272 867 1204 c 128,-1,43
 925 1136 925 1136 907 1021 c 0,44,45
 900 980 900 980 879 940 c 128,-1,46
 858 900 858 900 832.5 869 c 128,-1,47
 807 838 807 838 764.5 802.5 c 128,-1,48
 722 767 722 767 687.5 742.5 c 128,-1,49
 653 718 653 718 600 683 c 1,50,-1
 600 680 l 1,51,-1
 808 385 l 1,52,-1
 1049 721 l 1,53,-1
 893 752 l 1,54,-1
 900 786 l 1,55,-1
 1316 786 l 1,56,-1
 1306 752 l 1,57,-1
 1134 723 l 1,58,-1
 849 332 l 1,59,60
 990 100 990 100 1148 47 c 1,61,-1
 1192 34 l 1,62,-1
 1180 -3 l 1,63,64
 1146 -14 1146 -14 1130 -17 c 128,-1,65
 1114 -20 1114 -20 1086 -20 c 0,66,67
 1018 -20 1018 -20 958 20.5 c 128,-1,68
 898 61 898 61 860 116 c 2,69,-1
 776 236 l 1,70,71
 732 183 732 183 689 142.5 c 128,-1,72
 646 102 646 102 590.5 62.5 c 128,-1,73
 535 23 535 23 469.5 1.5 c 128,-1,74
 404 -20 404 -20 334 -20 c 0,75,76
 204 -20 204 -20 137 55.5 c 128,-1,77
 70 131 70 131 88 243 c 0,26,27
EndSplineSet
Colour: ffffff
EndChar

StartChar: quotesingle
Encoding: 39 39 6
Width: 230
VWidth: 0
Flags: MW
LayerCount: 3
Back
SplineSet
50 1302 m 1,0,-1
 233 1286 l 1,1,-1
 197 903 l 1,2,-1
 104 892 l 1,3,-1
 50 1302 l 1,0,-1
EndSplineSet
Fore
SplineSet
61 1302 m 1,0,-1
 170 1296 l 1,1,-1
 134 895 l 1,2,-1
 82 891 l 1,3,-1
 61 1302 l 1,0,-1
EndSplineSet
Colour: ffffff
EndChar

StartChar: parenleft
Encoding: 40 40 7
Width: 461
VWidth: 0
Flags: MW
LayerCount: 3
Back
SplineSet
49 445 m 0,0,1
 49 553 49 553 65 652.5 c 0
 81 752 81 752 103.5 825 c 0
 126 898 126 898 161.5 967 c 0
 197 1036 197 1036 225 1078 c 0
 253 1120 253 1120 291 1162 c 0
 329 1204 329 1204 346 1219.5 c 0
 363 1235 363 1235 386 1255 c 1,2,-1
 436 1189 l 1,3,4
 405 1148 405 1148 380.5 1109.5 c 0
 356 1071 356 1071 325.5 1004 c 0
 295 937 295 937 275 864 c 0
 255 791 255 791 241 684 c 0
 227 577 227 577 227 455 c 0,5,6
 227 51 227 51 449 -317 c 1,7,-1
 381 -375 l 1,8,9
 360 -355 360 -355 346 -341 c 0
 332 -327 332 -327 294 -282 c 0
 256 -237 256 -237 228.5 -194 c 0
 201 -151 201 -151 165 -79.5 c 0
 129 -8 129 -8 105.5 66 c 0
 82 140 82 140 65.5 239.5 c 0
 49 339 49 339 49 445 c 0,0,1
EndSplineSet
Fore
SplineSet
620 1213 m 1,0,1
 589 1179 589 1179 570 1157.5 c 128,-1,2
 551 1136 551 1136 514.5 1088.5 c 128,-1,3
 478 1041 478 1041 452.5 1000.5 c 128,-1,4
 427 960 427 960 393 897 c 128,-1,5
 359 834 359 834 335 771.5 c 128,-1,6
 311 709 311 709 288 626.5 c 128,-1,7
 265 544 265 544 251 456 c 0,8,9
 188 55 188 55 368 -333 c 0,10,11
 371 -339 371 -339 372 -342 c 1,12,-1
 339 -374 l 1,13,14
 324 -359 324 -359 309 -341 c 128,-1,15
 294 -323 294 -323 266 -280 c 128,-1,16
 238 -237 238 -237 215.5 -191 c 128,-1,17
 193 -145 193 -145 169.5 -73.5 c 128,-1,18
 146 -2 146 -2 134 73.5 c 128,-1,19
 122 149 122 149 121.5 249 c 128,-1,20
 121 349 121 349 138 455 c 0,21,22
 155 560 155 560 185.5 657 c 128,-1,23
 216 754 216 754 249 825 c 128,-1,24
 282 896 282 896 326.5 963 c 128,-1,25
 371 1030 371 1030 405 1071.5 c 128,-1,26
 439 1113 439 1113 483 1155 c 128,-1,27
 527 1197 527 1197 547.5 1213 c 128,-1,28
 568 1229 568 1229 596 1251 c 0,29,30
 601 1255 601 1255 603 1256 c 1,31,-1
 620 1213 l 1,0,1
EndSplineSet
Colour: ffffff
EndChar

StartChar: parenright
Encoding: 41 41 8
Width: 461
VWidth: 0
Flags: MW
LayerCount: 3
Back
SplineSet
44 1189 m 1,0,-1
 93 1255 l 1,1,2
 116 1235 116 1235 133 1219.5 c 0
 150 1204 150 1204 188 1162 c 0
 226 1120 226 1120 254.5 1078 c 0
 283 1036 283 1036 318 967 c 0
 353 898 353 898 376 825 c 0
 399 752 399 752 415 652.5 c 0
 431 553 431 553 431 445 c 0,3,4
 431 339 431 339 414.5 239.5 c 0
 398 140 398 140 374.5 66 c 0
 351 -8 351 -8 315 -79.5 c 0
 279 -151 279 -151 251.5 -194 c 0
 224 -237 224 -237 186 -282 c 0
 148 -327 148 -327 134 -341 c 0
 120 -355 120 -355 99 -375 c 1,5,-1
 30 -317 l 1,6,7
 253 53 253 53 253 455 c 0,8,9
 253 577 253 577 239 684 c 0
 225 791 225 791 205 864 c 0
 185 937 185 937 154.5 1004 c 0
 124 1071 124 1071 99.5 1109.5 c 0
 75 1148 75 1148 44 1189 c 1,0,-1
EndSplineSet
Fore
SplineSet
235 1213 m 1,0,-1
 266 1256 l 1,1,2
 268 1254 268 1254 271 1251 c 0,3,4
 293 1229 293 1229 308 1213 c 128,-1,5
 323 1197 323 1197 354 1155 c 128,-1,6
 385 1113 385 1113 405.5 1071.5 c 128,-1,7
 426 1030 426 1030 449.5 963 c 128,-1,8
 473 896 473 896 483.5 825 c 128,-1,9
 494 754 494 754 494 657 c 128,-1,10
 494 560 494 560 477 455 c 0,11,12
 460 349 460 349 428 249 c 128,-1,13
 396 149 396 149 360 73.5 c 128,-1,14
 324 -2 324 -2 278.5 -73.5 c 128,-1,15
 233 -145 233 -145 195.5 -191 c 128,-1,16
 158 -237 158 -237 116.5 -280 c 128,-1,17
 75 -323 75 -323 54 -341 c 128,-1,18
 33 -359 33 -359 14 -374 c 1,19,-1
 -9 -342 l 1,20,21
 -7 -339 -7 -339 -2 -333 c 0,22,23
 301 55 301 55 364 456 c 0,24,25
 378 544 378 544 381 626.5 c 128,-1,26
 384 709 384 709 380 771.5 c 128,-1,27
 376 834 376 834 362 897 c 128,-1,28
 348 960 348 960 335.5 1000.5 c 128,-1,29
 323 1041 323 1041 301 1088.5 c 128,-1,30
 279 1136 279 1136 267 1157.5 c 128,-1,31
 255 1179 255 1179 235 1213 c 1,0,-1
EndSplineSet
Colour: ffffff
EndChar

StartChar: asterisk
Encoding: 42 42 9
Width: 796
VWidth: 0
Flags: MW
LayerCount: 3
Back
SplineSet
328 1292 m 1,0,-1
 464 1279 l 1,1,-1
 438 988 l 1,2,-1
 727 1119 l 1,3,-1
 756 989 l 1,4,-1
 471 921 l 1,5,-1
 690 692 l 1,6,-1
 572 623 l 1,7,-1
 419 870 l 1,8,-1
 264 593 l 1,9,-1
 162 685 l 1,10,-1
 355 904 l 1,11,-1
 43 964 l 1,12,-1
 98 1091 l 1,13,-1
 365 977 l 1,14,-1
 328 1292 l 1,0,-1
EndSplineSet
Fore
SplineSet
345 1289 m 1,0,-1
 454 1280 l 1,1,-1
 429 973 l 1,2,-1
 722 1097 l 1,3,-1
 747 990 l 1,4,-1
 447 923 l 1,5,-1
 654 680 l 1,6,-1
 562 623 l 1,7,-1
 405 893 l 1,8,-1
 236 616 l 1,9,-1
 153 684 l 1,10,-1
 357 919 l 1,11,-1
 47 990 l 1,12,-1
 89 1093 l 1,13,-1
 373 970 l 1,14,-1
 345 1289 l 1,0,-1
EndSplineSet
Colour: ffffff
EndChar

StartChar: plus
Encoding: 43 43 10
Width: 612
VWidth: 0
Flags: MW
LayerCount: 3
Back
SplineSet
50 409 m 1,0,-1
 62 510 l 1,1,-1
 271 510 l 1,2,-1
 271 741 l 1,3,-1
 380 729 l 1,4,-1
 381 510 l 1,5,-1
 601 510 l 1,6,-1
 589 409 l 1,7,-1
 381 409 l 1,8,-1
 383 174 l 1,9,-1
 271 185 l 1,10,-1
 271 409 l 1,11,-1
 50 409 l 1,0,-1
EndSplineSet
Fore
SplineSet
51 426 m 1,0,-1
 64 495 l 1,1,-1
 272 495 l 1,2,-1
 272 742 l 1,3,-1
 339 730 l 1,4,-1
 341 495 l 1,5,-1
 561 495 l 1,6,-1
 550 426 l 1,7,-1
 341 426 l 1,8,-1
 342 172 l 1,9,-1
 272 187 l 1,10,-1
 272 426 l 1,11,-1
 51 426 l 1,0,-1
EndSplineSet
Colour: ffffff
EndChar

StartChar: comma
Encoding: 44 44 11
Width: 394
VWidth: 0
Flags: MW
LayerCount: 3
Back
SplineSet
54 -244 m 1,0,1
 146 -220 146 -220 191 -171.5 c 0
 236 -123 236 -123 236 -70 c 0,2,3
 236 -27 236 -27 203.5 4.5 c 0
 171 36 171 36 120 36 c 0,4,5
 110 36 110 36 90 34 c 1,6,7
 76 71 76 71 76 97 c 0,8,9
 76 152 76 152 115.5 185 c 0
 155 218 155 218 198 218 c 0,10,11
 226 218 226 218 255 206 c 0
 284 194 284 194 311 171 c 0
 338 148 338 148 355 106 c 0
 372 64 372 64 372 10 c 0,12,13
 372 -234 372 -234 77 -313 c 1,14,-1
 54 -244 l 1,0,1
EndSplineSet
Fore
SplineSet
54 -236 m 1,0,1
 155 -196 155 -196 193.5 -146.5 c 128,-1,2
 232 -97 232 -97 232 -30 c 0,3,4
 232 34 232 34 200.5 73 c 128,-1,5
 169 112 169 112 123 112 c 0,6,7
 105 112 105 112 96 108 c 1,8,9
 93 117 93 117 93 127 c 0,10,11
 93 168 93 168 119.5 193 c 128,-1,12
 146 218 146 218 189 218 c 0,13,14
 249 218 249 218 290.5 163 c 128,-1,15
 332 108 332 108 332 9 c 0,16,17
 332 -29 332 -29 319 -67 c 128,-1,18
 306 -105 306 -105 278 -145.5 c 128,-1,19
 250 -186 250 -186 195.5 -221.5 c 128,-1,20
 141 -257 141 -257 66 -281 c 1,21,-1
 54 -236 l 1,0,1
EndSplineSet
Colour: ffffff
EndChar

StartChar: hyphen
Encoding: 45 45 12
Width: 544
VWidth: 0
Flags: MW
LayerCount: 3
Back
SplineSet
81 398 m 1,0,-1
 92 498 l 1,1,-1
 500 517 l 1,2,-1
 489 415 l 1,3,-1
 81 398 l 1,0,-1
EndSplineSet
Fore
SplineSet
66 419 m 1,0,-1
 76 480 l 1,1,-1
 482 497 l 1,2,-1
 473 437 l 1,3,-1
 66 419 l 1,0,-1
EndSplineSet
Colour: ffffff
EndChar

StartChar: period
Encoding: 46 46 13
Width: 256
VWidth: 0
Flags: MW
LayerCount: 3
Back
SplineSet
73 92 m 0,0,1
 73 140 73 140 108 172.5 c 0
 143 205 143 205 191 205 c 0,2,3
 241 205 241 205 277 171.5 c 0
 313 138 313 138 313 90 c 0,4,5
 313 40 313 40 277 4.5 c 0
 241 -31 241 -31 191 -31 c 0,6,7
 142 -31 142 -31 107.5 5 c 0
 73 41 73 41 73 92 c 0,0,1
EndSplineSet
Fore
SplineSet
66 70 m 0,0,1
 66 167 66 167 129 167 c 128,-1,2
 192 167 192 167 192 70 c 0,3,4
 192 -33 192 -33 129 -33 c 128,-1,5
 66 -33 66 -33 66 70 c 0,0,1
EndSplineSet
Colour: ffffff
EndChar

StartChar: colon
Encoding: 58 58 14
Width: 258
VWidth: 0
Flags: MW
LayerCount: 3
Back
SplineSet
99 119 m 0,0,1
 99 163 99 163 132.5 193.5 c 0
 166 224 166 224 212 224 c 0,2,3
 258 224 258 224 291.5 192.5 c 0
 325 161 325 161 325 117 c 0,4,5
 325 69 325 69 291.5 35 c 0
 258 1 258 1 212 1 c 0,6,7
 166 1 166 1 132.5 36 c 0
 99 71 99 71 99 119 c 0,0,1
99 747 m 0,8,9
 99 792 99 792 132.5 822.5 c 0
 166 853 166 853 212 853 c 0,10,11
 258 853 258 853 291.5 821 c 0
 325 789 325 789 325 744 c 0,12,13
 325 696 325 696 291.5 662.5 c 0
 258 629 258 629 212 629 c 0,14,15
 166 629 166 629 132.5 664 c 0
 99 699 99 699 99 747 c 0,8,9
EndSplineSet
Fore
SplineSet
84 103 m 0,0,1
 99 200 99 200 162.5 200 c 128,-1,2
 226 200 226 200 210 103 c 0,3,4
 202 52 202 52 183 26 c 128,-1,5
 164 0 164 0 131 0 c 0,6,7
 68 0 68 0 84 103 c 0,0,1
181 734 m 0,8,9
 196 829 196 829 259 829 c 0,10,11
 321 829 321 829 306 734 c 0,12,13
 298 682 298 682 280 656.5 c 128,-1,14
 262 631 262 631 229 631 c 0,15,16
 165 631 165 631 181 734 c 0,8,9
EndSplineSet
Colour: ffffff
EndChar

StartChar: semicolon
Encoding: 59 59 15
Width: 363
VWidth: 0
Flags: MW
LayerCount: 3
Back
SplineSet
77 -230 m 1,0,1
 163 -207 163 -207 204.5 -163.5 c 0
 246 -120 246 -120 246 -70 c 0,2,3
 246 -29 246 -29 216 1 c 0
 186 31 186 31 138 31 c 0,4,5
 137 31 137 31 110 28 c 1,6,7
 96 61 96 61 96 87 c 0,8,9
 96 138 96 138 132.5 168.5 c 0
 169 199 169 199 210 199 c 0,10,11
 268 199 268 199 320 149.5 c 0
 372 100 372 100 372 6 c 0,12,13
 372 -223 372 -223 98 -295 c 1,14,-1
 77 -230 l 1,0,1
126 744 m 0,15,16
 126 790 126 790 159.5 821.5 c 0
 193 853 193 853 240 853 c 0,17,18
 288 853 288 853 322 821 c 0
 356 789 356 789 356 743 c 0,19,20
 356 694 356 694 322 660 c 0
 288 626 288 626 240 626 c 0,21,22
 192 626 192 626 159 660.5 c 0
 126 695 126 695 126 744 c 0,15,16
EndSplineSet
Fore
SplineSet
128 723 m 0,0,1
 143 816 143 816 203 816 c 128,-1,2
 263 816 263 816 249 723 c 0,3,4
 241 674 241 674 223 649 c 128,-1,5
 205 624 205 624 173 624 c 0,6,7
 112 624 112 624 128 723 c 0,0,1
-25 -222 m 1,8,9
 75 -185 75 -185 118 -139 c 128,-1,10
 161 -93 161 -93 171 -31 c 0,11,12
 180 28 180 28 156.5 64.5 c 128,-1,13
 133 101 133 101 90 101 c 0,14,15
 73 101 73 101 65 97 c 1,16,17
 64 105 64 105 65 115 c 0,18,19
 71 153 71 153 99 176.5 c 128,-1,20
 127 200 127 200 167 200 c 0,21,22
 223 200 223 200 253.5 148.5 c 128,-1,23
 284 97 284 97 269 5 c 0,24,25
 263 -31 263 -31 246 -66 c 128,-1,26
 229 -101 229 -101 196.5 -138.5 c 128,-1,27
 164 -176 164 -176 108 -209 c 128,-1,28
 52 -242 52 -242 -21 -264 c 1,29,-1
 -25 -222 l 1,8,9
EndSplineSet
Colour: ffffff
EndChar

StartChar: slash
Encoding: 47 47 16
Width: 626
VWidth: 0
Flags: MW
LayerCount: 3
Back
SplineSet
439 1235 m 21,0,-1
 571 1244 l 1,1,-1
 106 -355 l 1,2,-1
 -23 -363 l 1,3,-1
 439 1235 l 21,0,-1
EndSplineSet
Fore
SplineSet
40 -358 m 1,0,-1
 502 1241 l 1,1,-1
 584 1244 l 1,2,-1
 119 -354 l 1,3,-1
 40 -358 l 1,0,-1
EndSplineSet
Colour: ffffff
EndChar

StartChar: equal
Encoding: 61 61 17
Width: 755
VWidth: 0
Flags: MW
LayerCount: 3
Back
SplineSet
92 319 m 1,0,-1
 102 424 l 1,1,-1
 717 424 l 1,2,-1
 706 319 l 1,3,-1
 92 319 l 1,0,-1
95 559 m 1,4,-1
 105 663 l 1,5,-1
 721 663 l 1,6,-1
 709 559 l 1,7,-1
 95 559 l 1,4,-1
EndSplineSet
Fore
SplineSet
65 580 m 1,0,-1
 78 645 l 1,1,-1
 691 645 l 1,2,-1
 680 580 l 1,3,-1
 65 580 l 1,0,-1
62 340 m 1,4,-1
 74 405 l 1,5,-1
 689 405 l 1,6,-1
 678 340 l 1,7,-1
 62 340 l 1,4,-1
EndSplineSet
Colour: ffffff
EndChar

StartChar: greater
Encoding: 62 62 18
Width: 747
VWidth: 0
Flags: MW
LayerCount: 3
Back
SplineSet
59 -13 m 1,0,-1
 519 434 l 1,1,-1
 79 900 l 1,2,-1
 135 973 l 1,3,-1
 755 472 l 1,4,-1
 756 415 l 1,5,-1
 122 -83 l 1,6,-1
 59 -13 l 1,0,-1
EndSplineSet
Fore
SplineSet
44 -37 m 1,0,-1
 564 444 l 1,1,-1
 63 926 l 1,2,-1
 79 973 l 1,3,-1
 698 456 l 1,4,-1
 700 426 l 1,5,-1
 66 -82 l 1,6,-1
 44 -37 l 1,0,-1
EndSplineSet
Colour: ffffff
EndChar

StartChar: question
Encoding: 63 63 19
Width: 606
VWidth: 0
Flags: MW
LayerCount: 3
Back
SplineSet
47 1152 m 0,0,1
 47 1203 47 1203 92.5 1245 c 0
 138 1287 138 1287 243 1287 c 0,2,3
 301 1287 301 1287 362 1255.5 c 0
 423 1224 423 1224 473 1169.5 c 0
 523 1115 523 1115 555 1033 c 0
 587 951 587 951 587 860 c 0,4,5
 587 812 587 812 571 774 c 0
 555 736 555 736 529.5 712 c 0
 504 688 504 688 473.5 669 c 0
 443 650 443 650 412.5 634 c 0
 382 618 382 618 356.5 601.5 c 0
 331 585 331 585 315 561.5 c 0
 299 538 299 538 299 508 c 0,6,7
 299 455 299 455 321 383 c 1,8,-1
 246 366 l 1,9,10
 219 405 219 405 194 468.5 c 0
 169 532 169 532 169 585 c 0,11,12
 169 630 169 630 186 664 c 0
 203 698 203 698 230 718 c 0
 257 738 257 738 289.5 753.5 c 0
 322 769 322 769 355 784.5 c 0
 388 800 388 800 415 818 c 0
 442 836 442 836 459 867 c 0
 476 898 476 898 476 939 c 0,13,14
 476 1004 476 1004 419 1058.5 c 0
 362 1113 362 1113 313 1113 c 0,15,16
 255 1113 255 1113 204 1094 c 0
 153 1075 153 1075 121 1041 c 1,17,18
 93 1052 93 1052 70 1083 c 0
 47 1114 47 1114 47 1152 c 0,0,1
159 92 m 0,19,20
 159 142 159 142 195.5 176 c 0
 232 210 232 210 282 210 c 0,21,22
 333 210 333 210 369.5 175 c 0
 406 140 406 140 406 90 c 0,23,24
 406 37 406 37 370 0.5 c 0
 334 -36 334 -36 282 -36 c 0,25,26
 230 -36 230 -36 194.5 1.5 c 0
 159 39 159 39 159 92 c 0,19,20
EndSplineSet
Fore
SplineSet
245 66 m 0,0,1
 251 107 251 107 271.5 133 c 128,-1,2
 292 159 292 159 317 159 c 0,3,4
 344 159 344 159 356 133 c 128,-1,5
 368 107 368 107 361 66 c 0,6,7
 345 -33 345 -33 287 -33 c 0,8,9
 257 -33 257 -33 247.5 -5.5 c 128,-1,10
 238 22 238 22 245 66 c 0,0,1
229 1166 m 0,11,12
 236 1212 236 1212 306 1249 c 128,-1,13
 376 1286 376 1286 447 1286 c 0,14,15
 533 1286 533 1286 598.5 1233 c 128,-1,16
 664 1180 664 1180 692 1097 c 128,-1,17
 720 1014 720 1014 706 925 c 0,18,19
 699 879 699 879 675.5 840 c 128,-1,20
 652 801 652 801 620 773.5 c 128,-1,21
 588 746 588 746 551 721 c 128,-1,22
 514 696 514 696 477.5 673.5 c 128,-1,23
 441 651 441 651 410 628 c 128,-1,24
 379 605 379 605 357 574 c 128,-1,25
 335 543 335 543 329 508 c 0,26,27
 324 479 324 479 331 437 c 128,-1,28
 338 395 338 395 352 358 c 1,29,-1
 310 342 l 1,30,31
 279 377 279 377 263 431.5 c 128,-1,32
 247 486 247 486 256 544 c 0,33,34
 263 588 263 588 286.5 626.5 c 128,-1,35
 310 665 310 665 341.5 693 c 128,-1,36
 373 721 373 721 410.5 746 c 128,-1,37
 448 771 448 771 484.5 793.5 c 128,-1,38
 521 816 521 816 552 838.5 c 128,-1,39
 583 861 583 861 604.5 888.5 c 128,-1,40
 626 916 626 916 631 946 c 0,41,42
 641 1007 641 1007 627 1059.5 c 128,-1,43
 613 1112 613 1112 571.5 1147 c 128,-1,44
 530 1182 530 1182 466 1182 c 0,45,46
 410 1182 410 1182 356 1161 c 128,-1,47
 302 1140 302 1140 264 1105 c 1,48,49
 223 1128 223 1128 229 1166 c 0,11,12
EndSplineSet
Colour: ffffff
EndChar

StartChar: at
Encoding: 64 64 20
Width: 1291
VWidth: 0
Flags: MW
LayerCount: 3
Back
SplineSet
54 325 m 0,0,1
 54 523 54 523 146.5 687 c 0
 239 851 239 851 407.5 947.5 c 0
 576 1044 576 1044 787 1044 c 0,2,3
 927 1044 927 1044 1045 988.5 c 0
 1163 933 1163 933 1234.5 827.5 c 0
 1306 722 1306 722 1306 589 c 0,4,5
 1306 454 1306 454 1245.5 335.5 c 0
 1185 217 1185 217 1075 143.5 c 0
 965 70 965 70 832 70 c 0,6,7
 783 70 783 70 759.5 101.5 c 0
 736 133 736 133 738 187 c 1,8,-1
 728 187 l 1,9,10
 693 135 693 135 643 97 c 0
 593 59 593 59 541 59 c 0,11,12
 460 59 460 59 410 130 c 0
 360 201 360 201 360 326 c 0,13,14
 360 428 360 428 398.5 517.5 c 0
 437 607 437 607 496.5 665 c 0
 556 723 556 723 625 756 c 0
 694 789 694 789 758 789 c 0,15,16
 854 789 854 789 924 773 c 1,17,-1
 943 751 l 1,18,-1
 902 385 l 2,19,20
 901 372 901 372 897.5 347 c 0
 894 322 894 322 892 304.5 c 0
 890 287 890 287 888 264.5 c 0
 886 242 886 242 886.5 226.5 c 0
 887 211 887 211 889 196.5 c 0
 891 182 891 182 897.5 175 c 0
 904 168 904 168 914 168 c 0,21,22
 1025 168 1025 168 1099 280.5 c 0
 1173 393 1173 393 1173 549 c 0,23,24
 1173 739 1173 739 1053.5 847 c 0
 934 955 934 955 751 955 c 0,25,26
 631 955 631 955 528 905 c 0
 425 855 425 855 356 771 c 0
 287 687 287 687 248 578 c 0
 209 469 209 469 209 351 c 0,27,28
 209 127 209 127 346 -4 c 0
 483 -135 483 -135 727 -135 c 0,29,30
 828 -135 828 -135 931.5 -96 c 0
 1035 -57 1035 -57 1079 -19 c 1,31,-1
 1115 -83 l 1,32,33
 1111 -85 1111 -85 1069 -111 c 0
 1027 -137 1027 -137 1011.5 -145.5 c 0
 996 -154 996 -154 952 -174.5 c 0
 908 -195 908 -195 875.5 -203.5 c 0
 843 -212 843 -212 793 -220 c 0
 743 -228 743 -228 691 -228 c 0,34,35
 596 -228 596 -228 507.5 -209.5 c 0
 419 -191 419 -191 335.5 -148.5 c 0
 252 -106 252 -106 190.5 -43.5 c 0
 129 19 129 19 91.5 114 c 0
 54 209 54 209 54 325 c 0,0,1
516 368 m 0,36,37
 516 262 516 262 538 221.5 c 0
 560 181 560 181 601 181 c 0,38,39
 677 181 677 181 739 254 c 1,40,-1
 792 692 l 1,41,42
 740 703 740 703 704 703 c 0,43,44
 649 703 649 703 604.5 651 c 0
 560 599 560 599 538 523 c 0
 516 447 516 447 516 368 c 0,36,37
EndSplineSet
Fore
SplineSet
442 369 m 0,0,1
 442 258 442 258 464.5 198 c 128,-1,2
 487 138 487 138 526 138 c 0,3,4
 564 138 564 138 629 174.5 c 128,-1,5
 694 211 694 211 723 243 c 1,6,-1
 778 714 l 1,7,8
 745 725 745 725 663 725 c 0,9,10
 569 725 569 725 505.5 624.5 c 128,-1,11
 442 524 442 524 442 369 c 0,0,1
56 333 m 0,12,13
 56 468 56 468 102.5 595 c 128,-1,14
 149 722 149 722 233 822.5 c 128,-1,15
 317 923 317 923 445 983.5 c 128,-1,16
 573 1044 573 1044 725 1044 c 0,17,18
 865 1044 865 1044 982 984 c 128,-1,19
 1099 924 1099 924 1168 815.5 c 128,-1,20
 1237 707 1237 707 1237 573 c 0,21,22
 1237 438 1237 438 1177.5 323 c 128,-1,23
 1118 208 1118 208 1010 138.5 c 128,-1,24
 902 69 902 69 768 69 c 0,25,26
 743 69 743 69 731 84.5 c 128,-1,27
 719 100 719 100 719 123.5 c 128,-1,28
 719 147 719 147 720 174 c 0,29,30
 721 183 721 183 721 188 c 1,31,-1
 712 188 l 1,32,33
 680 140 680 140 617 100 c 128,-1,34
 554 60 554 60 500 60 c 0,35,36
 430 60 430 60 391.5 128.5 c 128,-1,37
 353 197 353 197 353 325 c 0,38,39
 353 427 353 427 386 516.5 c 128,-1,40
 419 606 419 606 471.5 664.5 c 128,-1,41
 524 723 524 723 588.5 756.5 c 128,-1,42
 653 790 653 790 717 790 c 0,43,44
 776 790 776 790 856 772 c 1,45,-1
 871 752 l 1,46,-1
 829 385 l 2,47,48
 826 361 826 361 821 319 c 0,49,50
 807 221 807 221 809 178.5 c 128,-1,51
 811 136 811 136 840 136 c 0,52,53
 899 136 899 136 954 163 c 128,-1,54
 1009 190 1009 190 1054 240 c 128,-1,55
 1099 290 1099 290 1126 368 c 128,-1,56
 1153 446 1153 446 1153 540 c 0,57,58
 1153 639 1153 639 1113.5 724.5 c 128,-1,59
 1074 810 1074 810 1008.5 866.5 c 128,-1,60
 943 923 943 923 859.5 955.5 c 128,-1,61
 776 988 776 988 687 988 c 0,62,63
 533 988 533 988 409 906.5 c 128,-1,64
 285 825 285 825 215.5 681 c 128,-1,65
 146 537 146 537 146 358 c 0,66,67
 146 121 146 121 284.5 -21 c 128,-1,68
 423 -163 423 -163 665 -163 c 0,69,70
 766 -163 766 -163 877.5 -121.5 c 128,-1,71
 989 -80 989 -80 1032 -43 c 1,72,-1
 1053 -82 l 1,73,74
 1010 -113 1010 -113 978.5 -132.5 c 128,-1,75
 947 -152 947 -152 893.5 -177 c 128,-1,76
 840 -202 840 -202 773 -214.5 c 128,-1,77
 706 -227 706 -227 628 -227 c 0,78,79
 512 -227 512 -227 409.5 -190 c 128,-1,80
 307 -153 307 -153 228 -84.5 c 128,-1,81
 149 -16 149 -16 102.5 92 c 128,-1,82
 56 200 56 200 56 333 c 0,12,13
EndSplineSet
Colour: ffffff
EndChar

StartChar: A
Encoding: 65 65 21
Width: 1288
VWidth: 0
Flags: MW
LayerCount: 3
Back
SplineSet
-37 0 m 1,0,-1
 -28 74 l 1,1,-1
 121 129 l 1,2,-1
 559 1237 l 1,3,-1
 710 1268 l 1,4,-1
 1100 124 l 1,5,-1
 1237 80 l 1,6,-1
 1228 0 l 1,7,-1
 713 0 l 1,8,-1
 725 74 l 1,9,-1
 896 129 l 1,10,-1
 787 432 l 1,11,-1
 368 432 l 1,12,-1
 256 124 l 1,13,-1
 442 80 l 1,14,-1
 431 0 l 1,15,-1
 -37 0 l 1,0,-1
406 534 m 1,16,-1
 758 534 l 1,17,-1
 592 1034 l 1,18,-1
 406 534 l 1,16,-1
EndSplineSet
Fore
SplineSet
529 534 m 1,0,-1
 922 534 l 1,1,-1
 816 1085 l 1,2,-1
 529 534 l 1,0,-1
52 0 m 1,3,-1
 64 42 l 1,4,-1
 210 72 l 1,5,-1
 836 1254 l 1,6,-1
 891 1268 l 1,7,-1
 1115 66 l 1,8,-1
 1244 47 l 1,9,-1
 1229 1 l 1,10,-1
 820 1 l 1,11,-1
 836 43 l 1,12,-1
 1007 73 l 1,13,-1
 932 478 l 1,14,-1
 500 478 l 1,15,-1
 286 65 l 1,16,-1
 467 46 l 1,17,-1
 451 0 l 1,18,-1
 52 0 l 1,3,-1
EndSplineSet
Colour: ffffff
EndChar

StartChar: B
Encoding: 66 66 22
Width: 1063
VWidth: 0
Flags: MW
LayerCount: 3
Back
SplineSet
50 0 m 1,0,-1
 61 74 l 1,1,-1
 228 121 l 1,2,-1
 228 1104 l 1,3,-1
 57 1134 l 1,4,-1
 67 1211 l 1,5,6
 385 1257 385 1257 559 1257 c 0,7,8
 671 1257 671 1257 757.5 1233 c 0
 844 1209 844 1209 894.5 1168 c 0
 945 1127 945 1127 970.5 1076.5 c 0
 996 1026 996 1026 996 967 c 0,9,10
 996 910 996 910 978.5 858.5 c 0
 961 807 961 807 912.5 756.5 c 0
 864 706 864 706 790 679 c 1,11,-1
 790 672 l 1,12,13
 934 664 934 664 1017 576 c 0
 1100 488 1100 488 1100 380 c 0,14,15
 1100 321 1100 321 1083.5 268 c 0
 1067 215 1067 215 1028 165 c 0
 989 115 989 115 929.5 79 c 0
 870 43 870 43 777.5 21.5 c 0
 685 0 685 0 568 0 c 2,16,-1
 50 0 l 1,0,-1
420 96 m 1,17,-1
 640 96 l 2,18,19
 764 96 764 96 834 169.5 c 0
 904 243 904 243 904 347 c 0,20,21
 904 449 904 449 835 527 c 0
 766 605 766 605 643 605 c 2,22,-1
 420 605 l 1,23,-1
 420 96 l 1,17,-1
420 688 m 1,24,-1
 678 688 l 1,25,26
 808 742 808 742 808 909 c 0,27,28
 808 959 808 959 793.5 1002.5 c 0
 779 1046 779 1046 746 1085.5 c 0
 713 1125 713 1125 650 1148 c 0
 587 1171 587 1171 500 1171 c 0,29,30
 467 1171 467 1171 420 1164 c 1,31,-1
 420 688 l 1,24,-1
EndSplineSet
Fore
SplineSet
438 670 m 1,0,-1
 758 670 l 1,1,2
 959 764 959 764 959 976 c 0,3,4
 959 1089 959 1089 876 1150.5 c 128,-1,5
 793 1212 793 1212 646 1212 c 0,6,7
 551 1212 551 1212 523 1206 c 1,8,-1
 438 670 l 1,0,-1
341 54 m 1,9,-1
 487 54 l 2,10,11
 984 54 984 54 983 371 c 0,12,13
 983 419 983 419 963.5 463 c 128,-1,14
 944 507 944 507 907.5 542.5 c 128,-1,15
 871 578 871 578 813.5 599.5 c 128,-1,16
 756 621 756 621 686 621 c 2,17,-1
 430 621 l 1,18,-1
 341 54 l 1,9,-1
49 0 m 1,19,-1
 64 42 l 1,20,-1
 237 72 l 1,21,-1
 409 1153 l 1,22,-1
 240 1175 l 1,23,-1
 256 1211 l 1,24,25
 275 1214 275 1214 327.5 1222 c 128,-1,26
 380 1230 380 1230 402.5 1233 c 128,-1,27
 425 1236 425 1236 471.5 1242 c 128,-1,28
 518 1248 518 1248 549.5 1250.5 c 128,-1,29
 581 1253 581 1253 624.5 1255 c 128,-1,30
 668 1257 668 1257 711 1257 c 0,31,32
 884 1257 884 1257 974 1187 c 128,-1,33
 1064 1117 1064 1117 1064 995 c 0,34,35
 1064 936 1064 936 1044.5 883 c 128,-1,36
 1025 830 1025 830 990.5 790.5 c 128,-1,37
 956 751 956 751 919 721.5 c 128,-1,38
 882 692 882 692 838 668 c 1,39,-1
 837 662 l 1,40,41
 939 645 939 645 1011.5 570.5 c 128,-1,42
 1084 496 1084 496 1084 391 c 0,43,44
 1084 267 1084 267 1010 178.5 c 128,-1,45
 936 90 936 90 800 45 c 128,-1,46
 664 0 664 0 479 0 c 2,47,-1
 49 0 l 1,19,-1
EndSplineSet
Colour: ffffff
EndChar

StartChar: C
Encoding: 67 67 23
Width: 1040
VWidth: 0
Flags: MW
LayerCount: 3
Back
SplineSet
61 589 m 0,0,1
 61 681 61 681 83.5 773.5 c 0
 106 866 106 866 156.5 956 c 0
 207 1046 207 1046 279.5 1115 c 0
 352 1184 352 1184 462 1226.5 c 0
 572 1269 572 1269 704 1269 c 0,2,3
 934 1269 934 1269 1066 1169 c 1,4,-1
 1035 837 l 1,5,-1
 947 850 l 1,6,-1
 905 1070 l 1,7,8
 824 1174 824 1174 647 1174 c 0,9,10
 487 1174 487 1174 381 1034 c 0
 275 894 275 894 275 658 c 0,11,12
 275 528 275 528 312.5 422 c 0
 350 316 350 316 413 249 c 0
 476 182 476 182 557 146.5 c 0
 638 111 638 111 728 111 c 0,13,14
 822 111 822 111 914.5 153.5 c 0
 1007 196 1007 196 1078 261 c 1,15,-1
 1113 185 l 1,16,17
 1045 102 1045 102 920 39 c 0
 795 -24 795 -24 651 -24 c 0,18,19
 534 -24 534 -24 429 16.5 c 0
 324 57 324 57 241.5 132 c 0
 159 207 159 207 110 325.5 c 0
 61 444 61 444 61 589 c 0,0,1
EndSplineSet
Fore
SplineSet
818 1271 m 0,0,1
 913 1271 913 1271 992 1248 c 128,-1,2
 1071 1225 1071 1225 1112 1191 c 1,3,-1
 1028 854 l 1,4,-1
 982 862 l 1,5,-1
 993 1121 l 1,6,7
 977 1147 977 1147 963.5 1161.5 c 128,-1,8
 950 1176 950 1176 924.5 1190 c 128,-1,9
 899 1204 899 1204 860 1209.5 c 128,-1,10
 821 1215 821 1215 762 1215 c 0,11,12
 665 1215 665 1215 572.5 1158 c 128,-1,13
 480 1101 480 1101 409.5 1004.5 c 128,-1,14
 339 908 339 908 295.5 770.5 c 128,-1,15
 252 633 252 633 252 483 c 0,16,17
 252 279 252 279 346.5 166.5 c 128,-1,18
 441 54 441 54 620 54 c 0,19,20
 730 54 730 54 831.5 99 c 128,-1,21
 933 144 933 144 1010 218 c 1,22,-1
 1027 181 l 1,23,24
 996 144 996 144 951 109 c 128,-1,25
 906 74 906 74 847 43 c 128,-1,26
 788 12 788 12 713 -7 c 128,-1,27
 638 -26 638 -26 561 -26 c 0,28,29
 365 -26 365 -26 251.5 107.5 c 128,-1,30
 138 241 138 241 138 466 c 0,31,32
 138 583 138 583 167 698 c 128,-1,33
 196 813 196 813 255 916 c 128,-1,34
 314 1019 314 1019 394 1098.5 c 128,-1,35
 474 1178 474 1178 584 1224.5 c 128,-1,36
 694 1271 694 1271 818 1271 c 0,0,1
EndSplineSet
Colour: ffffff
EndChar

StartChar: D
Encoding: 68 68 24
Width: 1255
VWidth: 0
Flags: MW
LayerCount: 3
Back
SplineSet
47 0 m 1,0,-1
 61 74 l 1,1,-1
 233 129 l 1,2,-1
 233 1103 l 1,3,-1
 61 1133 l 1,4,-1
 70 1209 l 1,5,6
 381 1258 381 1258 583 1258 c 0,7,8
 746 1258 746 1258 873 1224 c 0
 1000 1190 1000 1190 1080 1134 c 0
 1160 1078 1160 1078 1211.5 998.5 c 0
 1263 919 1263 919 1283.5 834.5 c 0
 1304 750 1304 750 1304 653 c 0,9,10
 1304 549 1304 549 1274.5 453.5 c 0
 1245 358 1245 358 1182.5 275 c 0
 1120 192 1120 192 1031 131 c 0
 942 70 942 70 816.5 35 c 0
 691 0 691 0 541 0 c 2,11,-1
 47 0 l 1,0,-1
424 104 m 1,12,-1
 569 104 l 2,13,14
 698 104 698 104 800 143.5 c 0
 902 183 902 183 965 251.5 c 0
 1028 320 1028 320 1060.5 408 c 0
 1093 496 1093 496 1093 598 c 0,15,16
 1093 715 1093 715 1058.5 815 c 0
 1024 915 1024 915 958 991.5 c 0
 892 1068 892 1068 786 1111.5 c 0
 680 1155 680 1155 546 1155 c 0,17,18
 464 1155 464 1155 424 1151 c 1,19,-1
 424 104 l 1,12,-1
EndSplineSet
Fore
SplineSet
49 0 m 1,0,-1
 64 42 l 1,1,-1
 237 72 l 1,2,-1
 409 1153 l 1,3,-1
 240 1175 l 1,4,-1
 256 1211 l 1,5,6
 420 1236 420 1236 529.5 1247.5 c 128,-1,7
 639 1259 639 1259 742 1259 c 0,8,9
 865 1259 865 1259 963.5 1234 c 128,-1,10
 1062 1209 1062 1209 1127.5 1165.5 c 128,-1,11
 1193 1122 1193 1122 1237 1059.5 c 128,-1,12
 1281 997 1281 997 1300 926 c 128,-1,13
 1319 855 1319 855 1319 772 c 0,14,15
 1319 642 1319 642 1285 525.5 c 128,-1,16
 1251 409 1251 409 1182 313 c 128,-1,17
 1113 217 1113 217 1014.5 147 c 128,-1,18
 916 77 916 77 780.5 38.5 c 128,-1,19
 645 0 645 0 485 0 c 2,20,-1
 49 0 l 1,0,-1
341 54 m 1,21,-1
 521 54 l 2,22,23
 670 54 670 54 794 98.5 c 128,-1,24
 918 143 918 143 1010 227.5 c 128,-1,25
 1102 312 1102 312 1153 441.5 c 128,-1,26
 1204 571 1204 571 1204 734 c 0,27,28
 1204 960 1204 960 1070 1083.5 c 128,-1,29
 936 1207 936 1207 687 1207 c 0,30,31
 568 1207 568 1207 520 1188 c 1,32,-1
 341 54 l 1,21,-1
EndSplineSet
Colour: ffffff
EndChar

StartChar: E
Encoding: 69 69 25
Width: 1064
VWidth: 0
Flags: MW
LayerCount: 3
Back
SplineSet
50 1168 m 1,0,-1
 61 1244 l 1,1,-1
 1056 1244 l 1,2,-1
 1025 924 l 1,3,-1
 938 937 l 1,4,-1
 897 1152 l 1,5,-1
 426 1152 l 1,6,-1
 426 676 l 1,7,-1
 716 676 l 1,8,-1
 758 796 l 1,9,-1
 853 810 l 1,10,-1
 819 421 l 1,11,-1
 734 408 l 1,12,-1
 700 583 l 1,13,-1
 426 583 l 1,14,-1
 426 96 l 1,15,-1
 921 96 l 1,16,-1
 1019 326 l 1,17,-1
 1102 313 l 1,18,-1
 1072 0 l 1,19,-1
 57 0 l 1,20,-1
 65 74 l 1,21,-1
 232 121 l 1,22,-1
 232 1126 l 1,23,-1
 50 1168 l 1,0,-1
EndSplineSet
Fore
SplineSet
240 1202 m 1,0,-1
 254 1244 l 1,1,-1
 1165 1244 l 1,2,-1
 1084 925 l 1,3,-1
 1038 931 l 1,4,-1
 1061 1193 l 1,5,-1
 527 1193 l 1,6,-1
 442 659 l 1,7,-1
 777 659 l 1,8,-1
 836 798 l 1,9,-1
 892 806 l 1,10,-1
 797 417 l 1,11,-1
 745 408 l 1,12,-1
 760 605 l 1,13,-1
 434 605 l 1,14,-1
 347 54 l 1,15,-1
 909 54 l 1,16,-1
 1025 323 l 1,17,-1
 1065 313 l 1,18,-1
 985 0 l 1,19,-1
 53 0 l 1,20,-1
 66 42 l 1,21,-1
 240 72 l 1,22,-1
 415 1175 l 1,23,-1
 240 1202 l 1,0,-1
EndSplineSet
Colour: ffffff
EndChar

StartChar: F
Encoding: 70 70 26
Width: 1017
VWidth: 0
Flags: MW
LayerCount: 3
Back
SplineSet
50 1168 m 1,0,-1
 61 1244 l 1,1,-1
 1054 1244 l 1,2,-1
 1013 922 l 1,3,-1
 925 936 l 1,4,-1
 891 1152 l 1,5,-1
 426 1152 l 1,6,-1
 426 670 l 1,7,-1
 713 670 l 1,8,-1
 755 790 l 1,9,-1
 845 804 l 1,10,-1
 818 412 l 1,11,-1
 730 398 l 1,12,-1
 700 578 l 1,13,-1
 426 578 l 1,14,-1
 423 122 l 1,15,-1
 661 83 l 1,16,-1
 648 0 l 1,17,-1
 57 0 l 1,18,-1
 65 74 l 1,19,-1
 232 121 l 1,20,-1
 232 1126 l 1,21,-1
 50 1168 l 1,0,-1
EndSplineSet
Fore
SplineSet
240 1202 m 1,0,-1
 254 1244 l 1,1,-1
 1165 1244 l 1,2,-1
 1081 922 l 1,3,-1
 1033 930 l 1,4,-1
 1054 1193 l 1,5,-1
 524 1193 l 1,6,-1
 435 633 l 1,7,-1
 768 633 l 1,8,-1
 829 773 l 1,9,-1
 887 780 l 1,10,-1
 794 392 l 1,11,-1
 738 384 l 1,12,-1
 751 580 l 1,13,-1
 427 580 l 1,14,-1
 346 70 l 1,15,-1
 589 53 l 1,16,-1
 569 0 l 1,17,-1
 54 0 l 1,18,-1
 64 42 l 1,19,-1
 238 72 l 1,20,-1
 413 1175 l 1,21,-1
 240 1202 l 1,0,-1
EndSplineSet
Colour: ffffff
EndChar

StartChar: G
Encoding: 71 71 27
Width: 1219
VWidth: 0
Flags: MW
LayerCount: 3
Back
SplineSet
61 578 m 0,0,1
 61 703 61 703 97 813 c 0
 133 923 133 923 196 1004 c 0
 259 1085 259 1085 342.5 1143 c 0
 426 1201 426 1201 521.5 1230.5 c 0
 617 1260 617 1260 717 1260 c 0,2,3
 976 1260 976 1260 1139 1163 c 1,4,-1
 1115 841 l 1,5,-1
 1028 856 l 1,6,-1
 992 1047 l 1,7,8
 950 1089 950 1089 861.5 1125 c 0
 773 1161 773 1161 667 1161 c 0,9,10
 590 1161 590 1161 522 1131.5 c 0
 454 1102 454 1102 398 1042.5 c 0
 342 983 342 983 309 881 c 0
 276 779 276 779 276 647 c 0,11,12
 276 558 276 558 296.5 474 c 0
 317 390 317 390 359 318 c 0
 401 246 401 246 459.5 192 c 0
 518 138 518 138 598 107.5 c 0
 678 77 678 77 771 77 c 0,13,14
 870 77 870 77 943 119 c 1,15,-1
 943 434 l 1,16,-1
 707 472 l 1,17,-1
 719 555 l 1,18,-1
 1275 555 l 1,19,-1
 1263 480 l 1,20,-1
 1139 439 l 1,21,-1
 1139 79 l 1,22,23
 1042 21 1042 21 926.5 -5 c 0
 811 -31 811 -31 658 -31 c 0,24,25
 511 -31 511 -31 395.5 16 c 0
 280 63 280 63 208 146 c 0
 136 229 136 229 98.5 338.5 c 0
 61 448 61 448 61 578 c 0,0,1
EndSplineSet
Fore
SplineSet
852 1262 m 0,0,1
 960 1262 960 1262 1059.5 1239.5 c 128,-1,2
 1159 1217 1159 1217 1220 1170 c 1,3,-1
 1140 852 l 1,4,-1
 1096 857 l 1,5,-1
 1102 1093 l 1,6,7
 1071 1139 1071 1139 996 1170 c 128,-1,8
 921 1201 921 1201 810 1201 c 0,9,10
 694 1201 694 1201 591 1145 c 128,-1,11
 488 1089 488 1089 415.5 993.5 c 128,-1,12
 343 898 343 898 301 766 c 128,-1,13
 259 634 259 634 259 488 c 0,14,15
 259 415 259 415 272 351 c 128,-1,16
 285 287 285 287 316 230 c 128,-1,17
 347 173 347 173 393.5 132.5 c 128,-1,18
 440 92 440 92 511 68.5 c 128,-1,19
 582 45 582 45 671 45 c 0,20,21
 826 45 826 45 943 118 c 1,22,-1
 1004 492 l 1,23,-1
 767 517 l 1,24,-1
 779 556 l 1,25,-1
 1259 556 l 1,26,-1
 1246 517 l 1,27,-1
 1109 496 l 1,28,-1
 1043 79 l 1,29,30
 939 22 939 22 827.5 1 c 128,-1,31
 716 -20 716 -20 557 -20 c 0,32,33
 467 -20 467 -20 390 13.5 c 128,-1,34
 313 47 313 47 257 109 c 128,-1,35
 201 171 201 171 169.5 262.5 c 128,-1,36
 138 354 138 354 138 466 c 0,37,38
 138 583 138 583 171.5 699 c 128,-1,39
 205 815 205 815 268.5 916 c 128,-1,40
 332 1017 332 1017 417.5 1094.5 c 128,-1,41
 503 1172 503 1172 616 1217 c 128,-1,42
 729 1262 729 1262 852 1262 c 0,0,1
EndSplineSet
Colour: ffffff
EndChar

StartChar: H
Encoding: 72 72 28
Width: 1392
VWidth: 0
Flags: MW
LayerCount: 3
Back
SplineSet
50 1168 m 1,0,-1
 61 1244 l 1,1,-1
 605 1244 l 1,2,-1
 595 1168 l 1,3,-1
 427 1130 l 1,4,-1
 427 692 l 1,5,-1
 1054 692 l 1,6,-1
 1054 1126 l 1,7,-1
 871 1168 l 1,8,-1
 882 1244 l 1,9,-1
 1428 1244 l 1,10,-1
 1416 1168 l 1,11,-1
 1249 1130 l 1,12,-1
 1249 114 l 1,13,-1
 1431 80 l 1,14,-1
 1421 0 l 1,15,-1
 878 0 l 1,16,-1
 888 74 l 1,17,-1
 1054 121 l 1,18,-1
 1054 589 l 1,19,-1
 427 589 l 1,20,-1
 427 114 l 1,21,-1
 611 80 l 1,22,-1
 598 0 l 1,23,-1
 57 0 l 1,24,-1
 65 74 l 1,25,-1
 232 121 l 1,26,-1
 232 1126 l 1,27,-1
 50 1168 l 1,0,-1
EndSplineSet
Fore
SplineSet
240 1205 m 1,0,-1
 249 1244 l 1,1,-1
 710 1244 l 1,2,-1
 699 1205 l 1,3,-1
 526 1182 l 1,4,-1
 442 651 l 1,5,-1
 1155 651 l 1,6,-1
 1239 1180 l 1,7,-1
 1059 1205 l 1,8,-1
 1072 1244 l 1,9,-1
 1532 1244 l 1,10,-1
 1518 1205 l 1,11,-1
 1347 1182 l 1,12,-1
 1170 65 l 1,13,-1
 1350 46 l 1,14,-1
 1336 0 l 1,15,-1
 878 0 l 1,16,-1
 893 42 l 1,17,-1
 1063 72 l 1,18,-1
 1146 591 l 1,19,-1
 433 591 l 1,20,-1
 349 65 l 1,21,-1
 532 46 l 1,22,-1
 514 0 l 1,23,-1
 57 0 l 1,24,-1
 69 42 l 1,25,-1
 240 72 l 1,26,-1
 416 1180 l 1,27,-1
 240 1205 l 1,0,-1
EndSplineSet
Colour: ffffff
EndChar

StartChar: I
Encoding: 73 73 29
Width: 575
VWidth: 0
Flags: MW
LayerCount: 3
Back
SplineSet
50 1168 m 1,0,-1
 61 1244 l 1,1,-1
 605 1244 l 1,2,-1
 595 1168 l 1,3,-1
 426 1130 l 1,4,-1
 426 114 l 1,5,-1
 607 80 l 1,6,-1
 597 0 l 1,7,-1
 57 0 l 1,8,-1
 65 74 l 1,9,-1
 232 121 l 1,10,-1
 232 1126 l 1,11,-1
 50 1168 l 1,0,-1
EndSplineSet
Fore
SplineSet
238 1205 m 1,0,-1
 250 1244 l 1,1,-1
 712 1244 l 1,2,-1
 699 1205 l 1,3,-1
 520 1182 l 1,4,-1
 343 65 l 1,5,-1
 533 46 l 1,6,-1
 517 0 l 1,7,-1
 57 0 l 1,8,-1
 69 42 l 1,9,-1
 231 72 l 1,10,-1
 407 1180 l 1,11,-1
 238 1205 l 1,0,-1
EndSplineSet
Colour: ffffff
EndChar

StartChar: J
Encoding: 74 74 30
Width: 629
VWidth: 0
Flags: MW
LayerCount: 3
Back
SplineSet
-4 -237 m 1,0,1
 117 -122 117 -122 174.5 -20.5 c 0
 232 81 232 81 232 197 c 2,2,-1
 233 1126 l 1,3,-1
 52 1168 l 1,4,-1
 62 1244 l 1,5,-1
 607 1244 l 1,6,-1
 597 1168 l 1,7,-1
 427 1130 l 1,8,-1
 426 385 l 2,9,10
 426 281 426 281 418.5 203.5 c 0
 411 126 411 126 391.5 60.5 c 0
 372 -5 372 -5 346 -53 c 0
 320 -101 320 -101 274.5 -149 c 0
 229 -197 229 -197 178 -236 c 0
 127 -275 127 -275 50 -326 c 1,11,-1
 -4 -237 l 1,0,1
EndSplineSet
Fore
SplineSet
-3 -277 m 1,0,1
 73 -220 73 -220 125.5 -168.5 c 128,-1,2
 178 -117 178 -117 222 -51 c 128,-1,3
 266 15 266 15 294.5 96.5 c 128,-1,4
 323 178 323 178 340 282 c 2,5,-1
 482 1180 l 1,6,-1
 306 1205 l 1,7,-1
 317 1244 l 1,8,-1
 781 1244 l 1,9,-1
 769 1205 l 1,10,-1
 598 1182 l 1,11,-1
 464 360 l 2,12,13
 448 262 448 262 428 186.5 c 128,-1,14
 408 111 408 111 380 47.5 c 128,-1,15
 352 -16 352 -16 320 -63.5 c 128,-1,16
 288 -111 288 -111 240 -157 c 128,-1,17
 192 -203 192 -203 140.5 -240.5 c 128,-1,18
 89 -278 89 -278 15 -325 c 1,19,-1
 -3 -277 l 1,0,1
EndSplineSet
Colour: ffffff
EndChar

StartChar: K
Encoding: 75 75 31
Width: 1205
VWidth: 0
Flags: MW
LayerCount: 3
Back
SplineSet
47 1168 m 1,0,-1
 61 1244 l 1,1,-1
 611 1244 l 1,2,-1
 601 1168 l 1,3,-1
 429 1121 l 1,4,-1
 429 124 l 1,5,-1
 618 80 l 1,6,-1
 607 0 l 1,7,-1
 54 0 l 1,8,-1
 64 74 l 1,9,-1
 236 129 l 1,10,-1
 236 1117 l 1,11,-1
 47 1168 l 1,0,-1
453 626 m 1,12,13
 476 649 476 649 529.5 709.5 c 0
 583 770 583 770 605 798 c 2,14,-1
 851 1121 l 1,15,-1
 696 1168 l 1,16,-1
 704 1244 l 1,17,-1
 1197 1244 l 1,18,-1
 1185 1168 l 1,19,-1
 1008 1121 l 1,20,-1
 635 653 l 1,21,-1
 862 385 l 2,22,23
 991 232 991 232 1057.5 171.5 c 0
 1124 111 1124 111 1213 83 c 1,24,-1
 1250 70 l 1,25,-1
 1240 1 l 1,26,27
 1177 -21 1177 -21 1109 -21 c 0,28,29
 994 -21 994 -21 899 52.5 c 0
 804 126 804 126 706 261 c 2,30,-1
 454 605 l 1,31,-1
 453 626 l 1,12,13
EndSplineSet
Fore
SplineSet
481 619 m 1,0,1
 564 695 564 695 652 785 c 2,2,-1
 1038 1180 l 1,3,-1
 869 1205 l 1,4,-1
 879 1244 l 1,5,-1
 1296 1244 l 1,6,-1
 1287 1205 l 1,7,-1
 1130 1182 l 1,8,-1
 587 629 l 1,9,-1
 800 321 l 2,10,11
 847 253 847 253 881 210.5 c 128,-1,12
 915 168 915 168 952 132.5 c 128,-1,13
 989 97 989 97 1025.5 79 c 128,-1,14
 1062 61 1062 61 1106 54 c 2,15,-1
 1158 46 l 1,16,-1
 1139 3 l 1,17,18
 1129 0 1129 0 1114 -5 c 128,-1,19
 1099 -10 1099 -10 1091.5 -12.5 c 128,-1,20
 1084 -15 1084 -15 1073 -17.5 c 128,-1,21
 1062 -20 1062 -20 1052 -21 c 128,-1,22
 1042 -22 1042 -22 1030 -22 c 0,23,24
 1002 -22 1002 -22 975.5 -15 c 128,-1,25
 949 -8 949 -8 927.5 2.5 c 128,-1,26
 906 13 906 13 883 33.5 c 128,-1,27
 860 54 860 54 843 71 c 128,-1,28
 826 88 826 88 802.5 119 c 128,-1,29
 779 150 779 150 764.5 171.5 c 128,-1,30
 750 193 750 193 724 230 c 2,31,-1
 481 604 l 1,32,-1
 481 619 l 1,0,1
239 1205 m 1,33,-1
 250 1244 l 1,34,-1
 704 1244 l 1,35,-1
 695 1205 l 1,36,-1
 521 1182 l 1,37,-1
 344 65 l 1,38,-1
 527 46 l 1,39,-1
 509 0 l 1,40,-1
 58 0 l 1,41,-1
 71 42 l 1,42,-1
 232 72 l 1,43,-1
 408 1180 l 1,44,-1
 239 1205 l 1,33,-1
EndSplineSet
Colour: ffffff
EndChar

StartChar: L
Encoding: 76 76 32
Width: 1039
VWidth: 0
Flags: MW
LayerCount: 3
Back
SplineSet
58 0 m 5,0,-1
 67 74 l 1,1,-1
 233 121 l 1,2,-1
 233 1117 l 1,3,-1
 45 1168 l 1,4,-1
 58 1244 l 1,5,-1
 608 1244 l 1,6,-1
 598 1168 l 1,7,-1
 427 1121 l 1,8,-1
 427 96 l 1,9,-1
 869 96 l 1,10,-1
 1000 344 l 1,11,-1
 1085 331 l 1,12,-1
 1048 0 l 1,13,-1
 58 0 l 5,0,-1
EndSplineSet
Fore
SplineSet
52 0 m 1,0,-1
 64 42 l 1,1,-1
 237 72 l 1,2,-1
 413 1178 l 1,3,-1
 245 1203 l 1,4,-1
 255 1243 l 1,5,-1
 715 1243 l 1,6,-1
 705 1203 l 1,7,-1
 525 1182 l 1,8,-1
 347 54 l 1,9,-1
 877 54 l 1,10,-1
 981 338 l 1,11,-1
 1023 330 l 1,12,-1
 983 0 l 1,13,-1
 52 0 l 1,0,-1
EndSplineSet
Colour: ffffff
EndChar

StartChar: M
Encoding: 77 77 33
Width: 1683
VWidth: 0
Flags: MW
LayerCount: 3
Back
SplineSet
24 0 m 1,0,-1
 35 74 l 1,1,-1
 202 121 l 1,2,-1
 275 1126 l 1,3,-1
 92 1168 l 1,4,-1
 102 1244 l 1,5,-1
 505 1244 l 1,6,-1
 583 1050 l 1,7,-1
 845 313 l 1,8,-1
 1152 1083 l 1,9,-1
 1223 1244 l 1,10,-1
 1618 1244 l 1,11,-1
 1608 1168 l 1,12,-1
 1440 1130 l 1,13,-1
 1492 114 l 1,14,-1
 1674 80 l 1,15,-1
 1664 0 l 1,16,-1
 1128 0 l 1,17,-1
 1139 74 l 1,18,-1
 1305 121 l 1,19,-1
 1249 1004 l 1,20,-1
 868 50 l 1,21,-1
 740 31 l 1,22,-1
 397 967 l 1,23,-1
 334 114 l 1,24,-1
 517 80 l 1,25,-1
 504 0 l 1,26,-1
 24 0 l 1,0,-1
EndSplineSet
Fore
SplineSet
46 0 m 1,0,-1
 56 33 l 1,1,-1
 228 64 l 1,2,-1
 468 1175 l 1,3,-1
 289 1208 l 1,4,-1
 302 1244 l 1,5,-1
 635 1244 l 1,6,-1
 676 1062 l 1,7,-1
 865 249 l 1,8,-1
 1326 1099 l 1,9,-1
 1417 1244 l 1,10,-1
 1741 1244 l 1,11,-1
 1730 1208 l 1,12,-1
 1570 1178 l 1,13,-1
 1476 57 l 1,14,-1
 1667 40 l 1,15,-1
 1659 0 l 1,16,-1
 1177 0 l 1,17,-1
 1188 33 l 1,18,-1
 1364 64 l 1,19,-1
 1453 1169 l 1,20,-1
 832 60 l 1,21,-1
 780 50 l 1,22,-1
 533 1151 l 1,23,-1
 300 57 l 1,24,-1
 472 40 l 1,25,-1
 460 0 l 1,26,-1
 46 0 l 1,0,-1
EndSplineSet
Colour: ffffff
EndChar

StartChar: N
Encoding: 78 78 34
Width: 1346
VWidth: 0
Flags: MW
LayerCount: 3
Back
SplineSet
50 1168 m 1,0,-1
 61 1244 l 1,1,-1
 411 1244 l 1,2,-1
 1054 274 l 1,3,-1
 1054 1126 l 1,4,-1
 869 1168 l 1,5,-1
 881 1244 l 1,6,-1
 1356 1244 l 1,7,-1
 1343 1168 l 1,8,-1
 1176 1130 l 1,9,-1
 1176 1 l 1,10,-1
 1023 -30 l 1,11,-1
 360 961 l 1,12,-1
 360 114 l 1,13,-1
 543 80 l 1,14,-1
 532 0 l 1,15,-1
 57 0 l 1,16,-1
 65 74 l 1,17,-1
 232 121 l 1,18,-1
 232 1117 l 1,19,-1
 50 1168 l 1,0,-1
EndSplineSet
Fore
SplineSet
238 1208 m 1,0,-1
 252 1244 l 1,1,-1
 550 1244 l 1,2,-1
 1096 197 l 1,3,-1
 1251 1180 l 1,4,-1
 1077 1205 l 1,5,-1
 1089 1244 l 1,6,-1
 1513 1244 l 1,7,-1
 1499 1205 l 1,8,-1
 1329 1182 l 1,9,-1
 1141 -7 l 1,10,-1
 1085 -18 l 1,11,-1
 489 1124 l 1,12,-1
 320 65 l 1,13,-1
 497 46 l 1,14,-1
 480 0 l 1,15,-1
 59 0 l 1,16,-1
 72 42 l 1,17,-1
 243 72 l 1,18,-1
 418 1175 l 1,19,-1
 238 1208 l 1,0,-1
EndSplineSet
Colour: ffffff
EndChar

StartChar: O
Encoding: 79 79 35
Width: 1221
VWidth: 0
Flags: MW
LayerCount: 3
Back
SplineSet
61 619 m 0,0,1
 61 911 61 911 236 1091.5 c 0
 411 1272 411 1272 706 1272 c 0,2,3
 838 1272 838 1272 948.5 1219.5 c 0
 1059 1167 1059 1167 1131.5 1077 c 0
 1204 987 1204 987 1244 869 c 0
 1284 751 1284 751 1284 619 c 0,4,5
 1284 489 1284 489 1240.5 372.5 c 0
 1197 256 1197 256 1116.5 167 c 0
 1036 78 1036 78 911.5 25.5 c 0
 787 -27 787 -27 636 -27 c 0,6,7
 467 -27 467 -27 335 59 c 0
 203 145 203 145 132 292 c 0
 61 439 61 439 61 619 c 0,0,1
283 676 m 0,8,9
 283 585 283 585 297 501 c 0
 311 417 311 417 342.5 339.5 c 0
 374 262 374 262 419.5 204.5 c 0
 465 147 465 147 533.5 113 c 0
 602 79 602 79 686 79 c 0,10,11
 774 79 774 79 841.5 107.5 c 0
 909 136 909 136 950 182.5 c 0
 991 229 991 229 1017 295 c 0
 1043 361 1043 361 1052.5 428 c 0
 1062 495 1062 495 1062 573 c 0,12,13
 1062 661 1062 661 1048 745 c 0
 1034 829 1034 829 1002 907.5 c 0
 970 986 970 986 924.5 1045.5 c 0
 879 1105 879 1105 810 1140.5 c 0
 741 1176 741 1176 658 1176 c 0,14,15
 283 1176 283 1176 283 676 c 0,8,9
EndSplineSet
Fore
SplineSet
272 547 m 0,0,1
 272 308 272 308 366 176 c 128,-1,2
 460 44 460 44 650 44 c 0,3,4
 778 44 778 44 879.5 93.5 c 128,-1,5
 981 143 981 143 1047 231 c 128,-1,6
 1113 319 1113 319 1147.5 437 c 128,-1,7
 1182 555 1182 555 1182 693 c 0,8,9
 1182 802 1182 802 1158.5 894.5 c 128,-1,10
 1135 987 1135 987 1090 1056.5 c 128,-1,11
 1045 1126 1045 1126 974 1165.5 c 128,-1,12
 903 1205 903 1205 814 1205 c 0,13,14
 709 1205 709 1205 620 1171 c 128,-1,15
 531 1137 531 1137 467.5 1076 c 128,-1,16
 404 1015 404 1015 359.5 932.5 c 128,-1,17
 315 850 315 850 293.5 752.5 c 128,-1,18
 272 655 272 655 272 547 c 0,0,1
871 1274 m 0,19,20
 978 1274 978 1274 1062.5 1235 c 128,-1,21
 1147 1196 1147 1196 1200 1127 c 128,-1,22
 1253 1058 1253 1058 1280 966 c 128,-1,23
 1307 874 1307 874 1307 765 c 0,24,25
 1307 643 1307 643 1277.5 527.5 c 128,-1,26
 1248 412 1248 412 1187.5 311.5 c 128,-1,27
 1127 211 1127 211 1043 135.5 c 128,-1,28
 959 60 959 60 843 16.5 c 128,-1,29
 727 -27 727 -27 593 -27 c 0,30,31
 487 -27 487 -27 401 12.5 c 128,-1,32
 315 52 315 52 258.5 121.5 c 128,-1,33
 202 191 202 191 172 284.5 c 128,-1,34
 142 378 142 378 142 488 c 0,35,36
 142 659 142 659 198.5 806.5 c 128,-1,37
 255 954 255 954 353 1056 c 128,-1,38
 451 1158 451 1158 585.5 1216 c 128,-1,39
 720 1274 720 1274 871 1274 c 0,19,20
EndSplineSet
Colour: ffffff
EndChar

StartChar: P
Encoding: 80 80 36
Width: 999
VWidth: 0
Flags: MW
LayerCount: 3
Back
SplineSet
50 0 m 1,0,-1
 61 74 l 1,1,-1
 228 121 l 1,2,-1
 228 1104 l 1,3,-1
 57 1134 l 1,4,-1
 67 1211 l 1,5,6
 366 1255 366 1255 543 1255 c 0,7,8
 1045 1255 1045 1255 1045 892 c 0,9,10
 1045 805 1045 805 1007 730 c 0
 969 655 969 655 905.5 604 c 0
 842 553 842 553 758.5 523.5 c 0
 675 494 675 494 584 494 c 0,11,12
 577 494 577 494 484 497 c 1,13,-1
 466 580 l 1,14,-1
 519 581 l 1,15,16
 838 590 838 590 838 856 c 0,17,18
 838 995 838 995 760.5 1083.5 c 0
 683 1172 683 1172 522 1172 c 1,19,20
 420 1166 l 1,21,-1
 420 122 l 1,22,-1
 657 83 l 1,23,-1
 643 0 l 1,24,-1
 50 0 l 1,0,-1
EndSplineSet
Fore
SplineSet
50 0 m 1,0,-1
 62 42 l 1,1,-1
 224 72 l 1,2,-1
 396 1153 l 1,3,-1
 237 1175 l 1,4,-1
 252 1211 l 1,5,6
 270 1214 270 1214 328.5 1223 c 128,-1,7
 387 1232 387 1232 414.5 1236 c 128,-1,8
 442 1240 442 1240 492 1245.5 c 128,-1,9
 542 1251 542 1251 588 1253.5 c 128,-1,10
 634 1256 634 1256 683 1256 c 0,11,12
 889 1256 889 1256 990.5 1174.5 c 128,-1,13
 1092 1093 1092 1093 1092 949 c 0,14,15
 1092 860 1092 860 1060 781 c 128,-1,16
 1028 702 1028 702 973 644.5 c 128,-1,17
 918 587 918 587 847 545.5 c 128,-1,18
 776 504 776 504 696 483 c 128,-1,19
 616 462 616 462 535 462 c 0,20,21
 499 462 499 462 485 464 c 1,22,-1
 482 506 l 1,23,-1
 537 509 l 1,24,25
 753 518 753 518 861.5 625.5 c 128,-1,26
 970 733 970 733 970 913 c 0,27,28
 970 979 970 979 952 1032 c 128,-1,29
 934 1085 934 1085 896.5 1126 c 128,-1,30
 859 1167 859 1167 795.5 1189.5 c 128,-1,31
 732 1212 732 1212 645 1212 c 1,32,-1
 519 1206 l 1,33,-1
 338 66 l 1,34,-1
 564 46 l 1,35,-1
 549 0 l 1,36,-1
 50 0 l 1,0,-1
EndSplineSet
Colour: ff0000
EndChar

StartChar: Q
Encoding: 81 81 37
Width: 1218
VWidth: 0
Flags: MW
LayerCount: 3
Back
SplineSet
61 608 m 0,0,1
 61 800 61 800 142.5 950.5 c 0
 224 1101 224 1101 375 1186.5 c 0
 526 1272 526 1272 721 1272 c 0,2,3
 895 1272 895 1272 1028 1184 c 0
 1161 1096 1161 1096 1230 951 c 0
 1299 806 1299 806 1299 629 c 0,4,5
 1299 481 1299 481 1243 351 c 0
 1187 221 1187 221 1076.5 125.5 c 0
 966 30 966 30 818 -6 c 1,6,7
 842 -61 842 -61 870.5 -99 c 0
 899 -137 899 -137 947.5 -172.5 c 0
 996 -208 996 -208 1070.5 -233 c 0
 1145 -258 1145 -258 1250 -275 c 1,8,9
 1250 -324 1250 -324 1241 -351 c 1,10,11
 1171 -385 1171 -385 1065 -385 c 0,12,13
 924 -385 924 -385 820 -286 c 0
 716 -187 716 -187 703 -21 c 1,14,15
 683 -27 683 -27 638 -27 c 0,16,17
 469 -27 469 -27 336.5 56 c 0
 204 139 204 139 132.5 283.5 c 0
 61 428 61 428 61 608 c 0,0,1
263 679 m 0,18,19
 263 615 263 615 273 551 c 0
 283 487 283 487 304.5 418.5 c 0
 326 350 326 350 364 290.5 c 0
 402 231 402 231 453.5 182 c 0
 505 133 505 133 581 102.5 c 0
 657 72 657 72 749 67 c 1,20,21
 828 87 828 87 888 123 c 0
 948 159 948 159 986.5 205 c 0
 1025 251 1025 251 1049 310 c 0
 1073 369 1073 369 1082.5 430 c 0
 1092 491 1092 491 1092 563 c 0,22,23
 1092 674 1092 674 1061.5 781.5 c 0
 1031 889 1031 889 977.5 975.5 c 0
 924 1062 924 1062 842 1115 c 0
 760 1168 760 1168 664 1168 c 0,24,25
 475 1168 475 1168 369 1039.5 c 0
 263 911 263 911 263 679 c 0,18,19
EndSplineSet
Fore
SplineSet
268 660 m 1,0,1
 245 524 245 524 266 409 c 128,-1,2
 287 294 287 294 340 210 c 128,-1,3
 393 126 393 126 479 77.5 c 128,-1,4
 565 29 565 29 671 27 c 1,5,6
 760 45 760 45 842 90.5 c 128,-1,7
 924 136 924 136 992.5 206 c 128,-1,8
 1061 276 1061 276 1110 376 c 128,-1,9
 1159 476 1159 476 1178 593 c 0,10,11
 1208 783 1208 783 1171.5 924.5 c 128,-1,12
 1135 1066 1135 1066 1038 1142 c 128,-1,13
 941 1218 941 1218 794 1218 c 0,14,15
 687 1218 687 1218 596.5 1176.5 c 128,-1,16
 506 1135 506 1135 440.5 1060.5 c 128,-1,17
 375 986 375 986 331 884 c 128,-1,18
 287 782 287 782 268 660 c 1,0,1
151 615 m 0,19,20
 173 757 173 757 233.5 878 c 128,-1,21
 294 999 294 999 382.5 1087 c 128,-1,22
 471 1175 471 1175 591 1224.5 c 128,-1,23
 711 1274 711 1274 848 1274 c 0,24,25
 941 1274 941 1274 1016 1251.5 c 128,-1,26
 1091 1229 1091 1229 1144 1188.5 c 128,-1,27
 1197 1148 1197 1148 1234 1090 c 128,-1,28
 1271 1032 1271 1032 1287.5 961.5 c 128,-1,29
 1304 891 1304 891 1307 809 c 128,-1,30
 1310 727 1310 727 1294 637 c 1,31,32
 1269 481 1269 481 1189 345.5 c 128,-1,33
 1109 210 1109 210 983.5 115.5 c 128,-1,34
 858 21 858 21 708 -12 c 1,35,36
 730 -84 730 -84 760 -136 c 128,-1,37
 790 -188 790 -188 823 -219.5 c 128,-1,38
 856 -251 856 -251 902 -271 c 128,-1,39
 948 -291 948 -291 992.5 -299.5 c 128,-1,40
 1037 -308 1037 -308 1099 -313 c 1,41,-1
 1083 -358 l 1,42,43
 1049 -375 1049 -375 948 -375 c 0,44,45
 858 -375 858 -375 791.5 -325.5 c 128,-1,46
 725 -276 725 -276 692.5 -197.5 c 128,-1,47
 660 -119 660 -119 657 -22 c 1,48,49
 631 -25 631 -25 576 -25 c 0,50,51
 471 -25 471 -25 382 26 c 128,-1,52
 293 77 293 77 235.5 162.5 c 128,-1,53
 178 248 178 248 154 366.5 c 128,-1,54
 130 485 130 485 151 615 c 0,19,20
EndSplineSet
Colour: ff0000
EndChar

StartChar: R
Encoding: 82 82 38
Width: 1164
VWidth: 0
Flags: MW
LayerCount: 3
Back
SplineSet
50 0 m 1,0,-1
 61 74 l 1,1,-1
 228 121 l 1,2,-1
 228 1100 l 1,3,-1
 57 1130 l 1,4,-1
 67 1207 l 1,5,6
 361 1253 361 1253 523 1253 c 0,7,8
 639 1253 639 1253 727.5 1237 c 0
 816 1221 816 1221 884.5 1185.5 c 0
 953 1150 953 1150 989 1089 c 0
 1025 1028 1025 1028 1025 943 c 0,9,10
 1025 841 1025 841 949 744 c 0
 873 647 873 647 738 599 c 1,11,-1
 738 598 l 1,12,-1
 918 349 l 2,13,14
 963 287 963 287 983 260.5 c 0
 1003 234 1003 234 1035 195.5 c 0
 1067 157 1067 157 1089.5 140 c 0
 1112 123 1112 123 1143 105.5 c 0
 1174 88 1174 88 1211 77 c 2,15,-1
 1244 67 l 1,16,-1
 1229 -1 l 1,17,18
 1172 -21 1172 -21 1109 -21 c 0,19,20
 998 -21 998 -21 911.5 51.5 c 0
 825 124 825 124 753 253 c 2,21,-1
 594 537 l 1,22,-1
 420 537 l 1,23,-1
 420 126 l 1,24,-1
 608 83 l 1,25,-1
 598 0 l 1,26,-1
 50 0 l 1,0,-1
420 628 m 1,27,-1
 618 628 l 1,28,29
 702 656 702 656 760 722 c 0
 818 788 818 788 818 887 c 0,30,31
 818 1013 818 1013 744 1091 c 0
 670 1169 670 1169 540 1169 c 1,32,33
 420 1164 l 1,34,-1
 420 628 l 1,27,-1
EndSplineSet
Fore
SplineSet
412 587 m 1,0,-1
 706 587 l 1,1,2
 797 615 797 615 867.5 699.5 c 128,-1,3
 938 784 938 784 954 883 c 0,4,5
 979 1041 979 1041 892.5 1124 c 128,-1,6
 806 1207 806 1207 628 1207 c 0,7,8
 604 1207 604 1207 575 1205.5 c 128,-1,9
 546 1204 546 1204 529 1203 c 2,10,-1
 511 1202 l 1,11,-1
 412 587 l 1,0,-1
50 0 m 1,12,-1
 64 42 l 1,13,-1
 224 72 l 1,14,-1
 396 1153 l 1,15,-1
 239 1174 l 1,16,-1
 254 1210 l 1,17,18
 394 1232 394 1232 489 1242.5 c 128,-1,19
 584 1253 584 1253 685 1253 c 0,20,21
 776 1253 776 1253 852 1231 c 128,-1,22
 928 1209 928 1209 982 1167.5 c 128,-1,23
 1036 1126 1036 1126 1060 1059.5 c 128,-1,24
 1084 993 1084 993 1071 910 c 0,25,26
 1037 694 1037 694 776 570 c 1,27,-1
 776 569 l 1,28,-1
 900 323 l 2,29,30
 937 250 937 250 971 198.5 c 128,-1,31
 1005 147 1005 147 1035.5 118 c 128,-1,32
 1066 89 1066 89 1089.5 74.5 c 128,-1,33
 1113 60 1113 60 1143 50 c 2,34,-1
 1188 34 l 1,35,-1
 1177 -3 l 1,36,37
 1145 -13 1145 -13 1128.5 -15.5 c 128,-1,38
 1112 -18 1112 -18 1081 -18 c 0,39,40
 988 -18 988 -18 929.5 40.5 c 128,-1,41
 871 99 871 99 811 238 c 2,42,-1
 684 531 l 1,43,-1
 403 531 l 1,44,-1
 331 65 l 1,45,-1
 534 46 l 1,46,-1
 517 0 l 1,47,-1
 50 0 l 1,12,-1
EndSplineSet
Colour: ff0000
EndChar

StartChar: S
Encoding: 83 83 39
Width: 838
VWidth: 0
Flags: MW
LayerCount: 3
Back
SplineSet
66 122 m 5,0,-1
 79 389 l 1,1,-1
 181 375 l 1,2,-1
 220 187 l 1,3,4
 249 141 249 141 304.5 109 c 0
 360 77 360 77 426 77 c 0,5,6
 483 77 483 77 534.5 97.5 c 0
 586 118 586 118 624.5 167.5 c 0
 663 217 663 217 663 287 c 0,7,8
 663 339 663 339 631.5 383.5 c 0
 600 428 600 428 549.5 461 c 0
 499 494 499 494 437.5 526 c 0
 376 558 376 558 315 594.5 c 0
 254 631 254 631 203.5 673.5 c 0
 153 716 153 716 121.5 778.5 c 0
 90 841 90 841 90 916 c 0,9,10
 90 1025 90 1025 147 1107 c 0
 204 1189 204 1189 291 1229 c 0
 378 1269 378 1269 479 1269 c 0,11,12
 641 1269 641 1269 761 1169 c 1,13,14
 739 887 l 1,15,-1
 640 899 l 1,16,-1
 615 1090 l 1,17,18
 599 1122 599 1122 549.5 1153.5 c 0
 500 1185 500 1185 445 1185 c 0,19,20
 365 1185 365 1185 314 1137 c 0
 263 1089 263 1089 263 995 c 0,21,22
 263 937 263 937 295 889.5 c 0
 327 842 327 842 378.5 807.5 c 0
 430 773 430 773 492.5 741 c 0
 555 709 555 709 617.5 673 c 0
 680 637 680 637 731.5 595.5 c 0
 783 554 783 554 815 492 c 0
 847 430 847 430 847 354 c 0,23,24
 847 243 847 243 783 155 c 0
 719 67 719 67 618 21.5 c 0
 517 -24 517 -24 402 -24 c 0,25,26
 298 -24 298 -24 207.5 17.5 c 0
 117 59 117 59 66 122 c 5,0,-1
EndSplineSet
Fore
SplineSet
53 76 m 1,0,-1
 136 391 l 1,1,-1
 190 383 l 1,2,-1
 158 134 l 1,3,4
 186 89 186 89 265.5 63 c 128,-1,5
 345 37 345 37 439 37 c 0,6,7
 511 37 511 37 575 61.5 c 128,-1,8
 639 86 639 86 686 138.5 c 128,-1,9
 733 191 733 191 744 262 c 0,10,11
 752 310 752 310 738 353 c 128,-1,12
 724 396 724 396 695 430.5 c 128,-1,13
 666 465 666 465 625.5 497.5 c 128,-1,14
 585 530 585 530 540 560.5 c 128,-1,15
 495 591 495 591 450 622.5 c 128,-1,16
 405 654 405 654 365.5 689.5 c 128,-1,17
 326 725 326 725 297 764 c 128,-1,18
 268 803 268 803 255.5 853 c 128,-1,19
 243 903 243 903 252 959 c 0,20,21
 263 1031 263 1031 303.5 1091.5 c 128,-1,22
 344 1152 344 1152 401 1190.5 c 128,-1,23
 458 1229 458 1229 523.5 1250 c 128,-1,24
 589 1271 589 1271 653 1271 c 0,25,26
 740 1271 740 1271 818.5 1253 c 128,-1,27
 897 1235 897 1235 940 1201 c 1,28,-1
 867 871 l 1,29,-1
 812 878 l 1,30,-1
 835 1131 l 1,31,32
 811 1167 811 1167 745 1190.5 c 128,-1,33
 679 1214 679 1214 608 1214 c 0,34,35
 516 1214 516 1214 444 1157.5 c 128,-1,36
 372 1101 372 1101 357 1006 c 0,37,38
 349 955 349 955 363 909.5 c 128,-1,39
 377 864 377 864 406.5 827.5 c 128,-1,40
 436 791 436 791 477 756.5 c 128,-1,41
 518 722 518 722 564 690.5 c 128,-1,42
 610 659 610 659 656 628 c 128,-1,43
 702 597 702 597 742.5 562 c 128,-1,44
 783 527 783 527 813 490 c 128,-1,45
 843 453 843 453 856.5 406.5 c 128,-1,46
 870 360 870 360 862 308 c 0,47,48
 839 163 839 163 706 68.5 c 128,-1,49
 573 -26 573 -26 377 -26 c 0,50,51
 270 -26 270 -26 184 2.5 c 128,-1,52
 98 31 98 31 53 76 c 1,0,-1
EndSplineSet
Colour: ff0000
EndChar

StartChar: T
Encoding: 84 84 40
Width: 1007
VWidth: 0
Flags: MW
LayerCount: 3
Back
SplineSet
23 1244 m 1,0,-1
 1134 1244 l 1,1,-1
 1100 906 l 1,2,-1
 1005 921 l 1,3,-1
 967 1152 l 1,4,-1
 662 1152 l 1,5,-1
 662 114 l 1,6,-1
 847 80 l 1,7,-1
 833 0 l 1,8,-1
 294 0 l 1,9,-1
 301 74 l 1,10,-1
 470 121 l 1,11,-1
 470 1152 l 1,12,-1
 175 1152 l 1,13,-1
 122 909 l 1,14,-1
 31 922 l 1,15,-1
 23 1244 l 1,0,-1
EndSplineSet
Fore
SplineSet
241 1244 m 1,0,-1
 1279 1244 l 1,1,-1
 1191 912 l 1,2,-1
 1142 918 l 1,3,-1
 1169 1193 l 1,4,-1
 798 1193 l 1,5,-1
 621 73 l 1,6,-1
 793 46 l 1,7,-1
 775 0 l 1,8,-1
 322 0 l 1,9,-1
 334 42 l 1,10,-1
 508 72 l 1,11,-1
 686 1193 l 1,12,-1
 330 1193 l 1,13,-1
 251 914 l 1,14,-1
 200 922 l 1,15,-1
 241 1244 l 1,0,-1
EndSplineSet
Colour: ff0000
EndChar

StartChar: U
Encoding: 85 85 41
Width: 1357
VWidth: 0
Flags: MW
LayerCount: 3
Back
SplineSet
22 1168 m 1,0,-1
 35 1244 l 1,1,-1
 577 1244 l 1,2,-1
 568 1168 l 1,3,-1
 399 1130 l 1,4,-1
 399 510 l 2,5,6
 399 304 399 304 492.5 204.5 c 0
 586 105 586 105 747 105 c 0,7,8
 903 105 903 105 987 198 c 0
 1071 291 1071 291 1072 482 c 2,9,-1
 1075 1126 l 1,10,-1
 892 1168 l 1,11,-1
 902 1244 l 1,12,-1
 1380 1244 l 1,13,-1
 1369 1168 l 1,14,-1
 1203 1130 l 1,15,-1
 1198 515 l 2,16,17
 1196 241 1196 241 1075 107 c 0
 954 -27 954 -27 697 -27 c 0,18,19
 620 -27 620 -27 556.5 -16.5 c 0
 493 -6 493 -6 425.5 26.5 c 0
 358 59 358 59 311.5 112 c 0
 265 165 265 165 235.5 256 c 0
 206 347 206 347 206 469 c 2,20,-1
 206 1126 l 1,21,-1
 22 1168 l 1,0,-1
EndSplineSet
Fore
SplineSet
237 1205 m 1,0,-1
 247 1244 l 1,1,-1
 701 1244 l 1,2,-1
 691 1205 l 1,3,-1
 518 1182 l 1,4,-1
 408 485 l 1,5,6
 396 401 396 401 397 335 c 128,-1,7
 398 269 398 269 416 220 c 128,-1,8
 434 171 434 171 461.5 137 c 128,-1,9
 489 103 489 103 531 82 c 128,-1,10
 573 61 573 61 621.5 51.5 c 128,-1,11
 670 42 670 42 730 42 c 0,12,13
 908 42 908 42 1012.5 140.5 c 128,-1,14
 1117 239 1117 239 1150 449 c 2,15,-1
 1266 1180 l 1,16,-1
 1084 1205 l 1,17,-1
 1095 1244 l 1,18,-1
 1534 1244 l 1,19,-1
 1520 1205 l 1,20,-1
 1350 1182 l 1,21,-1
 1238 490 l 2,22,23
 1195 226 1195 226 1064 99.5 c 128,-1,24
 933 -27 933 -27 686 -27 c 0,25,26
 644 -27 644 -27 606 -23.5 c 128,-1,27
 568 -20 568 -20 530.5 -11.5 c 128,-1,28
 493 -3 493 -3 461.5 10 c 128,-1,29
 430 23 430 23 401.5 43.5 c 128,-1,30
 373 64 373 64 351.5 91 c 128,-1,31
 330 118 330 118 314 154 c 128,-1,32
 298 190 298 190 290 233.5 c 128,-1,33
 282 277 282 277 282.5 332.5 c 128,-1,34
 283 388 283 388 294 452 c 2,35,-1
 409 1180 l 1,36,-1
 237 1205 l 1,0,-1
EndSplineSet
Colour: ff0000
EndChar

StartChar: V
Encoding: 86 86 42
Width: 1285
VWidth: 0
Flags: MW
LayerCount: 3
Back
SplineSet
-21 1168 m 1,0,-1
 -11 1244 l 1,1,-1
 527 1244 l 1,2,-1
 517 1168 l 1,3,-1
 347 1130 l 1,4,-1
 660 251 l 1,5,-1
 980 1126 l 1,6,-1
 798 1168 l 1,7,-1
 805 1244 l 1,8,-1
 1260 1244 l 1,9,-1
 1253 1168 l 1,10,-1
 1121 1130 l 1,11,-1
 696 4 l 1,12,-1
 544 -24 l 1,13,-1
 126 1126 l 1,14,-1
 -21 1168 l 1,0,-1
EndSplineSet
Fore
SplineSet
228 1208 m 1,0,-1
 238 1244 l 1,1,-1
 670 1244 l 1,2,-1
 660 1208 l 1,3,-1
 488 1182 l 1,4,-1
 674 180 l 1,5,-1
 1208 1178 l 1,6,-1
 1026 1208 l 1,7,-1
 1035 1244 l 1,8,-1
 1440 1244 l 1,9,-1
 1430 1208 l 1,10,-1
 1297 1182 l 1,11,-1
 657 -11 l 1,12,-1
 604 -26 l 1,13,-1
 371 1178 l 1,14,-1
 228 1208 l 1,0,-1
EndSplineSet
Colour: ff0000
EndChar

StartChar: W
Encoding: 87 87 43
Width: 1769
VWidth: 0
Flags: MW
LayerCount: 3
Back
SplineSet
-11 1168 m 1,0,-1
 -2 1244 l 1,1,-1
 512 1244 l 1,2,-1
 497 1168 l 1,3,-1
 330 1130 l 1,4,-1
 572 271 l 1,5,-1
 853 1194 l 1,6,-1
 1029 1219 l 1,7,-1
 1277 287 l 1,8,-1
 1538 1126 l 1,9,-1
 1357 1168 l 1,10,-1
 1368 1244 l 1,11,-1
 1817 1244 l 1,12,-1
 1806 1168 l 1,13,-1
 1683 1130 l 1,14,-1
 1318 4 l 1,15,-1
 1164 -24 l 1,16,-1
 902 951 l 1,17,-1
 617 4 l 1,18,-1
 454 -24 l 1,19,-1
 129 1126 l 1,20,-1
 -11 1168 l 1,0,-1
EndSplineSet
Fore
SplineSet
207 1207 m 1,0,-1
 220 1244 l 1,1,-1
 617 1244 l 1,2,-1
 609 1212 l 1,3,-1
 439 1182 l 1,4,-1
 594 194 l 1,5,-1
 1056 1212 l 1,6,-1
 1120 1218 l 1,7,-1
 1258 188 l 1,8,-1
 1752 1175 l 1,9,-1
 1571 1210 l 1,10,-1
 1581 1244 l 1,11,-1
 1964 1244 l 1,12,-1
 1955 1208 l 1,13,-1
 1833 1178 l 1,14,-1
 1230 -13 l 1,15,-1
 1163 -26 l 1,16,-1
 1036 990 l 1,17,-1
 572 -13 l 1,18,-1
 499 -25 l 1,19,-1
 325 1178 l 1,20,-1
 207 1207 l 1,0,-1
EndSplineSet
Colour: ff0000
EndChar

StartChar: X
Encoding: 88 88 44
Width: 1305
VWidth: 0
Flags: MW
LayerCount: 3
Back
SplineSet
-1 0 m 1,0,-1
 11 76 l 1,1,-1
 138 121 l 1,2,-1
 504 615 l 1,3,-1
 165 1123 l 1,4,-1
 28 1166 l 1,5,-1
 40 1244 l 1,6,-1
 553 1244 l 1,7,-1
 543 1166 l 1,8,-1
 386 1121 l 1,9,-1
 633 750 l 1,10,-1
 904 1126 l 1,11,-1
 734 1166 l 1,12,-1
 747 1244 l 1,13,-1
 1182 1244 l 1,14,-1
 1174 1168 l 1,15,-1
 1047 1130 l 1,16,-1
 709 657 l 1,17,-1
 1050 114 l 1,18,-1
 1185 80 l 1,19,-1
 1172 0 l 1,20,-1
 669 0 l 1,21,-1
 682 74 l 1,22,-1
 842 121 l 1,23,-1
 580 529 l 1,24,-1
 288 117 l 1,25,-1
 454 83 l 1,26,-1
 439 0 l 1,27,-1
 -1 0 l 1,0,-1
EndSplineSet
Fore
SplineSet
50 0 m 1,0,-1
 62 36 l 1,1,-1
 190 64 l 1,2,-1
 677 643 l 1,3,-1
 395 1184 l 1,4,-1
 263 1212 l 1,5,-1
 272 1244 l 1,6,-1
 692 1244 l 1,7,-1
 682 1212 l 1,8,-1
 521 1182 l 1,9,-1
 778 689 l 1,10,-1
 1211 1184 l 1,11,-1
 1042 1207 l 1,12,-1
 1053 1244 l 1,13,-1
 1421 1244 l 1,14,-1
 1415 1208 l 1,15,-1
 1286 1187 l 1,16,-1
 806 633 l 1,17,-1
 1124 53 l 1,18,-1
 1249 36 l 1,19,-1
 1236 0 l 1,20,-1
 821 0 l 1,21,-1
 829 27 l 1,22,-1
 998 60 l 1,23,-1
 715 587 l 1,24,-1
 269 60 l 1,25,-1
 431 42 l 1,26,-1
 416 0 l 1,27,-1
 50 0 l 1,0,-1
EndSplineSet
Colour: ff0000
EndChar

StartChar: Y
Encoding: 89 89 45
Width: 1182
VWidth: 0
Flags: MW
LayerCount: 3
Back
SplineSet
-21 1168 m 1,0,-1
 -8 1244 l 1,1,-1
 500 1244 l 1,2,-1
 488 1168 l 1,3,-1
 330 1130 l 1,4,-1
 607 640 l 1,5,-1
 871 1126 l 1,6,-1
 688 1168 l 1,7,-1
 698 1244 l 1,8,-1
 1143 1244 l 1,9,-1
 1133 1168 l 1,10,-1
 1008 1130 l 1,11,-1
 663 529 l 1,12,-1
 663 114 l 1,13,-1
 826 80 l 1,14,-1
 816 0 l 1,15,-1
 310 0 l 1,16,-1
 320 74 l 1,17,-1
 470 121 l 1,18,-1
 470 504 l 1,19,-1
 117 1126 l 1,20,-1
 -21 1168 l 1,0,-1
EndSplineSet
Fore
SplineSet
239 1207 m 1,0,-1
 249 1243 l 1,1,-1
 673 1243 l 1,2,-1
 663 1207 l 1,3,-1
 493 1181 l 1,4,-1
 702 571 l 1,5,-1
 1109 1178 l 1,6,-1
 928 1208 l 1,7,-1
 936 1244 l 1,8,-1
 1326 1244 l 1,9,-1
 1317 1208 l 1,10,-1
 1184 1182 l 1,11,-1
 725 489 l 1,12,-1
 659 67 l 1,13,-1
 836 46 l 1,14,-1
 821 0 l 1,15,-1
 361 0 l 1,16,-1
 374 42 l 1,17,-1
 548 72 l 1,18,-1
 614 489 l 1,19,-1
 373 1177 l 1,20,-1
 239 1207 l 1,0,-1
EndSplineSet
Colour: ff0000
EndChar

StartChar: Z
Encoding: 90 90 46
Width: 1057
VWidth: 0
Flags: MW
LayerCount: 3
Back
SplineSet
47 104 m 1,0,-1
 792 1149 l 1,1,-1
 255 1149 l 1,2,-1
 178 903 l 1,3,-1
 88 921 l 1,4,-1
 98 1244 l 1,5,-1
 1026 1244 l 1,6,-1
 1026 1168 l 1,7,-1
 262 100 l 1,8,-1
 832 100 l 1,9,-1
 955 351 l 1,10,-1
 1048 335 l 1,11,-1
 991 0 l 1,12,-1
 55 0 l 1,13,-1
 47 104 l 1,0,-1
EndSplineSet
Fore
SplineSet
57 37 m 1,0,-1
 1016 1189 l 1,1,-1
 385 1189 l 1,2,-1
 282 903 l 1,3,-1
 244 914 l 1,4,-1
 295 1244 l 1,5,-1
 1161 1244 l 1,6,-1
 1160 1207 l 1,7,-1
 201 58 l 1,8,-1
 880 58 l 1,9,-1
 1011 342 l 1,10,-1
 1054 335 l 1,11,-1
 971 0 l 1,12,-1
 56 0 l 1,13,-1
 57 37 l 1,0,-1
EndSplineSet
Colour: ff0000
EndChar

StartChar: bracketleft
Encoding: 91 91 47
Width: 485
VWidth: 0
Flags: MW
LayerCount: 3
Back
SplineSet
109 -376 m 1,0,-1
 109 1255 l 1,1,-1
 463 1255 l 1,2,-1
 474 1166 l 1,3,-1
 260 1146 l 1,4,-1
 260 -260 l 1,5,-1
 476 -279 l 1,6,-1
 466 -375 l 1,7,-1
 109 -376 l 1,0,-1
EndSplineSet
Fore
SplineSet
394 -333 m 1,0,-1
 382 -374 l 1,1,-1
 20 -374 l 1,2,-1
 278 1256 l 1,3,-1
 640 1256 l 1,4,-1
 635 1203 l 1,5,-1
 376 1182 l 1,6,-1
 140 -312 l 1,7,-1
 394 -333 l 1,0,-1
EndSplineSet
Colour: ffffff
EndChar

StartChar: backslash
Encoding: 92 92 48
Width: 627
VWidth: 0
Flags: MW
LayerCount: 3
Back
SplineSet
37 1274 m 1,0,-1
 171 1266 l 1,1,-1
 632 -376 l 1,2,-1
 504 -368 l 1,3,-1
 37 1274 l 1,0,-1
EndSplineSet
Fore
SplineSet
43 1244 m 1,0,-1
 126 1241 l 1,1,-1
 587 -358 l 1,2,-1
 508 -354 l 1,3,-1
 43 1244 l 1,0,-1
EndSplineSet
Colour: ffffff
EndChar

StartChar: bracketright
Encoding: 93 93 49
Width: 485
VWidth: 0
Flags: MW
LayerCount: 3
Back
SplineSet
0 -279 m 1,0,-1
 217 -260 l 1,1,-1
 217 1146 l 1,2,-1
 1 1166 l 1,3,-1
 13 1255 l 1,4,-1
 366 1255 l 1,5,-1
 368 -376 l 1,6,-1
 10 -375 l 1,7,-1
 0 -279 l 1,0,-1
EndSplineSet
Fore
SplineSet
-11 -333 m 1,0,-1
 251 -312 l 1,1,-1
 487 1182 l 1,2,-1
 236 1203 l 1,3,-1
 247 1256 l 1,4,-1
 609 1256 l 1,5,-1
 351 -374 l 1,6,-1
 -11 -374 l 1,7,-1
 -11 -333 l 1,0,-1
EndSplineSet
Colour: ffffff
EndChar

StartChar: asciicircum
Encoding: 94 94 50
Width: 743
VWidth: 0
Flags: MW
LayerCount: 3
Back
SplineSet
42 826 m 1,0,-1
 331 1237 l 1,1,-1
 386 1250 l 1,2,-1
 681 824 l 1,3,-1
 624 787 l 1,4,-1
 353 1073 l 1,5,-1
 343 1073 l 1,6,-1
 92 793 l 1,7,-1
 42 826 l 1,0,-1
EndSplineSet
Fore
SplineSet
51 826 m 1,0,-1
 339 1238 l 1,1,-1
 395 1251 l 1,2,-1
 689 824 l 1,3,-1
 650 796 l 1,4,-1
 366 1123 l 1,5,-1
 357 1123 l 1,6,-1
 84 802 l 1,7,-1
 51 826 l 1,0,-1
EndSplineSet
Colour: ffffff
EndChar

StartChar: underscore
Encoding: 95 95 51
Width: 986
VWidth: 0
Flags: MW
LayerCount: 3
Back
SplineSet
-1 -132 m 1,0,-1
 11 -27 l 1,1,-1
 839 -27 l 1,2,-1
 828 -132 l 1,3,-1
 -1 -132 l 1,0,-1
EndSplineSet
Fore
SplineSet
74 -133 m 1,0,-1
 85 -66 l 1,1,-1
 913 -66 l 1,2,-1
 905 -133 l 1,3,-1
 74 -133 l 1,0,-1
EndSplineSet
Colour: ffffff
EndChar

StartChar: grave
Encoding: 96 96 52
Width: 384
VWidth: 0
Flags: MW
LayerCount: 3
Back
SplineSet
122 1659 m 1,0,-1
 237 1697 l 1,1,-1
 369 1364 l 1,2,-1
 313 1329 l 1,3,-1
 122 1659 l 1,0,-1
EndSplineSet
Fore
SplineSet
78 1661 m 1,0,-1
 172 1698 l 1,1,-1
 305 1362 l 1,2,-1
 259 1335 l 1,3,-1
 78 1661 l 1,0,-1
EndSplineSet
Colour: ffffff
EndChar

StartChar: a
Encoding: 97 97 53
Width: 728
VWidth: 0
Flags: MW
LayerCount: 3
Back
SplineSet
691 96 m 14,0,-1
 767 84 l 1,1,-1
 749 15 l 1,2,3
 663 -17 663 -17 598 -17 c 0,4,5
 527 -17 527 -17 491 25 c 0
 455 67 455 67 473 132 c 1,6,-1
 461 132 l 1,7,8
 425 66 425 66 361 22.5 c 0
 297 -21 297 -21 225 -21 c 0,9,10
 133 -21 133 -21 78.5 58 c 0
 24 137 24 137 24 274 c 0,11,12
 24 388 24 388 56 488 c 0
 88 588 88 588 140 659.5 c 0
 192 731 192 731 259 782.5 c 0
 326 834 326 834 396.5 859.5 c 0
 467 885 467 885 534 885 c 0,13,14
 693 885 693 885 735 832 c 1,15,-1
 663 378 l 2,16,17
 645 261 645 261 642 205 c 0
 639 149 639 149 649.5 125 c 0
 660 101 660 101 691 96 c 14,0,-1
564 746 m 1,18,19
 526 781 526 781 445 781 c 0,20,21
 369 781 369 781 307.5 709.5 c 0
 246 638 246 638 215.5 533.5 c 0
 185 429 185 429 185 320 c 0,22,23
 185 106 185 106 306 106 c 0,24,25
 358 106 358 106 397.5 130.5 c 0
 437 155 437 155 478 201 c 1,26,-1
 564 746 l 1,18,19
EndSplineSet
Fore
SplineSet
554 748 m 1,0,1
 512 779 512 779 421 779 c 0,2,3
 358 779 358 779 304.5 749.5 c 128,-1,4
 251 720 251 720 210.5 663.5 c 128,-1,5
 170 607 170 607 146.5 516.5 c 128,-1,6
 123 426 123 426 123 310 c 0,7,8
 123 63 123 63 253 63 c 0,9,10
 317 63 317 63 365.5 99 c 128,-1,11
 414 135 414 135 465 201 c 1,12,-1
 554 748 l 1,0,1
589 -17 m 0,13,14
 515 -17 515 -17 478.5 25 c 128,-1,15
 442 67 442 67 460 132 c 1,16,-1
 448 132 l 1,17,18
 412 66 412 66 348 22.5 c 128,-1,19
 284 -21 284 -21 212 -21 c 0,20,21
 119 -21 119 -21 63.5 55.5 c 128,-1,22
 8 132 8 132 8 264 c 0,23,24
 8 374 8 374 37 471.5 c 128,-1,25
 66 569 66 569 114 638 c 128,-1,26
 162 707 162 707 223 757.5 c 128,-1,27
 284 808 284 808 348.5 832.5 c 128,-1,28
 413 857 413 857 474 857 c 0,29,30
 625 857 625 857 665 824 c 1,31,-1
 591 378 l 2,32,33
 561 201 561 201 561 125 c 0,34,35
 561 89 561 89 582 72.5 c 128,-1,36
 603 56 603 56 636 57 c 128,-1,37
 669 58 669 58 710 60 c 1,38,-1
 704 7 l 1,39,40
 654 -17 654 -17 589 -17 c 0,13,14
EndSplineSet
Layer: 2
SplineSet
634 124.62 m 4,0,1
 634 88.2319 634 88.2319 654.92 72.0218 c 128,-1,2
 675.84 55.8117 675.84 55.8117 709.009 56.8103 c 128,-1,3
 742.178 57.8089 742.178 57.8089 783.262 60 c 1,4,-1
 777.262 7 l 1,5,6
 726.802 -17 726.802 -17 662.262 -17 c 0,7,8
 574.699 -17 574.699 -17 548.665 30.6662 c 128,-1,9
 522.631 78.3324 522.631 78.3324 540.262 194 c 2,10,-1
 583 488.872 l 2,11,12
 588.556 527.203 588.556 527.203 591.365 550.505 c 128,-1,13
 594.174 573.808 594.174 573.808 596.072 606.372 c 128,-1,14
 597.969 638.937 597.969 638.937 595.469 658.577 c 128,-1,15
 592.969 678.217 592.969 678.217 586.051 700.523 c 128,-1,16
 579.133 722.828 579.133 722.828 566.29 734.895 c 128,-1,17
 553.447 746.961 553.447 746.961 532.681 755.096 c 128,-1,18
 511.915 763.231 511.915 763.231 483.572 763.231 c 0,19,20
 344.189 763.231 344.189 763.231 226 623.872 c 1,21,-1
 152 0 l 1,22,-1
 44 0 l 1,23,-1
 131 698.872 l 2,24,25
 135.887 732.096 135.887 732.096 126.939 751.513 c 128,-1,26
 117.991 770.93 117.991 770.93 99.244 776.497 c 128,-1,27
 80.4973 782.064 80.4973 782.064 55.4273 783.669 c 128,-1,28
 30.3573 785.273 30.3573 785.273 3 782.872 c 1,29,-1
 9 824.872 l 1,30,31
 63.3227 857.872 63.3227 857.872 132 857.872 c 0,32,33
 197.487 857.872 197.487 857.872 221.904 820.681 c 128,-1,34
 246.321 783.491 246.321 783.491 225 687.872 c 1,35,-1
 237 687.872 l 1,36,37
 287.417 753.485 287.417 753.485 364.959 805.178 c 128,-1,38
 442.502 856.872 442.502 856.872 522 856.872 c 0,39,40
 628.911 856.872 628.911 856.872 668.675 794.186 c 128,-1,41
 708.438 731.5 708.438 731.5 689 576.872 c 2,42,-1
 664 378 l 2,43,44
 659.289 340.939 659.289 340.939 650.322 277.887 c 128,-1,45
 641.355 214.835 641.355 214.835 637.678 181.848 c 128,-1,46
 634 148.86 634 148.86 634 124.62 c 4,0,1
EndSplineSet
Colour: ffffff
EndChar

StartChar: b
Encoding: 98 98 54
Width: 749
VWidth: 0
Flags: MW
LayerCount: 3
Back
SplineSet
387 1124.1 m 5,0,-1
 337 842 l 1,1,-1
 309 722 l 1,2,-1
 321 722 l 1,3,4
 361 791 361 791 434 840.5 c 0
 507 890 507 890 574 890 c 0,5,6
 655 890 655 890 711.5 841.5 c 0
 768 793 768 793 793 717 c 0
 818 641 818 641 818 544 c 0,7,8
 818 459 818 459 794 376 c 0
 770 293 770 293 723 221.5 c 0
 676 150 676 150 613 95 c 0
 550 40 550 40 466 8.5 c 0
 382 -23 382 -23 290 -23 c 0,9,10
 229 -23 229 -23 163 -4.5 c 0
 97 14 97 14 58 50 c 1,11,-1
 229 1120.1 l 2,12,13
 234.356 1153.31 234.356 1153.31 225.266 1172.74 c 0
 216.175 1192.17 216.175 1192.17 196.875 1197.72 c 0
 177.575 1203.28 177.575 1203.28 151.797 1204.9 c 0
 126.019 1206.52 126.019 1206.52 98 1204.1 c 1,14,-1
 107 1284.1 l 1,15,16
 174.572 1317.1 174.572 1317.1 260 1317.1 c 0,17,18
 324.06 1317.1 324.06 1317.1 355.815 1294.62 c 0
 387.57 1272.14 387.57 1272.14 391.852 1229.25 c 0
 396.134 1186.36 396.134 1186.36 387 1124.1 c 5,0,-1
489 748 m 3,19,20
 432 748 432 748 392.5 722 c 0
 353 696 353 696 312 646 c 1,21,-1
 228 155 l 1,22,23
 247 123 247 123 288.5 103.5 c 0
 330 84 330 84 377 84 c 0,24,25
 455 84 455 84 519 143.5 c 0
 583 203 583 203 617 294 c 0
 651 385 651 385 651 483 c 0,26,27
 651 553 651 553 636.5 610 c 0
 622 667 622 667 584 707.5 c 0
 546 748 546 748 489 748 c 3,19,20
EndSplineSet
Fore
SplineSet
234 664 m 1,0,-1
 156 115 l 1,1,2
 177 92 177 92 224.5 78 c 128,-1,3
 272 64 272 64 325 64 c 0,4,5
 418 64 418 64 483.5 114 c 128,-1,6
 549 164 549 164 580 249 c 128,-1,7
 611 334 611 334 611 447 c 0,8,9
 611 596 611 596 564.5 680 c 128,-1,10
 518 764 518 764 430 764 c 0,11,12
 319 764 319 764 234 664 c 1,0,-1
299 1124 m 2,13,-1
 263 849 l 1,14,-1
 232 729 l 1,15,-1
 244 729 l 1,16,17
 284 784 284 784 348 820.5 c 128,-1,18
 412 857 412 857 485 857 c 0,19,20
 606 857 606 857 666.5 762 c 128,-1,21
 727 667 727 667 727 504 c 0,22,23
 727 363 727 363 670 243.5 c 128,-1,24
 613 124 613 124 505 50.5 c 128,-1,25
 397 -23 397 -23 259 -23 c 0,26,27
 200 -23 200 -23 136 -9.5 c 128,-1,28
 72 4 72 4 34 30 c 1,29,-1
 198 1155 l 2,30,31
 200 1170 200 1170 200.5 1182.5 c 128,-1,32
 201 1195 201 1195 198 1204 c 128,-1,33
 195 1213 195 1213 192 1220 c 128,-1,34
 189 1227 189 1227 182 1231.5 c 128,-1,35
 175 1236 175 1236 169.5 1239 c 128,-1,36
 164 1242 164 1242 153.5 1243 c 128,-1,37
 143 1244 143 1244 136 1244.5 c 128,-1,38
 129 1245 129 1245 116 1244 c 128,-1,39
 103 1243 103 1243 95 1242 c 128,-1,40
 87 1241 87 1241 72 1239 c 1,41,-1
 79 1294 l 1,42,43
 136 1317 136 1317 208 1317 c 0,44,45
 278 1317 278 1317 296 1277.5 c 128,-1,46
 314 1238 314 1238 299 1124 c 2,13,-1
EndSplineSet
Layer: 2
SplineSet
699.639 454 m 4,0,1
 699.639 518.446 699.639 518.446 687.255 573.905 c 128,-1,2
 674.871 629.364 674.871 629.364 649.271 675.245 c 128,-1,3
 623.67 721.126 623.67 721.126 578.998 747.499 c 128,-1,4
 534.326 773.872 534.326 773.872 475 773.872 c 0,5,6
 365.539 773.872 365.539 773.872 296.589 663.743 c 128,-1,7
 227.639 553.614 227.639 553.614 227.639 377 c 0,8,9
 227.639 225.333 227.639 225.333 285.965 142.166 c 128,-1,10
 344.292 59 344.292 59 434.639 59 c 0,11,12
 553.591 59 553.591 59 626.615 161.245 c 128,-1,13
 699.639 263.49 699.639 263.49 699.639 454 c 4,0,1
401.639 -26 m 7,14,15
 311.031 -26 311.031 -26 245.749 22.6857 c 128,-1,16
 180.468 71.3713 180.468 71.3713 149.053 152.09 c 128,-1,17
 117.639 232.809 117.639 232.809 117.639 336 c 0,18,19
 117.639 435.902 117.639 435.902 149.019 530.373 c 128,-1,20
 180.399 624.845 180.399 624.845 234.539 697.065 c 128,-1,21
 288.679 769.286 288.679 769.286 367.438 813.079 c 128,-1,22
 446.197 856.872 446.197 856.872 535 856.872 c 0,23,24
 603.936 856.872 603.936 856.872 658.163 826.797 c 128,-1,25
 712.391 796.723 712.391 796.723 744.85 745.951 c 128,-1,26
 777.309 695.179 777.309 695.179 793.974 633.274 c 128,-1,27
 810.639 571.369 810.639 571.369 810.639 503 c 0,28,29
 810.639 353.056 810.639 353.056 756.421 231.456 c 128,-1,30
 702.202 109.857 702.202 109.857 608.629 41.9283 c 128,-1,31
 515.056 -26 515.056 -26 401.639 -26 c 7,14,15
EndSplineSet
Colour: ffffff
EndChar

StartChar: c
Encoding: 99 99 55
Width: 621
VWidth: 0
Flags: MW
LayerCount: 3
Fore
SplineSet
554 111 m 1,0,-1
 569 81 l 1,1,2
 536 43 536 43 461.5 9.5 c 128,-1,3
 387 -24 387 -24 290 -24 c 0,4,5
 161 -24 161 -24 84 66 c 128,-1,6
 7 156 7 156 7 328 c 0,7,8
 7 440 7 440 41.5 539.5 c 128,-1,9
 76 639 76 639 133 708 c 128,-1,10
 190 777 190 777 265.5 817 c 128,-1,11
 341 857 341 857 422 857 c 0,12,13
 512 857 512 857 562.5 819.5 c 128,-1,14
 613 782 613 782 613 733 c 0,15,16
 613 699 613 699 587 676 c 128,-1,17
 561 653 561 653 523 648 c 1,18,19
 503 712 503 712 457.5 742.5 c 128,-1,20
 412 773 412 773 355 773 c 0,21,22
 307 773 307 773 267 749 c 128,-1,23
 227 725 227 725 201 687.5 c 128,-1,24
 175 650 175 650 157 601 c 128,-1,25
 139 552 139 552 131.5 504 c 128,-1,26
 124 456 124 456 124 410 c 0,27,28
 124 65 124 65 341 65 c 0,29,30
 461 65 461 65 554 111 c 1,0,-1
EndSplineSet
Colour: ffffff
EndChar

StartChar: d
Encoding: 100 100 56
Width: 720
VWidth: 0
Flags: MW
LayerCount: 3
Back
SplineSet
799 1124.1 m 2,0,-1
 682.75 380 l 2,1,2
 666.83 277.703 666.83 277.703 660.788 230.707 c 0
 654.746 183.711 654.746 183.711 656.489 150.308 c 0
 658.233 116.906 658.233 116.906 667.499 108.988 c 0
 676.765 101.071 676.765 101.071 698.75 97 c 2,3,-1
 764.75 86 l 1,4,-1
 745.75 17 l 1,5,6
 664.519 -15 664.519 -15 606.75 -15 c 0,7,8
 546.327 -15 546.327 -15 517.865 9.66714 c 0
 489.403 34.3343 489.403 34.3343 487.75 74 c 0,9,10
 487.75 97 487.75 97 492.75 122 c 1,11,-1
 479.75 122 l 1,12,13
 443.346 60.2714 443.346 60.2714 379.853 19.6357 c 0
 316.359 -21 316.359 -21 243.75 -21 c 0,14,15
 141.798 -21 141.798 -21 82.7738 56.1703 c 0
 23.75 133.341 23.75 133.341 23.75 286 c 0,16,17
 23.75 397.189 23.75 397.189 55.4707 494.777 c 0
 87.1913 592.365 87.1913 592.365 140.877 662.439 c 0
 194.563 732.514 194.563 732.514 264.303 783.321 c 0
 334.042 834.127 334.042 834.127 411.149 859.063 c 0
 488.257 884 488.257 884 565.75 884 c 0,18,19
 593.25 884 593.25 884 606.75 881 c 1,20,-1
 612.75 881 l 1,21,-1
 641 1120.1 l 2,22,23
 644.579 1153.38 644.579 1153.38 635.156 1172.74 c 0
 625.734 1192.1 625.734 1192.1 607 1197.72 c 0
 588.266 1203.35 588.266 1203.35 563.094 1204.9 c 0
 537.921 1206.44 537.921 1206.44 510 1204.1 c 1,24,-1
 519 1284.1 l 1,25,26
 586.571 1317.1 586.571 1317.1 672 1317.1 c 0,27,28
 736.113 1317.1 736.113 1317.1 768.037 1294.62 c 0
 799.961 1272.14 799.961 1272.14 804.296 1229.25 c 0
 808.632 1186.36 808.632 1186.36 799 1124.1 c 2,0,-1
494.75 201 m 9,29,-1
 576.75 736 l 1,30,31
 559.364 749.523 559.364 749.523 546.008 757.631 c 0
 532.653 765.738 532.653 765.738 506.825 773.369 c 0
 480.998 781 480.998 781 450.75 781 c 0,32,33
 375.914 781 375.914 781 314.708 718.802 c 0
 253.501 656.605 253.501 656.605 220.126 555.198 c 0
 186.75 453.79 186.75 453.79 186.75 337 c 0,34,35
 186.75 215.104 186.75 215.104 219.444 160.552 c 0
 252.139 106 252.139 106 320.75 106 c 0,36,37
 379.202 106 379.202 106 420.121 130.478 c 0
 461.04 154.957 461.04 154.957 494.75 201 c 9,29,-1
EndSplineSet
Fore
SplineSet
585 -17 m 0,0,1
 511 -17 511 -17 474.5 25 c 128,-1,2
 438 67 438 67 456 132 c 1,3,-1
 444 132 l 1,4,5
 408 66 408 66 344 22.5 c 128,-1,6
 280 -21 280 -21 208 -21 c 0,7,8
 115 -21 115 -21 59.5 55.5 c 128,-1,9
 4 132 4 132 4 264 c 0,10,11
 4 374 4 374 34 471.5 c 128,-1,12
 64 569 64 569 113 638 c 128,-1,13
 162 707 162 707 223 757.5 c 128,-1,14
 284 808 284 808 347 832.5 c 128,-1,15
 410 857 410 857 467 857 c 0,16,17
 523 857 523 857 564 852 c 1,18,-1
 606 1155 l 2,19,20
 613 1203 613 1203 596 1224.5 c 128,-1,21
 579 1246 579 1246 547.5 1244.5 c 128,-1,22
 516 1243 516 1243 475 1239 c 1,23,-1
 482 1294 l 1,24,25
 538 1317 538 1317 609 1317 c 0,26,27
 680 1317 680 1317 698.5 1277.5 c 128,-1,28
 717 1238 717 1238 701 1124 c 2,29,-1
 587 378 l 1,30,31
 557 192 557 192 557 125 c 0,32,33
 557 89 557 89 578 72.5 c 128,-1,34
 599 56 599 56 632 57 c 128,-1,35
 665 58 665 58 706 60 c 1,36,-1
 700 7 l 1,37,38
 650 -17 650 -17 585 -17 c 0,0,1
545 740 m 1,39,40
 505 783 505 783 418 783 c 0,41,42
 372 783 372 783 329.5 766.5 c 128,-1,43
 287 750 287 750 248 713.5 c 128,-1,44
 209 677 209 677 181 623 c 128,-1,45
 153 569 153 569 136 489 c 128,-1,46
 119 409 119 409 119 310 c 0,47,48
 119 66 119 66 249 66 c 0,49,50
 313 66 313 66 361.5 101 c 128,-1,51
 410 136 410 136 461 201 c 1,52,-1
 545 740 l 1,39,40
EndSplineSet
Colour: ffffff
EndChar

StartChar: e
Encoding: 101 101 57
Width: 597
VWidth: 0
Flags: MW
LayerCount: 3
Back
SplineSet
572 149 m 1,0,-1
 595 108 l 1,1,2
 567 55 567 55 489 15.5 c 0
 411 -24 411 -24 307 -24 c 0,3,4
 178 -24 178 -24 101 66 c 0
 24 156 24 156 24 328 c 0,5,6
 24 439.897 24 439.897 58.4363 539.391 c 0
 92.8727 638.886 92.8727 638.886 149.985 707.828 c 0
 207.097 776.77 207.097 776.77 282.625 816.821 c 0
 358.153 856.872 358.153 856.872 438.772 856.872 c 0,7,8
 529.137 856.872 529.137 856.872 579.699 819.529 c 0
 630.261 782.185 630.261 782.185 630.261 732.55 c 0,9,10
 630.261 694.031 630.261 694.031 604.212 668.798 c 0
 578.163 643.565 578.163 643.565 540 638 c 1,11,12
 520.573 707.981 520.573 707.981 477.347 741.426 c 0
 434.121 774.872 434.121 774.872 379.772 774.872 c 0,13,14
 329.078 774.872 329.078 774.872 287.052 750.947 c 0
 245.026 727.021 245.026 727.021 217.868 689.006 c 0
 190.71 650.99 190.71 650.99 171.916 601.972 c 0
 153.122 552.954 153.122 552.954 145.061 504.663 c 0
 137 456.371 137 456.371 137 410 c 0,15,16
 137 244 137 244 191.5 155 c 0
 246 66 246 66 358 66 c 0,17,18
 414 66 414 66 460 81.5 c 0
 506 97 506 97 525.5 111 c 0
 545 125 545 125 572 149 c 1,0,-1
EndSplineSet
Fore
SplineSet
12 309 m 0,0,1
 12 428 12 428 44 532 c 128,-1,2
 76 636 76 636 130 706.5 c 128,-1,3
 184 777 184 777 255.5 817 c 128,-1,4
 327 857 327 857 404 857 c 0,5,6
 485 857 485 857 535 809 c 128,-1,7
 585 761 585 761 585 674 c 0,8,9
 585 591 585 591 522.5 520.5 c 128,-1,10
 460 450 460 450 356 407 c 128,-1,11
 252 364 252 364 127 354 c 1,12,13
 118 68 118 68 334 68 c 0,14,15
 449 68 449 68 525 121 c 1,16,-1
 540 89 l 1,17,18
 505 46 505 46 425 8 c 128,-1,19
 345 -30 345 -30 260 -30 c 0,20,21
 149 -30 149 -30 80.5 55 c 128,-1,22
 12 140 12 140 12 309 c 0,0,1
129 397 m 1,23,24
 175 403 175 403 219.5 414.5 c 128,-1,25
 264 426 264 426 310 447 c 128,-1,26
 356 468 356 468 390 495.5 c 128,-1,27
 424 523 424 523 445.5 564 c 128,-1,28
 467 605 467 605 467 654 c 0,29,30
 467 709 467 709 437.5 747 c 128,-1,31
 408 785 408 785 352 785 c 0,32,33
 314 785 314 785 284 774.5 c 128,-1,34
 254 764 254 764 226.5 737.5 c 128,-1,35
 199 711 199 711 179.5 667.5 c 128,-1,36
 160 624 160 624 147 556 c 128,-1,37
 134 488 134 488 129 397 c 1,23,24
EndSplineSet
Colour: ffffff
EndChar

StartChar: f
Encoding: 102 102 58
Width: 326
VWidth: 0
Flags: MW
LayerCount: 3
Fore
SplineSet
58 99 m 2,0,-1
 150 768 l 1,1,-1
 10 768 l 1,2,-1
 15 812 l 1,3,-1
 162 836 l 1,4,5
 176 941 176 941 205.5 1025 c 128,-1,6
 235 1109 235 1109 272 1162.5 c 128,-1,7
 309 1216 309 1216 354.5 1251.5 c 128,-1,8
 400 1287 400 1287 444 1302 c 128,-1,9
 488 1317 488 1317 534 1317 c 0,10,11
 588 1317 588 1317 623 1292 c 128,-1,12
 658 1267 658 1267 658 1224 c 0,13,14
 658 1201 658 1201 642 1178 c 128,-1,15
 626 1155 626 1155 595 1143 c 1,16,17
 579 1183 579 1183 543.5 1206 c 128,-1,18
 508 1229 508 1229 471 1229 c 0,19,20
 408 1229 408 1229 368 1195 c 128,-1,21
 328 1161 328 1161 300.5 1071.5 c 128,-1,22
 273 982 273 982 262 825 c 1,23,-1
 449 825 l 1,24,-1
 440 768 l 1,25,-1
 256 768 l 1,26,-1
 166 135 l 2,27,28
 156 67 156 67 140.5 5 c 128,-1,29
 125 -57 125 -57 94 -125 c 128,-1,30
 63 -193 63 -193 22.5 -241.5 c 128,-1,31
 -18 -290 -18 -290 -81 -322 c 128,-1,32
 -144 -354 -144 -354 -220 -354 c 0,33,34
 -261 -354 -261 -354 -298 -329 c 128,-1,35
 -335 -304 -335 -304 -335 -260 c 0,36,37
 -335 -238 -335 -238 -319.5 -215.5 c 128,-1,38
 -304 -193 -304 -193 -272 -182 c 1,39,40
 -261 -213 -261 -213 -236 -233.5 c 128,-1,41
 -211 -254 -211 -254 -187 -261 c 128,-1,42
 -163 -268 -163 -268 -140 -268 c 0,43,44
 -91 -268 -91 -268 -55.5 -236.5 c 128,-1,45
 -20 -205 -20 -205 9.5 -122.5 c 128,-1,46
 39 -40 39 -40 58 99 c 2,0,-1
EndSplineSet
Layer: 2
SplineSet
266 864.1 m 6,0,-1
 174 195.1 l 1,1,-1
 314 195.1 l 1,2,-1
 309 151.1 l 1,3,-1
 162 127.1 l 1,4,5
 148.113 22.3712 148.113 22.3712 118.68 -61.5204 c 128,-1,6
 89.2473 -145.412 89.2473 -145.412 52.1798 -199.053 c 128,-1,7
 15.1123 -252.694 15.1123 -252.694 -30.3771 -288.487 c 128,-1,8
 -75.8665 -324.279 -75.8665 -324.279 -120.145 -339.14 c 128,-1,9
 -164.424 -354 -164.424 -354 -210 -354 c 0,10,11
 -264 -354 -264 -354 -299 -329 c 128,-1,12
 -334 -304 -334 -304 -334 -261 c 0,13,14
 -334 -238 -334 -238 -318 -215 c 128,-1,15
 -302 -192 -302 -192 -271 -180 c 1,16,17
 -255 -220 -255 -220 -219.5 -243 c 128,-1,18
 -184 -266 -184 -266 -147 -266 c 0,19,20
 -83.0277 -266 -83.0277 -266 -42.2415 -232.128 c 128,-1,21
 -1.45528 -198.255 -1.45528 -198.255 26.1225 -108.439 c 128,-1,22
 53.7002 -18.6229 53.7002 -18.6229 65 138.1 c 1,23,-1
 -125 138.1 l 1,24,-1
 -116 195.1 l 1,25,-1
 71 195.1 l 1,26,-1
 158 828.1 l 2,27,28
 164.788 877.486 164.788 877.486 172.677 919.572 c 128,-1,29
 180.565 961.659 180.565 961.659 194.732 1013.41 c 128,-1,30
 208.898 1065.15 208.898 1065.15 226.315 1106.26 c 128,-1,31
 243.731 1147.37 243.731 1147.37 270.375 1188.13 c 128,-1,32
 297.019 1228.89 297.019 1228.89 329.01 1256.12 c 128,-1,33
 361.001 1283.35 361.001 1283.35 405.168 1300.22 c 128,-1,34
 449.336 1317.1 449.336 1317.1 501 1317.1 c 0,35,36
 544.751 1317.1 544.751 1317.1 581.301 1299.31 c 128,-1,37
 617.85 1281.52 617.85 1281.52 636.088 1254.03 c 128,-1,38
 654.326 1226.55 654.326 1226.55 643.612 1188.96 c 128,-1,39
 632.898 1151.38 632.898 1151.38 588 1116.1 c 1,40,41
 473.056 1247.44 473.056 1247.44 386.37 1178.24 c 128,-1,42
 299.685 1109.05 299.685 1109.05 266 864.1 c 6,0,-1
EndSplineSet
Colour: ffffff
EndChar

StartChar: g
Encoding: 103 103 59
Width: 755
VWidth: 0
Flags: MW
LayerCount: 3
Back
SplineSet
207.472 542 m 4,0,1
 207.472 477.726 207.472 477.726 236.989 428.863 c 0
 266.507 380 266.507 380 317.472 380 c 0,2,3
 357.632 380 357.632 380 389.572 405.582 c 0
 421.511 431.163 421.511 431.163 440.279 472.825 c 0
 459.046 514.486 459.046 514.486 468.759 562.769 c 0
 478.472 611.052 478.472 611.052 478.472 661 c 0,4,5
 478.472 704.285 478.472 704.285 470.266 738.738 c 0
 462.06 773.191 462.06 773.191 440.345 797.595 c 0
 418.629 822 418.629 822 385.472 822 c 0,6,7
 331.042 822 331.042 822 289.031 777.341 c 0
 247.02 732.681 247.02 732.681 227.246 669.993 c 0
 207.472 607.304 207.472 607.304 207.472 542 c 4,0,1
309.472 169 m 4,8,9
 370.675 166.295 370.675 166.295 414.821 160.4 c 0
 458.968 154.504 458.968 154.504 505.491 138.96 c 0
 552.013 123.417 552.013 123.417 580.773 98.5595 c 0
 609.533 73.7023 609.533 73.7023 628.003 31.2805 c 0
 646.472 -11.1414 646.472 -11.1414 646.472 -69 c 0,10,11
 646.472 -152.039 646.472 -152.039 576.877 -223.593 c 0
 507.282 -295.147 507.282 -295.147 399.067 -335.074 c 0
 290.852 -375 290.852 -375 175.472 -375 c 0,12,13
 114.496 -375 114.496 -375 61.0229 -364.499 c 0
 7.54987 -353.999 7.54987 -353.999 -38.4854 -331.876 c 0
 -84.5206 -309.752 -84.5206 -309.752 -111.665 -269.999 c 0
 -138.808 -230.247 -138.808 -230.247 -139.528 -177 c 0,14,15
 -139.528 -128.304 -139.528 -128.304 -106.007 -82.2423 c 0
 -72.487 -36.1807 -72.487 -36.1807 -25.7155 -6.4244 c 0
 21.0561 23.3319 21.0561 23.3319 70.4717 37 c 1,16,-1
 70.4717 45 l 1,17,18
 31.7646 60.1052 31.7646 60.1052 8.11814 86.2788 c 0
 -15.5283 112.452 -15.5283 112.452 -15.5283 163 c 0,19,20
 -15.5283 212.491 -15.5283 212.491 43.9546 261.178 c 0
 103.437 309.864 103.437 309.864 166.472 330 c 1,21,-1
 161.472 338 l 1,22,23
 128.761 351.773 128.761 351.773 92.1163 411.162 c 0
 55.4717 470.552 55.4717 470.552 55.4717 530 c 0,24,25
 55.4717 625.077 55.4717 625.077 107.337 710.519 c 0
 159.203 795.962 159.203 795.962 243.273 846.481 c 0
 327.343 897 327.343 897 418.472 897 c 0,26,27
 516.972 897 516.972 897 575.472 834 c 1,28,-1
 776.472 859 l 1,29,-1
 793.472 836 l 1,30,-1
 748.472 715 l 1,31,-1
 732.472 715 l 1,32,-1
 613.472 755 l 1,33,-1
 611.472 738 l 1,34,35
 626.472 718.714 626.472 718.714 626.472 631 c 0,36,37
 626.472 560.948 626.472 560.948 590.888 495.368 c 0
 555.304 429.787 555.304 429.787 500.572 385.82 c 0
 445.839 341.853 445.839 341.853 376.919 320.368 c 0
 308 298.882 308 298.882 244.472 311 c 1,38,39
 213.577 301.244 213.577 301.244 187.525 274.784 c 0
 161.472 248.324 161.472 248.324 161.472 220 c 0,40,41
 161.472 187.153 161.472 187.153 205.386 177.612 c 0
 229.924 172.28 229.924 172.28 309.472 169 c 4,8,9
145.472 22 m 5,42,43
 99.6511 9.66367 99.6511 9.66367 54.5614 -33.7863 c 0
 9.47169 -77.2363 9.47169 -77.2363 9.47168 -128 c 0,44,45
 9.47168 -194.774 9.47168 -194.774 76.4516 -236.887 c 0
 143.431 -279 143.431 -279 235.472 -279 c 0,46,47
 336.255 -279 336.255 -279 405.863 -237.595 c 0
 475.472 -196.19 475.472 -196.19 475.472 -132 c 0,48,49
 475.472 -94.6564 475.472 -94.6564 465.274 -67.5582 c 0
 455.076 -40.4601 455.076 -40.4601 429.92 -23.9834 c 0
 404.765 -7.5068 404.765 -7.5068 381.552 2.28436 c 0
 358.338 12.0755 358.338 12.0755 312.365 16.1647 c 0
 266.391 20.2539 266.391 20.2539 235.829 21.127 c 0
 205.267 22 205.267 22 145.472 22 c 5,42,43
EndSplineSet
Fore
SplineSet
180 49 m 1,0,1
 113 24 113 24 69.5 -26.5 c 128,-1,2
 26 -77 26 -77 26 -147 c 0,3,4
 26 -227 26 -227 93 -267.5 c 128,-1,5
 160 -308 160 -308 260 -308 c 0,6,7
 330 -308 330 -308 385.5 -288 c 128,-1,8
 441 -268 441 -268 476.5 -223.5 c 128,-1,9
 512 -179 512 -179 512 -117 c 0,10,11
 512 -74 512 -74 493.5 -43.5 c 128,-1,12
 475 -13 475 -13 449 3 c 128,-1,13
 423 19 423 19 383 28.5 c 128,-1,14
 343 38 343 38 312 40 c 128,-1,15
 281 42 281 42 239.5 44.5 c 128,-1,16
 198 47 198 47 180 49 c 1,0,1
643 623 m 128,-1,18
 643 554 643 554 625 497 c 128,-1,19
 607 440 607 440 576.5 401.5 c 128,-1,20
 546 363 546 363 506 336 c 128,-1,21
 466 309 466 309 421 298.5 c 128,-1,22
 376 288 376 288 330 290 c 128,-1,23
 284 292 284 292 242 308 c 1,24,25
 210 299 210 299 183 273 c 128,-1,26
 156 247 156 247 156 220 c 0,27,28
 156 207 156 207 159.5 197 c 128,-1,29
 163 187 163 187 172 179 c 128,-1,30
 181 171 181 171 189.5 165 c 128,-1,31
 198 159 198 159 215 154.5 c 128,-1,32
 232 150 232 150 244 147.5 c 128,-1,33
 256 145 256 145 279 142 c 128,-1,34
 302 139 302 139 315.5 138 c 128,-1,35
 329 137 329 137 357 134 c 0,36,37
 361 134 361 134 363 134 c 0,38,39
 495 124 495 124 557 74.5 c 128,-1,40
 619 25 619 25 619 -72 c 0,41,42
 619 -161 619 -161 557.5 -231 c 128,-1,43
 496 -301 496 -301 397 -337.5 c 128,-1,44
 298 -374 298 -374 183 -374 c 0,45,46
 112 -374 112 -374 54.5 -354 c 128,-1,47
 -3 -334 -3 -334 -40 -289 c 128,-1,48
 -77 -244 -77 -244 -77 -180 c 0,49,50
 -77 -134 -77 -134 -57.5 -92.5 c 128,-1,51
 -38 -51 -38 -51 -6.5 -20.5 c 128,-1,52
 25 10 25 10 61 31.5 c 128,-1,53
 97 53 97 53 135 64 c 1,54,-1
 135 72 l 1,55,56
 96 85 96 85 72.5 107.5 c 128,-1,57
 49 130 49 130 49 173 c 0,58,59
 49 220 49 220 95.5 265.5 c 128,-1,60
 142 311 142 311 191 330 c 1,61,-1
 191 338 l 1,62,63
 112 391 112 391 112 523 c 0,64,65
 112 609 112 609 157 687 c 128,-1,66
 202 765 202 765 275.5 811 c 128,-1,67
 349 857 349 857 428 857 c 0,68,69
 538 857 538 857 592 796 c 1,70,-1
 740 819 l 1,71,-1
 753 806 l 1,72,-1
 732 725 l 1,73,-1
 716 725 l 1,74,-1
 625 740 l 1,75,17
 643 692 643 692 643 623 c 128,-1,18
227 551 m 0,76,77
 227 500 227 500 242 454.5 c 128,-1,78
 257 409 257 409 289.5 378.5 c 128,-1,79
 322 348 322 348 366 348 c 0,80,81
 450 348 450 348 491.5 411.5 c 128,-1,82
 533 475 533 475 533 581 c 0,83,84
 533 622 533 622 526 657 c 128,-1,85
 519 692 519 692 503.5 722 c 128,-1,86
 488 752 488 752 460.5 769.5 c 128,-1,87
 433 787 433 787 395 787 c 0,88,89
 316 787 316 787 271.5 719 c 128,-1,90
 227 651 227 651 227 551 c 0,76,77
EndSplineSet
Colour: ffffff
EndChar

StartChar: h
Encoding: 104 104 60
Width: 782
VWidth: 0
Flags: MW
LayerCount: 3
Fore
SplineSet
629 125 m 0,0,1
 629 88 629 88 650 72 c 128,-1,2
 671 56 671 56 704 57 c 128,-1,3
 737 58 737 58 778 60 c 1,4,-1
 770 7 l 1,5,6
 718 -17 718 -17 655 -17 c 0,7,8
 567 -17 567 -17 541 30.5 c 128,-1,9
 515 78 515 78 533 194 c 1,10,-1
 576 489 l 2,11,12
 583 534 583 534 585.5 560.5 c 128,-1,13
 588 587 588 587 589.5 624 c 128,-1,14
 591 661 591 661 585 682 c 128,-1,15
 579 703 579 703 567.5 723.5 c 128,-1,16
 556 744 556 744 533 753.5 c 128,-1,17
 510 763 510 763 477 763 c 0,18,19
 342 763 342 763 229 624 c 1,20,-1
 145 0 l 1,21,-1
 37 0 l 1,22,-1
 197 1158 l 2,23,24
 202 1191 202 1191 193 1210.5 c 128,-1,25
 184 1230 184 1230 165 1235.5 c 128,-1,26
 146 1241 146 1241 121 1243 c 128,-1,27
 96 1245 96 1245 69 1242 c 1,28,-1
 75 1284 l 1,29,30
 130 1317 130 1317 198 1317 c 0,31,32
 267 1317 267 1317 290.5 1283 c 128,-1,33
 314 1249 314 1249 301 1157 c 2,34,-1
 250 784 l 1,35,-1
 228 688 l 1,36,-1
 240 688 l 1,37,38
 288 753 288 753 363.5 805 c 128,-1,39
 439 857 439 857 515 857 c 0,40,41
 623 857 623 857 663.5 794.5 c 128,-1,42
 704 732 704 732 684 577 c 2,43,-1
 659 378 l 2,44,45
 654 341 654 341 645 278 c 128,-1,46
 636 215 636 215 632.5 182 c 128,-1,47
 629 149 629 149 629 125 c 0,0,1
EndSplineSet
Colour: ffffff
EndChar

StartChar: i
Encoding: 105 105 61
Width: 351
VWidth: 0
Flags: MW
LayerCount: 3
Back
SplineSet
74 853 m 21,0,1
 142 886 142 886 227 886 c 0,2,3
 320 886 320 886 344.5 840.5 c 0
 369 795 369 795 354 693 c 2,4,-1
 308 378 l 2,5,6
 285 219 285 219 285 172 c 0,7,8
 285 150 285 150 291.5 134.5 c 0
 298 119 298 119 309.5 111.5 c 0
 321 104 321 104 337 100 c 0
 353 96 353 96 372 96 c 0
 391 96 391 96 412 96 c 1,9,-1
 404 15 l 1,10,11
 342 -17 342 -17 263 -17 c 0,12,13
 167 -17 167 -17 138 31.5 c 0
 109 80 109 80 125 194 c 2,14,-1
 196 689 l 2,15,16
 201 722 201 722 192 741.5 c 0
 183 761 183 761 164 766.5 c 0
 145 772 145 772 119 773.5 c 0
 93 775 93 775 65 773 c 1,17,-1
 74 853 l 21,0,1
345 1292 m 4,18,19
 390 1292 390 1292 421.5 1259.5 c 0
 453 1227 453 1227 453 1179 c 0,20,21
 453 1132 453 1132 418.5 1100.5 c 0
 384 1069 384 1069 334 1069 c 0,22,23
 290 1069 290 1069 258 1100.5 c 0
 226 1132 226 1132 226 1177 c 0,24,25
 226 1223 226 1223 259.5 1257.5 c 0
 293 1292 293 1292 345 1292 c 4,18,19
EndSplineSet
Fore
SplineSet
42 833 m 1,0,1
 98 856 98 856 169 856 c 0,2,3
 236 856 236 856 253.5 816 c 128,-1,4
 271 776 271 776 255 663 c 1,5,-1
 218 378 l 2,6,7
 215 351 215 351 209.5 310 c 128,-1,8
 204 269 204 269 201 248 c 128,-1,9
 198 227 198 227 195 200.5 c 128,-1,10
 192 174 192 174 191 156.5 c 128,-1,11
 190 139 190 139 190 125 c 0,12,13
 190 89 190 89 211 72.5 c 128,-1,14
 232 56 232 56 265 57 c 128,-1,15
 298 58 298 58 339 60 c 1,16,-1
 333 7 l 1,17,18
 283 -17 283 -17 218 -17 c 0,19,20
 134 -17 134 -17 109.5 30.5 c 128,-1,21
 85 78 85 78 100 194 c 2,22,-1
 166 694 l 2,23,24
 173 742 173 742 156.5 763.5 c 128,-1,25
 140 785 140 785 108 783.5 c 128,-1,26
 76 782 76 782 35 778 c 1,27,-1
 42 833 l 1,0,1
201 1158 m 0,28,29
 201 1200 201 1200 220.5 1232 c 128,-1,30
 240 1264 240 1264 278 1264 c 0,31,32
 307 1264 307 1264 323 1239 c 128,-1,33
 339 1214 339 1214 339 1181 c 0,34,35
 339 1139 339 1139 317 1108.5 c 128,-1,36
 295 1078 295 1078 259 1078 c 0,37,38
 233 1078 233 1078 217 1100 c 128,-1,39
 201 1122 201 1122 201 1158 c 0,28,29
EndSplineSet
Layer: 2
SplineSet
224.802 1048.51 m 4,0,1
 224.802 1090.58 224.802 1090.58 244.385 1122.93 c 128,-1,2
 263.969 1155.28 263.969 1155.28 301.568 1155.28 c 0,3,4
 331.014 1155.28 331.014 1155.28 346.878 1130.05 c 128,-1,5
 362.742 1104.82 362.742 1104.82 362.742 1072.05 c 0,6,7
 362.742 1029.01 362.742 1029.01 342.619 999.005 c 128,-1,8
 322.495 969 322.495 969 287 969 c 0,9,10
 259.39 969 259.39 969 242.096 990.893 c 128,-1,11
 224.802 1012.79 224.802 1012.79 224.802 1048.51 c 4,0,1
68 803 m 21,12,13
 124 826 124 826 195 826 c 0,14,15
 262 826 262 826 279.5 786 c 128,-1,16
 297 746 297 746 281 633 c 2,17,-1
 244 378 l 1,18,19
 215.738 175.219 215.738 175.219 215.738 124.62 c 0,20,21
 215.738 88.2319 215.738 88.2319 236.658 72.0218 c 128,-1,22
 257.578 55.8117 257.578 55.8117 290.747 56.8103 c 128,-1,23
 323.916 57.8088 323.916 57.8088 365 60 c 1,24,-1
 359 7 l 1,25,26
 309 -17 309 -17 244 -17 c 0,27,28
 159 -17 159 -17 134.5 30 c 128,-1,29
 110 77 110 77 126 194 c 2,30,-1
 192 664 l 2,31,32
 199 712 199 712 182.5 733.5 c 128,-1,33
 166 755 166 755 134 753.5 c 128,-1,34
 102 752 102 752 61 748 c 1,35,-1
 68 803 l 21,12,13
EndSplineSet
Colour: ffffff
EndChar

StartChar: j
Encoding: 106 106 62
Width: 394
VWidth: 0
Flags: MW
LayerCount: 3
Back
SplineSet
229.802 1157.51 m 4,0,1
 229.802 1199.58 229.802 1199.58 249.385 1231.93 c 0
 268.969 1264.28 268.969 1264.28 306.568 1264.28 c 0,2,3
 336.014 1264.28 336.014 1264.28 351.878 1239.05 c 0
 367.742 1213.82 367.742 1213.82 367.742 1181.05 c 0,4,5
 367.742 1138.57 367.742 1138.57 345.931 1108.28 c 0
 324.12 1078 324.12 1078 288 1078 c 0,6,7
 262.165 1078 262.165 1078 245.984 1099.89 c 0
 229.802 1121.79 229.802 1121.79 229.802 1157.51 c 4,0,1
71 833 m 21,8,9
 127 856 127 856 198 856 c 0,10,11
 265 856 265 856 282.5 816 c 0
 300 776 300 776 284 663 c 1,12,-1
 247 378 l 2,13,14
 243.534 350.919 243.534 350.919 238.088 309.772 c 0
 232.642 268.626 232.642 268.626 229.969 247.741 c 0
 227.296 226.857 227.296 226.857 224.249 200.607 c 0
 221.202 174.357 221.202 174.357 219.97 156.666 c 0
 218.738 138.975 218.738 138.975 218.738 124.62 c 0,15,16
 218.738 88.2319 218.738 88.2319 239.658 72.0218 c 0
 260.578 55.8117 260.578 55.8117 293.747 56.8103 c 0
 326.916 57.8088 326.916 57.8088 368 60 c 1,17,-1
 362 7 l 1,18,19
 312 -17 312 -17 247 -17 c 0,20,21
 163 -17 163 -17 138.5 30.5 c 0
 114 78 114 78 129 194 c 2,22,-1
 195 694 l 2,23,24
 202 742 202 742 185.5 763.5 c 0
 169 785 169 785 137 783.5 c 0
 105 782 105 782 64 778 c 1,25,-1
 71 833 l 21,8,9
EndSplineSet
Fore
SplineSet
346 663 m 2,0,-1
 268 86 l 1,1,2
 253 -11 253 -11 217 -93.5 c 128,-1,3
 181 -176 181 -176 134 -231 c 128,-1,4
 87 -286 87 -286 47.5 -320 c 128,-1,5
 8 -354 8 -354 -31 -376 c 1,6,-1
 -81 -335 l 1,7,8
 144 -159 144 -159 177 99 c 1,9,-1
 257 694 l 2,10,11
 264 742 264 742 247.5 763.5 c 128,-1,12
 231 785 231 785 199 783.5 c 128,-1,13
 167 782 167 782 126 778 c 1,14,-1
 133 833 l 1,15,16
 189 856 189 856 260 856 c 0,17,18
 327 856 327 856 344 816.5 c 128,-1,19
 361 777 361 777 346 663 c 2,0,-1
292 1158 m 0,20,21
 292 1200 292 1200 311.5 1232 c 128,-1,22
 331 1264 331 1264 369 1264 c 0,23,24
 398 1264 398 1264 414 1239 c 128,-1,25
 430 1214 430 1214 430 1181 c 0,26,27
 430 1139 430 1139 408 1108.5 c 128,-1,28
 386 1078 386 1078 350 1078 c 0,29,30
 324 1078 324 1078 308 1100 c 128,-1,31
 292 1122 292 1122 292 1158 c 0,20,21
EndSplineSet
Colour: ffffff
EndChar

StartChar: k
Encoding: 107 107 63
Width: 730
VWidth: 0
Flags: MW
LayerCount: 3
Back
SplineSet
202 0 m 5,0,-1
 94 0 l 1,1,-1
 264 1158.1 l 2,2,3
 268.999 1191.27 268.999 1191.27 260.031 1210.7 c 0
 251.063 1230.12 251.063 1230.12 232.25 1235.69 c 0
 213.437 1241.25 213.437 1241.25 188.344 1242.88 c 0
 163.251 1244.51 163.251 1244.51 136 1242.1 c 1,4,-1
 142 1284.1 l 1,5,6
 197 1317.1 197 1317.1 265 1317.1 c 0,7,8
 334.065 1317.1 334.065 1317.1 357.628 1282.87 c 0
 381.191 1248.63 381.191 1248.63 368 1157.1 c 2,9,-1
 202 0 l 5,0,-1
326 451 m 5,10,11
 426 511 426 511 510 599.5 c 0
 594 688 594 688 594 738 c 0,12,13
 594 770 594 770 564 779.5 c 0
 534 789 534 789 495 777 c 1,14,-1
 504 857 l 1,15,16
 559 890 559 890 627 890 c 0,17,18
 692 890 692 890 718 864 c 0
 744 838 744 838 744 770 c 0,19,20
 744 728 744 728 710 677.5 c 0
 676 627 676 627 625 582.5 c 0
 574 538 574 538 538 511 c 0
 502 484 502 484 473 466 c 1,21,-1
 510 383 l 2,22,23
 576 234 576 234 635 169 c 0
 694 104 694 104 773 89 c 2,24,-1
 799 84 l 1,25,-1
 786 6 l 1,26,27
 717 -15 717 -15 664 -15 c 0,28,29
 601 -15 601 -15 558.5 9 c 0
 516 33 516 33 474 98 c 0
 432 163 432 163 382 287 c 2,30,-1
 323 434 l 1,31,-1
 326 451 l 5,10,11
202 0 m 5,32,-1
 94 0 l 1,33,-1
 264 1158.1 l 2,34,35
 268.999 1191.27 268.999 1191.27 260.031 1210.7 c 0
 251.063 1230.12 251.063 1230.12 232.25 1235.69 c 0
 213.437 1241.25 213.437 1241.25 188.344 1242.88 c 0
 163.251 1244.51 163.251 1244.51 136 1242.1 c 1,36,-1
 142 1284.1 l 1,37,38
 197 1317.1 197 1317.1 265 1317.1 c 0,39,40
 334.065 1317.1 334.065 1317.1 357.628 1282.87 c 0
 381.191 1248.63 381.191 1248.63 368 1157.1 c 2,41,-1
 202 0 l 5,32,-1
EndSplineSet
Fore
SplineSet
283 431 m 1,0,1
 330 461 330 461 362 483.5 c 128,-1,2
 394 506 394 506 434 539.5 c 128,-1,3
 474 573 474 573 498.5 602.5 c 128,-1,4
 523 632 523 632 540.5 669 c 128,-1,5
 558 706 558 706 558 743 c 0,6,7
 558 760 558 760 546.5 770 c 128,-1,8
 535 780 535 780 515.5 782 c 128,-1,9
 496 784 496 784 479.5 783 c 128,-1,10
 463 782 463 782 445 779 c 1,11,-1
 451 824 l 1,12,13
 510 857 510 857 584 857 c 0,14,15
 671 857 671 857 671 780 c 0,16,17
 671 687 671 687 585 592.5 c 128,-1,18
 499 498 499 498 371 426 c 1,19,-1
 401 372 l 2,20,21
 486 220 486 220 554 145 c 128,-1,22
 622 70 622 70 700 58 c 2,23,-1
 738 52 l 1,24,-1
 725 4 l 1,25,26
 679 -15 679 -15 644 -15 c 0,27,28
 560 -15 560 -15 502 46.5 c 128,-1,29
 444 108 444 108 362 261 c 2,30,-1
 280 414 l 1,31,-1
 283 431 l 1,0,1
133 0 m 1,32,-1
 33 0 l 1,33,-1
 203 1158 l 2,34,35
 208 1191 208 1191 199 1210.5 c 128,-1,36
 190 1230 190 1230 171 1235.5 c 128,-1,37
 152 1241 152 1241 127 1243 c 128,-1,38
 102 1245 102 1245 75 1242 c 1,39,-1
 81 1284 l 1,40,41
 136 1317 136 1317 204 1317 c 0,42,43
 269 1317 269 1317 291.5 1282.5 c 128,-1,44
 314 1248 314 1248 301 1157 c 2,45,-1
 133 0 l 1,32,-1
EndSplineSet
Layer: 2
SplineSet
1104 124.62 m 4,0,1
 1104 88.2319 1104 88.2319 1124.92 72.0218 c 128,-1,2
 1145.84 55.8117 1145.84 55.8117 1179.01 56.8103 c 128,-1,3
 1212.18 57.8088 1212.18 57.8088 1253.26 60 c 1,4,-1
 1247.26 7 l 1,5,6
 1196.81 -17 1196.81 -17 1132.26 -17 c 0,7,8
 1044.7 -17 1044.7 -17 1018.66 30.6662 c 128,-1,9
 992.63 78.3324 992.63 78.3324 1010.26 194 c 2,10,-1
 1053 488.872 l 2,11,12
 1058.56 527.202 1058.56 527.202 1061.37 550.505 c 128,-1,13
 1064.18 573.809 1064.18 573.809 1066.07 606.372 c 128,-1,14
 1067.97 638.936 1067.97 638.936 1065.47 658.577 c 128,-1,15
 1062.97 678.217 1062.97 678.217 1056.05 700.523 c 128,-1,16
 1049.13 722.828 1049.13 722.828 1036.29 734.894 c 128,-1,17
 1023.45 746.961 1023.45 746.961 1002.68 755.096 c 128,-1,18
 981.915 763.231 981.915 763.231 953.572 763.231 c 0,19,20
 814.189 763.231 814.189 763.231 696 623.872 c 1,21,-1
 622 0 l 1,22,-1
 514 0 l 1,23,-1
 601 698.872 l 2,24,25
 605.887 732.096 605.887 732.096 596.939 751.513 c 128,-1,26
 587.991 770.93 587.991 770.93 569.244 776.497 c 128,-1,27
 550.497 782.064 550.497 782.064 525.427 783.669 c 128,-1,28
 500.357 785.273 500.357 785.273 473 782.872 c 1,29,-1
 479 824.872 l 1,30,31
 533.323 857.872 533.323 857.872 602 857.872 c 0,32,33
 667.487 857.872 667.487 857.872 691.904 820.681 c 128,-1,34
 716.32 783.491 716.32 783.491 695 687.872 c 1,35,-1
 707 687.872 l 1,36,37
 757.417 753.485 757.417 753.485 834.959 805.178 c 128,-1,38
 912.502 856.872 912.502 856.872 992 856.872 c 0,39,40
 1098.91 856.872 1098.91 856.872 1138.67 794.186 c 128,-1,41
 1178.44 731.5 1178.44 731.5 1159 576.872 c 2,42,-1
 1134 378 l 2,43,44
 1129.29 340.935 1129.29 340.935 1120.32 277.886 c 128,-1,45
 1111.36 214.837 1111.36 214.837 1107.68 181.849 c 128,-1,46
 1104 148.86 1104 148.86 1104 124.62 c 4,0,1
EndSplineSet
Colour: ffffff
EndChar

StartChar: l
Encoding: 108 108 64
Width: 309
VWidth: 0
Flags: MW
LayerCount: 3
Back
SplineSet
86 1284.1 m 17,0,1
 153.571 1317.1 153.571 1317.1 239 1317.1 c 0,2,3
 303.006 1317.1 303.006 1317.1 334.593 1294.62 c 0
 366.179 1272.14 366.179 1272.14 370.407 1229.25 c 0
 374.636 1186.36 374.636 1186.36 366 1124.1 c 1,4,-1
 248.152 378 l 2,5,6
 225.152 233.795 225.152 233.795 225.152 172 c 0,7,8
 225.152 149.629 225.152 149.629 231.736 134.336 c 0
 238.32 119.043 238.32 119.043 249.984 111.408 c 0
 261.648 103.773 261.648 103.773 277.64 99.712 c 0
 293.632 95.6513 293.632 95.6513 312.448 95.744 c 0
 331.264 95.8367 331.264 95.8367 352.152 96 c 1,9,-1
 344.152 15 l 1,10,11
 282.285 -17 282.285 -17 203.152 -17 c 0,12,13
 106.897 -17 106.897 -17 77.4411 31.9294 c 0
 47.9856 80.8589 47.9856 80.8589 65.1523 194 c 2,14,-1
 208 1120.1 l 2,15,16
 213.356 1153.31 213.356 1153.31 204.266 1172.74 c 0
 195.175 1192.17 195.175 1192.17 175.875 1197.72 c 0
 156.575 1203.28 156.575 1203.28 130.797 1204.9 c 0
 105.019 1206.52 105.019 1206.52 77 1204.1 c 1,17,-1
 86 1284.1 l 17,0,1
EndSplineSet
Fore
SplineSet
69 1294 m 1,0,1
 125 1317 125 1317 196 1317 c 0,2,3
 268 1317 268 1317 287 1277.5 c 128,-1,4
 306 1238 306 1238 289 1124 c 2,5,-1
 177 378 l 2,6,7
 149 196 149 196 149 130 c 0,8,9
 149 91 149 91 169 73 c 128,-1,10
 189 55 189 55 221.5 56.5 c 128,-1,11
 254 58 254 58 293 60 c 1,12,-1
 287 7 l 1,13,14
 236 -17 236 -17 170 -17 c 0,15,16
 85 -17 85 -17 60 30.5 c 128,-1,17
 35 78 35 78 52 194 c 2,18,-1
 193 1155 l 2,19,20
 200 1203 200 1203 183.5 1224.5 c 128,-1,21
 167 1246 167 1246 135 1244.5 c 128,-1,22
 103 1243 103 1243 62 1239 c 0,23,-1
 69 1294 l 1,0,1
EndSplineSet
Colour: ffffff
EndChar

StartChar: m
Encoding: 109 109 65
Width: 1280
VWidth: 0
Flags: MW
LayerCount: 3
Back
SplineSet
801 625 m 1,0,-1
 811 685 l 1,1,2
 870 768 870 768 955 830.5 c 0
 1040 893 1040 893 1134 893 c 0,3,4
 1229 893 1229 893 1264.5 826.5 c 0
 1300 760 1300 760 1284 613 c 2,5,-1
 1258 378 l 2,6,7
 1254 346 1254 346 1247.5 297.5 c 0
 1241 249 1241 249 1238 221.5 c 0
 1235 194 1235 194 1235 175 c 0,8,9
 1235 153 1235 153 1241.5 137.5 c 0
 1248 122 1248 122 1259.5 114.5 c 0
 1271 107 1271 107 1287 103 c 0
 1303 99 1303 99 1322 99 c 0
 1341 99 1341 99 1362 99 c 1,10,-1
 1354 18 l 1,11,12
 1292 -14 1292 -14 1213 -14 c 0,13,14
 1117 -14 1117 -14 1088.5 34.5 c 0
 1060 83 1060 83 1075 197 c 2,15,-1
 1117 525 l 2,16,17
 1132 636 1132 636 1113 690.5 c 0
 1094 745 1094 745 1027 745 c 0,18,19
 974 745 974 745 927 724 c 0
 880 703 880 703 855.5 681 c 0
 831 659 831 659 801 625 c 1,0,-1
582 0 m 9,20,-1
 648 525 l 2,21,22
 662 637 662 637 642 691 c 0
 622 745 622 745 549 745 c 0,23,24
 505 745 505 745 466.5 730.5 c 0
 428 716 428 716 407.5 701 c 0
 387 686 387 686 362 662 c 1,25,-1
 267 0 l 1,26,-1
 104 0 l 1,27,-1
 196 697 l 2,28,29
 201 730 201 730 192 749.5 c 0
 183 769 183 769 163.5 774.5 c 0
 144 780 144 780 118.5 781.5 c 0
 93 783 93 783 65 781 c 1,30,-1
 74 861 l 1,31,32
 142 894 142 894 227 894 c 0,33,34
 401 894 401 894 360 722 c 1,35,-1
 372 722 l 1,36,37
 423 790 423 790 498.5 841.5 c 0
 574 893 574 893 656 893 c 0,38,39
 756 893 756 893 794 826.5 c 0
 832 760 832 760 815 613 c 2,40,-1
 745 0 l 1,41,-1
 582 0 l 9,20,-1
EndSplineSet
Fore
SplineSet
550 0 m 1,0,-1
 616 489 l 2,1,2
 620 520 620 520 622.5 537.5 c 128,-1,3
 625 555 625 555 627.5 582 c 128,-1,4
 630 609 630 609 629.5 625 c 128,-1,5
 629 641 629 641 627.5 663 c 128,-1,6
 626 685 626 685 620.5 697.5 c 128,-1,7
 615 710 615 710 606.5 724 c 128,-1,8
 598 738 598 738 586 745.5 c 128,-1,9
 574 753 574 753 556.5 758 c 128,-1,10
 539 763 539 763 517 763 c 0,11,12
 378 763 378 763 259 624 c 1,13,-1
 185 0 l 1,14,-1
 77 0 l 1,15,-1
 164 699 l 2,16,17
 169 732 169 732 160 751.5 c 128,-1,18
 151 771 151 771 132 776.5 c 128,-1,19
 113 782 113 782 88 783.5 c 128,-1,20
 63 785 63 785 36 783 c 1,21,-1
 42 825 l 1,22,23
 96 858 96 858 165 858 c 0,24,25
 230 858 230 858 254.5 820.5 c 128,-1,26
 279 783 279 783 258 688 c 1,27,-1
 270 688 l 1,28,29
 320 754 320 754 398 805.5 c 128,-1,30
 476 857 476 857 555 857 c 0,31,32
 644 857 644 857 687 817 c 128,-1,33
 730 777 730 777 734 683 c 1,34,35
 785 752 785 752 860 804.5 c 128,-1,36
 935 857 935 857 1011 857 c 0,37,38
 1118 857 1118 857 1157.5 794.5 c 128,-1,39
 1197 732 1197 732 1178 577 c 2,40,-1
 1153 378 l 2,41,42
 1148 341 1148 341 1139 278 c 128,-1,43
 1130 215 1130 215 1126.5 182 c 128,-1,44
 1123 149 1123 149 1123 125 c 0,45,46
 1123 89 1123 89 1144 72.5 c 128,-1,47
 1165 56 1165 56 1198 57 c 128,-1,48
 1231 58 1231 58 1272 60 c 1,49,-1
 1266 7 l 1,50,51
 1216 -17 1216 -17 1151 -17 c 0,52,53
 1063 -17 1063 -17 1037.5 30.5 c 128,-1,54
 1012 78 1012 78 1029 194 c 2,55,-1
 1072 489 l 2,56,57
 1078 527 1078 527 1080.5 550.5 c 128,-1,58
 1083 574 1083 574 1085 606.5 c 128,-1,59
 1087 639 1087 639 1084.5 658.5 c 128,-1,60
 1082 678 1082 678 1075 700.5 c 128,-1,61
 1068 723 1068 723 1055 735 c 128,-1,62
 1042 747 1042 747 1021.5 755 c 128,-1,63
 1001 763 1001 763 973 763 c 0,64,65
 845 763 845 763 732 624 c 1,66,67
 731 602 731 602 728 577 c 2,68,-1
 658 0 l 1,69,-1
 550 0 l 1,0,-1
EndSplineSet
Colour: ffffff
EndChar

StartChar: n
Encoding: 110 110 66
Width: 824
VWidth: 0
Flags: MW
LayerCount: 3
Fore
SplineSet
667 125 m 0,0,1
 667 89 667 89 688 72.5 c 128,-1,2
 709 56 709 56 742 57 c 128,-1,3
 775 58 775 58 816 60 c 1,4,-1
 810 7 l 1,5,6
 760 -17 760 -17 695 -17 c 0,7,8
 607 -17 607 -17 581.5 30.5 c 128,-1,9
 556 78 556 78 573 194 c 2,10,-1
 616 489 l 2,11,12
 622 527 622 527 624.5 550.5 c 128,-1,13
 627 574 627 574 629 606.5 c 128,-1,14
 631 639 631 639 628.5 658.5 c 128,-1,15
 626 678 626 678 619 700.5 c 128,-1,16
 612 723 612 723 599 735 c 128,-1,17
 586 747 586 747 565.5 755 c 128,-1,18
 545 763 545 763 517 763 c 0,19,20
 378 763 378 763 259 624 c 1,21,-1
 185 0 l 1,22,-1
 77 0 l 1,23,-1
 164 699 l 2,24,25
 169 732 169 732 160 751.5 c 128,-1,26
 151 771 151 771 132 776.5 c 128,-1,27
 113 782 113 782 88 783.5 c 128,-1,28
 63 785 63 785 36 783 c 1,29,-1
 42 825 l 1,30,31
 96 858 96 858 165 858 c 0,32,33
 230 858 230 858 254.5 820.5 c 128,-1,34
 279 783 279 783 258 688 c 1,35,-1
 270 688 l 1,36,37
 320 754 320 754 398 805.5 c 128,-1,38
 476 857 476 857 555 857 c 0,39,40
 662 857 662 857 701.5 794.5 c 128,-1,41
 741 732 741 732 722 577 c 2,42,-1
 697 378 l 2,43,44
 692 341 692 341 683 278 c 128,-1,45
 674 215 674 215 670.5 182 c 128,-1,46
 667 149 667 149 667 125 c 0,0,1
EndSplineSet
Colour: ffffff
EndChar

StartChar: o
Encoding: 111 111 67
Width: 723
VWidth: 0
Flags: MW
LayerCount: 3
Back
SplineSet
602.262 -17 m 15,0,1
 528.717 -17 528.717 -17 492.013 25.1301 c 0
 455.309 67.2602 455.309 67.2602 473 132 c 1,2,-1
 461 132 l 1,3,4
 425 66 425 66 361 22.5 c 0
 297 -21 297 -21 225 -21 c 0,5,6
 132 -21 132 -21 76.5 55.5 c 0
 21 132 21 132 21 264 c 0,7,8
 21 374.175 21 374.175 49.8378 471.544 c 0
 78.6757 568.913 78.6757 568.913 126.247 637.979 c 0
 173.819 707.045 173.819 707.045 234.297 757.458 c 0
 294.776 807.87 294.776 807.87 358.858 832.371 c 0
 422.941 856.872 422.941 856.872 484 856.872 c 0,9,10
 634.938 856.872 634.938 856.872 675 823.872 c 1,11,-1
 604 378 l 2,12,13
 574 191.684 574 191.684 574 124.62 c 0,14,15
 574 88.2319 574 88.2319 594.92 72.0218 c 0
 615.84 55.8117 615.84 55.8117 649.009 56.8103 c 0
 682.178 57.8089 682.178 57.8089 723.262 60 c 1,16,-1
 717.262 7 l 1,17,18
 666.802 -17 666.802 -17 602.262 -17 c 15,0,1
564 745.872 m 5,19,20
 523.14 772.872 523.14 772.872 435 772.872 c 0,21,22
 372.125 772.872 372.125 772.872 318.505 744.032 c 0
 264.886 715.193 264.886 715.193 223.792 659.343 c 0
 182.698 603.493 182.698 603.493 159.349 513.839 c 0
 136 424.185 136 424.185 136 310 c 0,23,24
 136 66 136 66 266 66 c 0,25,26
 330 66 330 66 378.5 101 c 0
 427 136 427 136 478 201 c 1,27,-1
 564 745.872 l 5,19,20
EndSplineSet
Fore
SplineSet
280 -26 m 0,0,1
 150 -26 150 -26 78 75.5 c 128,-1,2
 6 177 6 177 6 336 c 0,3,4
 6 436 6 436 38 530.5 c 128,-1,5
 70 625 70 625 125.5 697 c 128,-1,6
 181 769 181 769 261.5 813 c 128,-1,7
 342 857 342 857 433 857 c 0,8,9
 499 857 499 857 551.5 827 c 128,-1,10
 604 797 604 797 635.5 746 c 128,-1,11
 667 695 667 695 683 633 c 128,-1,12
 699 571 699 571 699 503 c 0,13,14
 699 276 699 276 578 125 c 128,-1,15
 457 -26 457 -26 280 -26 c 0,0,1
588 454 m 0,16,17
 588 518 588 518 576 573.5 c 128,-1,18
 564 629 564 629 539.5 675 c 128,-1,19
 515 721 515 721 472.5 747.5 c 128,-1,20
 430 774 430 774 373 774 c 0,21,22
 255 774 255 774 185.5 673 c 128,-1,23
 116 572 116 572 116 377 c 0,24,25
 116 221 116 221 177 135 c 128,-1,26
 238 49 238 49 333 49 c 0,27,28
 588 49 588 49 588 454 c 0,16,17
EndSplineSet
Colour: ffffff
EndChar

StartChar: p
Encoding: 112 112 68
Width: 762
VWidth: 0
Flags: MW
LayerCount: 3
Fore
SplineSet
272 -20 m 0,0,1
 206 -20 206 -20 177 -8 c 1,2,-1
 200 74 l 1,3,4
 261 64 261 64 338 64 c 0,5,6
 461 64 461 64 542.5 172 c 128,-1,7
 624 280 624 280 624 453 c 0,8,9
 624 526 624 526 616.5 579 c 128,-1,10
 609 632 609 632 591 675 c 128,-1,11
 573 718 573 718 539.5 739.5 c 128,-1,12
 506 761 506 761 457 761 c 0,13,14
 391 761 391 761 348.5 736.5 c 128,-1,15
 306 712 306 712 244 651 c 1,16,-1
 91 -366 l 1,17,-1
 -15 -366 l 1,18,-1
 153 733 l 2,19,20
 158 766 158 766 149 785.5 c 128,-1,21
 140 805 140 805 121.5 810.5 c 128,-1,22
 103 816 103 816 77.5 817.5 c 128,-1,23
 52 819 52 819 25 817 c 1,24,-1
 31 859 l 1,25,26
 82 892 82 892 147 892 c 128,-1,27
 212 892 212 892 236.5 855 c 128,-1,28
 261 818 261 818 240 722 c 1,29,-1
 253 720 l 1,30,31
 290 773 290 773 364.5 815 c 128,-1,32
 439 857 439 857 518 857 c 0,33,34
 592 857 592 857 643 809 c 128,-1,35
 694 761 694 761 717 685.5 c 128,-1,36
 740 610 740 610 740 514 c 0,37,38
 740 404 740 404 708.5 307.5 c 128,-1,39
 677 211 677 211 618.5 138 c 128,-1,40
 560 65 560 65 470.5 22.5 c 128,-1,41
 381 -20 381 -20 272 -20 c 0,0,1
EndSplineSet
Layer: 2
SplineSet
36.2617 945.1 m 17,0,1
 92.3373 968.1 92.3373 968.1 163.262 968.1 c 0,2,3
 235.513 968.1 235.513 968.1 254.45 928.382 c 128,-1,4
 273.387 888.665 273.387 888.665 256.262 775.1 c 2,5,-1
 144.262 29 l 2,6,7
 116 -153.265 116 -153.265 116 -219.38 c 0,8,9
 116 -258.584 116 -258.584 136.219 -276.048 c 128,-1,10
 156.438 -293.513 156.438 -293.513 188.496 -292.437 c 128,-1,11
 220.555 -291.361 220.555 -291.361 260.262 -289 c 1,12,-1
 254.262 -342 l 1,13,14
 202.928 -366 202.928 -366 137.262 -366 c 0,15,16
 52.6216 -366 52.6216 -366 27.5093 -318.377 c 128,-1,17
 2.39704 -270.753 2.39704 -270.753 19.2617 -155 c 2,18,-1
 160.262 806.1 l 2,19,20
 167.012 854.169 167.012 854.169 150.483 875.512 c 128,-1,21
 133.955 896.854 133.955 896.854 102.072 895.484 c 128,-1,22
 70.1886 894.113 70.1886 894.113 29.4532 890.124 c 0,23,-1
 36.2617 945.1 l 17,0,1
EndSplineSet
Colour: ffffff
EndChar

StartChar: q
Encoding: 113 113 69
Width: 688
VWidth: 0
Flags: MW
LayerCount: 3
Fore
SplineSet
414 -155 m 2,0,-1
 549 745 l 1,1,2
 508 772 508 772 420 772 c 0,3,4
 357 772 357 772 303.5 743 c 128,-1,5
 250 714 250 714 209 658.5 c 128,-1,6
 168 603 168 603 144.5 513 c 128,-1,7
 121 423 121 423 121 309 c 0,8,9
 121 65 121 65 251 65 c 0,10,11
 339 65 339 65 395 107 c 1,12,-1
 418 82 l 1,13,14
 381 33 381 33 333.5 5.5 c 128,-1,15
 286 -22 286 -22 210 -22 c 0,16,17
 117 -22 117 -22 61.5 54.5 c 128,-1,18
 6 131 6 131 6 263 c 0,19,20
 6 373 6 373 35 470.5 c 128,-1,21
 64 568 64 568 111.5 637 c 128,-1,22
 159 706 159 706 219.5 756.5 c 128,-1,23
 280 807 280 807 344 831.5 c 128,-1,24
 408 856 408 856 469 856 c 0,25,26
 622 856 622 856 663 823 c 1,27,-1
 539 29 l 2,28,29
 511 -154 511 -154 511 -219 c 0,30,31
 511 -258 511 -258 531 -276 c 128,-1,32
 551 -294 551 -294 583 -292.5 c 128,-1,33
 615 -291 615 -291 655 -289 c 1,34,-1
 649 -342 l 1,35,36
 598 -366 598 -366 532 -366 c 0,37,38
 447 -366 447 -366 421.5 -318 c 128,-1,39
 396 -270 396 -270 414 -155 c 2,0,-1
EndSplineSet
Colour: ffffff
EndChar

StartChar: r
Encoding: 114 114 70
Width: 542
VWidth: 0
Flags: MW
LayerCount: 3
Back
SplineSet
200.802 1157.51 m 4,0,1
 200.802 1199.58 200.802 1199.58 220.385 1231.93 c 0
 239.969 1264.28 239.969 1264.28 277.568 1264.28 c 0,2,3
 307.014 1264.28 307.014 1264.28 322.878 1239.05 c 0
 338.742 1213.82 338.742 1213.82 338.742 1181.05 c 0,4,5
 338.742 1138.57 338.742 1138.57 316.931 1108.28 c 0
 295.12 1078 295.12 1078 259 1078 c 0,6,7
 233.165 1078 233.165 1078 216.984 1099.89 c 0
 200.802 1121.79 200.802 1121.79 200.802 1157.51 c 4,0,1
42 833 m 21,8,9
 98 856 98 856 169 856 c 0,10,11
 236 856 236 856 253.5 816 c 0
 271 776 271 776 255 663 c 1,12,-1
 218 378 l 2,13,14
 214.534 350.919 214.534 350.919 209.088 309.772 c 0
 203.642 268.626 203.642 268.626 200.969 247.741 c 0
 198.296 226.857 198.296 226.857 195.249 200.607 c 0
 192.203 174.357 192.203 174.357 190.97 156.666 c 0
 189.738 138.975 189.738 138.975 189.738 124.62 c 0,15,16
 189.738 88.2319 189.738 88.2319 210.658 72.0219 c 0
 231.578 55.8119 231.578 55.8119 264.747 56.8104 c 0
 297.916 57.809 297.916 57.809 339 60 c 1,17,-1
 333 7 l 1,18,19
 283 -17 283 -17 218 -17 c 0,20,21
 134 -17 134 -17 109.5 30.5 c 0
 85 78 85 78 100 194 c 2,22,-1
 166 694 l 2,23,24
 173 742 173 742 156.5 763.5 c 0
 140 785 140 785 108 783.5 c 0
 76 782 76 782 35 778 c 1,25,-1
 42 833 l 21,8,9
EndSplineSet
Fore
SplineSet
164 699 m 2,0,1
 168 732 168 732 159 751.5 c 128,-1,2
 150 771 150 771 131.5 776.5 c 128,-1,3
 113 782 113 782 88 783.5 c 128,-1,4
 63 785 63 785 36 783 c 1,5,-1
 42 825 l 1,6,7
 96 858 96 858 165 858 c 0,8,9
 226 858 226 858 244.5 820 c 128,-1,10
 263 782 263 782 252 687 c 2,11,-1
 242 602 l 1,12,-1
 253 602 l 1,13,14
 274 665 274 665 306 720.5 c 128,-1,15
 338 776 338 776 383 816.5 c 128,-1,16
 428 857 428 857 473 857 c 0,17,18
 562 857 562 857 562 772 c 0,19,20
 562 729 562 729 518 698 c 1,21,22
 499 721 499 721 480.5 729 c 128,-1,23
 462 737 462 737 436 737 c 0,24,25
 405 737 405 737 374 713 c 128,-1,26
 343 689 343 689 318 649.5 c 128,-1,27
 293 610 293 610 275.5 575 c 128,-1,28
 258 540 258 540 243 503 c 1,29,-1
 184 0 l 1,30,-1
 77 0 l 1,31,-1
 164 699 l 2,0,1
EndSplineSet
Colour: ffffff
EndChar

StartChar: s
Encoding: 115 115 71
Width: 613
VWidth: 0
Flags: MW
LayerCount: 3
Back
SplineSet
31 139 m 4,0,1
 31 191 31 191 65 222 c 0
 99 253 99 253 160 258 c 1,2,3
 181 154 181 154 211.5 110 c 0
 242 66 242 66 302 66 c 0,4,5
 354 66 354 66 389.5 99 c 0
 425 132 425 132 425 195 c 0,6,7
 425 230.928 425 230.928 405.117 264.792 c 0
 385.233 298.656 385.233 298.656 353.437 326.774 c 0
 321.641 354.892 321.641 354.892 283.188 383.28 c 0
 244.735 411.667 244.735 411.667 206.282 442.265 c 0
 167.829 472.862 167.829 472.862 136.033 505.687 c 0
 104.237 538.512 104.237 538.512 84.3532 581.502 c 0
 64.4697 624.492 64.4697 624.492 64.4697 672.044 c 0,8,9
 64.4697 741.669 64.4697 741.669 114.055 801.677 c 0
 163.64 861.686 163.64 861.686 237.112 894.343 c 0
 310.585 927 310.585 927 385 927 c 0,10,11
 507 927 507 927 578 874.5 c 0
 649 822 649 822 649 750 c 0,12,13
 649 709 649 709 614 679 c 0
 579 649 579 649 517 644 c 1,14,15
 480 838 480 838 335 838 c 0,16,17
 282.36 838 282.36 838 249.576 804.034 c 0
 216.792 770.068 216.792 770.068 216.792 723.174 c 0,18,19
 216.792 688.871 216.792 688.871 236.272 657.363 c 0
 255.751 625.856 255.751 625.856 286.902 600.03 c 0
 318.052 574.204 318.052 574.204 355.724 547.995 c 0
 393.396 521.787 393.396 521.787 431.068 492.424 c 0
 468.74 463.062 468.74 463.062 499.89 430.516 c 0
 531.041 397.97 531.041 397.97 550.52 353.434 c 0
 570 308.897 570 308.897 570 258 c 0,20,21
 570 154 570 154 476 72 c 0
 382 -10 382 -10 251 -10 c 0,22,23
 153 -10 153 -10 92 27.5 c 0
 31 65 31 65 31 139 c 4,0,1
EndSplineSet
Fore
SplineSet
500 599 m 1,0,1
 474 700 474 700 431.5 745.5 c 128,-1,2
 389 791 389 791 319 791 c 0,3,4
 255 791 255 791 211 760 c 128,-1,5
 167 729 167 729 167 670 c 0,6,7
 167 631 167 631 184 596.5 c 128,-1,8
 201 562 201 562 228.5 536.5 c 128,-1,9
 256 511 256 511 291.5 485 c 128,-1,10
 327 459 327 459 364.5 438 c 128,-1,11
 402 417 402 417 437.5 392 c 128,-1,12
 473 367 473 367 500.5 342 c 128,-1,13
 528 317 528 317 545 283.5 c 128,-1,14
 562 250 562 250 562 212 c 0,15,16
 562 152 562 152 535.5 105 c 128,-1,17
 509 58 509 58 465.5 30.5 c 128,-1,18
 422 3 422 3 369.5 -11 c 128,-1,19
 317 -25 317 -25 261 -25 c 0,20,21
 163 -25 163 -25 91 20 c 128,-1,22
 19 65 19 65 19 139 c 0,23,24
 19 174 19 174 41.5 199 c 128,-1,25
 64 224 64 224 104 228 c 1,26,27
 116 145 116 145 167.5 90 c 128,-1,28
 219 35 219 35 307 35 c 0,29,30
 459 35 459 35 459 161 c 0,31,32
 459 196 459 196 442.5 227 c 128,-1,33
 426 258 426 258 398.5 281.5 c 128,-1,34
 371 305 371 305 336 329.5 c 128,-1,35
 301 354 301 354 265 375 c 128,-1,36
 229 396 229 396 194 421.5 c 128,-1,37
 159 447 159 447 131.5 473 c 128,-1,38
 104 499 104 499 87.5 534.5 c 128,-1,39
 71 570 71 570 71 609 c 0,40,41
 71 717 71 717 160 787 c 128,-1,42
 249 857 249 857 380 857 c 0,43,44
 462 857 462 857 521.5 814.5 c 128,-1,45
 581 772 581 772 581 697 c 0,46,47
 581 658 581 658 557.5 631 c 128,-1,48
 534 604 534 604 500 599 c 1,0,1
EndSplineSet
Layer: 2
SplineSet
572 149 m 5,0,-1
 595 108 l 1,1,2
 567 55 567 55 489 15.5 c 128,-1,3
 411 -24 411 -24 307 -24 c 0,4,5
 178 -24 178 -24 101 66 c 128,-1,6
 24 156 24 156 24 328 c 0,7,8
 24 439.897 24 439.897 58.4363 539.391 c 128,-1,9
 92.8727 638.886 92.8727 638.886 149.985 707.828 c 128,-1,10
 207.097 776.77 207.097 776.77 282.625 816.821 c 128,-1,11
 358.153 856.872 358.153 856.872 438.772 856.872 c 0,12,13
 529.137 856.872 529.137 856.872 579.699 819.529 c 128,-1,14
 630.261 782.185 630.261 782.185 630.261 732.55 c 0,15,16
 630.261 694.031 630.261 694.031 604.212 668.798 c 128,-1,17
 578.163 643.565 578.163 643.565 540 638 c 1,18,19
 520.573 707.981 520.573 707.981 477.347 741.426 c 128,-1,20
 434.121 774.872 434.121 774.872 379.772 774.872 c 0,21,22
 329.078 774.872 329.078 774.872 287.052 750.947 c 128,-1,23
 245.026 727.021 245.026 727.021 217.868 689.006 c 128,-1,24
 190.71 650.99 190.71 650.99 171.916 601.972 c 128,-1,25
 153.122 552.954 153.122 552.954 145.061 504.663 c 128,-1,26
 137 456.371 137 456.371 137 410 c 0,27,28
 137 244 137 244 191.5 155 c 128,-1,29
 246 66 246 66 358 66 c 0,30,31
 414 66 414 66 460 81.5 c 128,-1,32
 506 97 506 97 525.5 111 c 128,-1,33
 545 125 545 125 572 149 c 5,0,-1
EndSplineSet
Colour: ffffff
EndChar

StartChar: t
Encoding: 116 116 72
Width: 468
VWidth: 0
Flags: MW
LayerCount: 3
Back
SplineSet
710 663 m 9,0,-1
 675 378 l 2,1,2
 669.904 335.043 669.904 335.043 661.559 276.507 c 0
 653.215 217.971 653.215 217.971 649.107 183.228 c 0
 645 148.484 645 148.484 645 124.62 c 0,3,4
 645 88.2319 645 88.2319 665.92 72.0218 c 0
 686.84 55.8117 686.84 55.8117 720.009 56.8103 c 0
 753.178 57.8089 753.178 57.8089 794.262 60 c 1,5,-1
 788.262 7 l 1,6,7
 737.802 -17 737.802 -17 673.262 -17 c 0,8,9
 599.717 -17 599.717 -17 563.013 25.1301 c 0
 526.309 67.2602 526.309 67.2602 544 132 c 1,10,-1
 533 132 l 1,11,12
 415.864 -15.3213 415.864 -15.3213 251.327 -15.3213 c 0,13,14
 182.274 -15.3213 182.274 -15.3213 141.557 20.472 c 0
 100.841 56.2653 100.841 56.2653 89.3022 115.631 c 0
 77.7633 174.996 77.7633 174.996 89 257 c 2,15,-1
 149 694.872 l 2,16,17
 155.588 742.931 155.588 742.931 139.038 764.261 c 0
 122.488 785.591 122.488 785.591 90.6334 784.234 c 0
 58.7788 782.876 58.7788 782.876 18.0072 778.873 c 0
 25 833.872 l 1,19,20
 81.0904 856.872 81.0904 856.872 152 856.872 c 0,21,22
 220.073 856.872 220.073 856.872 237.597 817.5 c 0
 255.12 778.128 255.12 778.128 240 663.872 c 2,23,-1
 197 345 l 2,24,25
 176 184 176 184 199.5 130.5 c 0
 223 77 223 77 317 77 c 0,26,27
 379 77 379 77 443.5 118.5 c 0
 508 160 508 160 550 212 c 1,28,-1
 618 694 l 2,29,30
 625 742 625 742 607 763.5 c 0
 589 785 589 785 555 783.5 c 0
 521 782 521 782 477 778 c 1,31,-1
 484 833 l 1,32,33
 545 856 545 856 621 856 c 0,34,35
 690 856 690 856 708.5 816 c 0
 727 776 727 776 710 663 c 9,0,-1
EndSplineSet
Fore
SplineSet
51 756 m 1,0,-1
 61 819 l 1,1,-1
 162 819 l 1,2,-1
 196 1040 l 1,3,-1
 286 1040 l 1,4,-1
 254 819 l 1,5,-1
 460 819 l 1,6,-1
 450 756 l 1,7,-1
 245 756 l 1,8,-1
 185 343 l 1,9,10
 169 242 169 242 175.5 182 c 128,-1,11
 182 122 182 122 208 97.5 c 128,-1,12
 234 73 234 73 285 73 c 0,13,14
 366 73 366 73 413 114 c 1,15,-1
 440 73 l 1,16,17
 350 -17 350 -17 225 -17 c 0,18,19
 35 -17 35 -17 77 255 c 2,20,-1
 153 756 l 1,21,-1
 51 756 l 1,0,-1
EndSplineSet
Colour: ffffff
EndChar

StartChar: u
Encoding: 117 117 73
Width: 821
VWidth: 0
Flags: MW
LayerCount: 3
Fore
SplineSet
725 663 m 1,0,-1
 690 378 l 2,1,2
 685 335 685 335 676.5 276.5 c 128,-1,3
 668 218 668 218 664 183 c 128,-1,4
 660 148 660 148 660 125 c 0,5,6
 660 89 660 89 681 72.5 c 128,-1,7
 702 56 702 56 735 57 c 128,-1,8
 768 58 768 58 809 60 c 1,9,-1
 803 7 l 1,10,11
 753 -17 753 -17 688 -17 c 0,12,13
 614 -17 614 -17 577.5 25 c 128,-1,14
 541 67 541 67 559 132 c 1,15,-1
 548 132 l 1,16,17
 431 -15 431 -15 266 -15 c 0,18,19
 197 -15 197 -15 156.5 20.5 c 128,-1,20
 116 56 116 56 104.5 115.5 c 128,-1,21
 93 175 93 175 104 257 c 2,22,-1
 164 695 l 2,23,24
 171 743 171 743 154 764.5 c 128,-1,25
 137 786 137 786 105.5 784.5 c 128,-1,26
 74 783 74 783 33 779 c 0,27,-1
 40 834 l 1,28,29
 96 857 96 857 167 857 c 0,30,31
 235 857 235 857 252.5 817.5 c 128,-1,32
 270 778 270 778 255 664 c 2,33,-1
 212 345 l 2,34,35
 191 184 191 184 214.5 130.5 c 128,-1,36
 238 77 238 77 332 77 c 0,37,38
 394 77 394 77 458.5 118.5 c 128,-1,39
 523 160 523 160 565 212 c 1,40,-1
 633 694 l 2,41,42
 640 742 640 742 622 763.5 c 128,-1,43
 604 785 604 785 570 783.5 c 128,-1,44
 536 782 536 782 492 778 c 1,45,-1
 499 833 l 1,46,47
 560 856 560 856 636 856 c 0,48,49
 705 856 705 856 723.5 816 c 128,-1,50
 742 776 742 776 725 663 c 1,0,-1
EndSplineSet
Layer: 2
SplineSet
192.262 716.252 m 4,0,1
 192.262 752.64 192.262 752.64 171.342 768.85 c 128,-1,2
 150.422 785.06 150.422 785.06 117.253 784.062 c 128,-1,3
 84.0838 783.063 84.0838 783.063 43 780.872 c 1,4,-1
 49 833.872 l 1,5,6
 99.4598 857.872 99.4598 857.872 164 857.872 c 0,7,8
 251.563 857.872 251.563 857.872 277.597 810.206 c 128,-1,9
 303.631 762.54 303.631 762.54 286 646.872 c 2,10,-1
 243.262 352 l 2,11,12
 237.706 313.669 237.706 313.669 234.897 290.367 c 128,-1,13
 232.087 267.064 232.087 267.064 230.19 234.5 c 128,-1,14
 228.293 201.936 228.293 201.936 230.793 182.295 c 128,-1,15
 233.293 162.655 233.293 162.655 240.211 140.349 c 128,-1,16
 247.128 118.043 247.128 118.043 259.971 105.977 c 128,-1,17
 272.815 93.911 272.815 93.911 293.581 85.7758 c 128,-1,18
 314.347 77.6406 314.347 77.6406 342.69 77.6406 c 0,19,20
 482.072 77.6406 482.072 77.6406 600.262 217 c 1,21,-1
 674.262 840.872 l 1,22,-1
 782.262 840.872 l 1,23,-1
 695.262 142 l 2,24,25
 690.375 108.777 690.375 108.777 699.323 89.3594 c 128,-1,26
 708.271 69.9422 708.271 69.9422 727.018 64.375 c 128,-1,27
 745.765 58.8078 745.765 58.8078 770.835 57.2031 c 128,-1,28
 795.905 55.5985 795.905 55.5985 823.262 58 c 1,29,-1
 817.262 16 l 1,30,31
 762.939 -17 762.939 -17 694.262 -17 c 0,32,33
 628.775 -17 628.775 -17 604.358 20.1905 c 128,-1,34
 579.942 57.3811 579.942 57.3811 601.262 153 c 1,35,-1
 589.262 153 l 1,36,37
 538.845 87.3873 538.845 87.3873 461.303 35.6936 c 128,-1,38
 383.76 -16 383.76 -16 304.262 -16 c 0,39,40
 197.351 -16 197.351 -16 157.587 46.686 c 128,-1,41
 117.824 109.372 117.824 109.372 137.262 264 c 2,42,-1
 162.262 462.872 l 2,43,44
 166.973 499.934 166.973 499.934 175.94 562.985 c 128,-1,45
 184.906 626.036 184.906 626.036 188.584 659.024 c 128,-1,46
 192.262 692.012 192.262 692.012 192.262 716.252 c 4,0,1
EndSplineSet
Colour: ffffff
EndChar

StartChar: v
Encoding: 118 118 74
Width: 671
VWidth: 0
Flags: MW
LayerCount: 3
Back
SplineSet
191 698.872 m 16,0,1
 195.887 732.096 195.887 732.096 186.939 751.513 c 0
 177.991 770.93 177.991 770.93 159.244 776.497 c 0
 140.497 782.064 140.497 782.064 115.427 783.669 c 0
 90.3573 785.273 90.3573 785.273 63 782.872 c 1,2,-1
 69 824.872 l 1,3,4
 123.323 857.872 123.323 857.872 192 857.872 c 0,5,6
 257.487 857.872 257.487 857.872 281.904 820.681 c 0
 306.32 783.491 306.32 783.491 285 687.872 c 0
EndSplineSet
Fore
SplineSet
124 857 m 0,0,1
 141 857 141 857 154 855 c 128,-1,2
 167 853 167 853 177.5 846.5 c 128,-1,3
 188 840 188 840 195 835 c 128,-1,4
 202 830 202 830 208.5 816.5 c 128,-1,5
 215 803 215 803 218.5 793.5 c 128,-1,6
 222 784 222 784 226.5 763 c 128,-1,7
 231 742 231 742 233.5 729 c 128,-1,8
 236 716 236 716 240 688 c 0,9,10
 242 676 242 676 243 669 c 2,11,-1
 319 95 l 1,12,13
 402 233 402 233 479.5 439.5 c 128,-1,14
 557 646 557 646 557 723 c 0,15,16
 557 750 557 750 545.5 765.5 c 128,-1,17
 534 781 534 781 514.5 784 c 128,-1,18
 495 787 495 787 478.5 785.5 c 128,-1,19
 462 784 462 784 444 779 c 1,20,-1
 450 824 l 1,21,22
 506 857 506 857 576 857 c 0,23,24
 663 857 663 857 663 780 c 0,25,26
 663 690 663 690 562.5 459 c 128,-1,27
 462 228 462 228 337 -10 c 1,28,-1
 247 -28 l 1,29,-1
 138 689 l 2,30,31
 133 724 133 724 125 742.5 c 128,-1,32
 117 761 117 761 102.5 771.5 c 128,-1,33
 88 782 88 782 65 782.5 c 128,-1,34
 42 783 42 783 6 782 c 1,35,-1
 12 824 l 1,36,37
 61 857 61 857 124 857 c 0,0,1
EndSplineSet
Colour: ffffff
EndChar

StartChar: w
Encoding: 119 119 75
Width: 1065
VWidth: 0
Flags: MW
LayerCount: 3
Back
SplineSet
829 -159.872 m 7,0,1
 812.239 -159.872 812.239 -159.872 799.163 -157.886 c 0
 786.088 -155.9 786.088 -155.9 775.664 -149.553 c 0
 765.241 -143.207 765.241 -143.207 757.929 -137.86 c 0
 750.617 -132.514 750.617 -132.514 744.308 -119.019 c 0
 737.999 -105.523 737.999 -105.523 734.3 -96.4665 c 0
 730.6 -87.4097 730.6 -87.4097 726.254 -66.4157 c 0
 721.908 -45.4218 721.908 -45.4218 719.669 -32.3043 c 0
 717.431 -19.1867 717.431 -19.1867 712.968 9.20434 c 0
 711.021 21.5406 711.021 21.5406 710 28 c 2,2,-1
 634 602 l 1,3,4
 550.81 463.542 550.81 463.542 473.562 257.513 c 0
 396.315 51.483 396.315 51.483 396.315 -25.832 c 0,5,6
 396.315 -52.7163 396.315 -52.7163 407.903 -68.1992 c 0
 419.491 -83.6821 419.491 -83.6821 438.563 -86.7509 c 0
 457.634 -89.8196 457.634 -89.8196 474.403 -88.3823 c 0
 491.172 -86.9449 491.172 -86.9449 509 -82 c 1,7,-1
 503 -126.872 l 1,8,9
 446.658 -159.872 446.658 -159.872 377 -159.872 c 0,10,11
 290 -159.872 290 -159.872 290 -83 c 0,12,13
 290 7 290 7 390.5 238 c 0
 491 469 491 469 616 707 c 1,14,-1
 706 725 l 1,15,-1
 815 8 l 2,16,17
 820.415 -26.8086 820.415 -26.8086 828.107 -45.2011 c 0
 835.799 -63.5937 835.799 -63.5937 850.451 -74.109 c 0
 865.103 -84.6243 865.103 -84.6243 888.07 -85.1804 c 0
 911.036 -85.7365 911.036 -85.7365 947 -84.8721 c 1,18,-1
 941 -126.872 l 1,19,20
 891.534 -159.872 891.534 -159.872 829 -159.872 c 7,0,1
EndSplineSet
Fore
SplineSet
650 -28 m 1,0,-1
 572 580 l 1,1,2
 472 301 472 301 337 -10 c 1,3,-1
 247 -28 l 1,4,-1
 138 689 l 2,5,6
 133 724 133 724 125 742.5 c 128,-1,7
 117 761 117 761 102.5 771.5 c 128,-1,8
 88 782 88 782 65 782.5 c 128,-1,9
 42 783 42 783 6 782 c 1,10,-1
 12 824 l 1,11,12
 61 857 61 857 124 857 c 0,13,14
 142 857 142 857 155.5 854.5 c 128,-1,15
 169 852 169 852 180 845.5 c 128,-1,16
 191 839 191 839 198.5 833 c 128,-1,17
 206 827 206 827 212.5 812 c 128,-1,18
 219 797 219 797 222.5 786.5 c 128,-1,19
 226 776 226 776 230.5 753.5 c 128,-1,20
 235 731 235 731 237 715.5 c 128,-1,21
 239 700 239 700 243 669 c 2,22,-1
 319 95 l 1,23,24
 498 537 498 537 534 707 c 1,25,-1
 644 729 l 1,26,-1
 722 95 l 1,27,28
 802 233 802 233 876 439.5 c 128,-1,29
 950 646 950 646 950 723 c 0,30,31
 950 750 950 750 938.5 765.5 c 128,-1,32
 927 781 927 781 907.5 784 c 128,-1,33
 888 787 888 787 871.5 785.5 c 128,-1,34
 855 784 855 784 837 779 c 1,35,-1
 843 824 l 1,36,37
 899 857 899 857 969 857 c 0,38,39
 1056 857 1056 857 1056 780 c 0,40,41
 1056 690 1056 690 958.5 459 c 128,-1,42
 861 228 861 228 740 -10 c 1,43,-1
 650 -28 l 1,0,-1
EndSplineSet
Colour: ffffff
EndChar

StartChar: x
Encoding: 120 120 76
Width: 806
VWidth: 0
Flags: MW
LayerCount: 3
Back
SplineSet
256 0 m 1,0,-1
 156 0 l 1,1,-1
 326 1158.1 l 2,2,3
 330.999 1191.27 330.999 1191.27 322.031 1210.7 c 0
 313.063 1230.12 313.063 1230.12 294.25 1235.69 c 0
 275.437 1241.25 275.437 1241.25 250.344 1242.88 c 0
 225.251 1244.51 225.251 1244.51 198 1242.1 c 1,4,-1
 204 1284.1 l 1,5,6
 259 1317.1 259 1317.1 327 1317.1 c 0,7,8
 392.182 1317.1 392.182 1317.1 414.543 1282.79 c 0
 436.903 1248.48 436.903 1248.48 424 1157.1 c 2,9,-1
 256 0 l 1,0,-1
406 371 m 1,10,11
 452.53 405.8 452.53 405.8 484.53 431.699 c 0
 516.53 457.598 516.53 457.598 556.886 496.622 c 0
 597.243 535.646 597.243 535.646 621.704 569.866 c 0
 646.166 604.085 646.166 604.085 663.426 647.237 c 0
 680.685 690.389 680.685 690.389 680.685 732.832 c 0,12,13
 680.685 754.93 680.685 754.93 669.097 767.656 c 0
 657.509 780.382 657.509 780.382 638.437 782.905 c 0
 619.366 785.427 619.366 785.427 602.597 784.246 c 0
 585.828 783.064 585.828 783.064 568 779 c 1,14,-1
 574 823.872 l 1,15,16
 633.472 856.872 633.472 856.872 707 856.872 c 0,17,18
 794 856.872 794 856.872 794 770 c 0,19,20
 794 663 794 663 708 556 c 0
 622 449 622 449 494 366 c 1,21,-1
 524 312 l 1,22,23
 609 189 609 189 677 128 c 0
 745 67 745 67 823 58 c 1,24,-1
 861 52 l 1,25,-1
 848 4 l 1,26,27
 802 -15 802 -15 767 -15 c 0,28,29
 709 -15 709 -15 661 11 c 0
 613 37 613 37 576.5 78.5 c 0
 540 120 540 120 485 201 c 1,30,-1
 403 354 l 1,31,-1
 406 371 l 1,10,11
EndSplineSet
Fore
SplineSet
663 -17 m 0,0,1
 611 -17 611 -17 578.5 2.5 c 128,-1,2
 546 22 546 22 506 86.5 c 128,-1,3
 466 151 466 151 405 287 c 2,4,-1
 345 422 l 1,5,6
 295 380 295 380 264.5 349.5 c 128,-1,7
 234 319 234 319 204 280.5 c 128,-1,8
 174 242 174 242 159.5 200.5 c 128,-1,9
 145 159 145 159 144 112 c 0,10,11
 144 89 144 89 156.5 76.5 c 128,-1,12
 169 64 169 64 189.5 61 c 128,-1,13
 210 58 210 58 228 59.5 c 128,-1,14
 246 61 246 61 265 65 c 1,15,-1
 259 18 l 1,16,17
 200 -15 200 -15 126 -15 c 0,18,19
 29 -15 29 -15 29 72 c 0,20,21
 29 127 29 127 56 185 c 128,-1,22
 83 243 83 243 129.5 295 c 128,-1,23
 176 347 176 347 223.5 388.5 c 128,-1,24
 271 430 271 430 324 469 c 1,25,-1
 226 689 l 2,26,27
 213 719 213 719 202.5 736 c 128,-1,28
 192 753 192 753 180.5 764 c 128,-1,29
 169 775 169 775 156 778 c 128,-1,30
 143 781 143 781 125 782.5 c 128,-1,31
 107 784 107 784 83 782 c 1,32,-1
 89 824 l 1,33,34
 138 857 138 857 201 857 c 0,35,36
 246 857 246 857 270.5 830.5 c 128,-1,37
 295 804 295 804 329 713 c 1,38,-1
 460 420 l 1,39,40
 508 463 508 463 537.5 493.5 c 128,-1,41
 567 524 567 524 596 563 c 128,-1,42
 625 602 625 602 639 643.5 c 128,-1,43
 653 685 653 685 654 733 c 0,44,45
 654 755 654 755 642.5 767.5 c 128,-1,46
 631 780 631 780 611.5 782.5 c 128,-1,47
 592 785 592 785 575.5 784 c 128,-1,48
 559 783 559 783 541 779 c 1,49,-1
 547 824 l 1,50,51
 606 857 606 857 680 857 c 0,52,53
 767 857 767 857 767 770 c 0,54,55
 767 715 767 715 740.5 657 c 128,-1,56
 714 599 714 599 669.5 547 c 128,-1,57
 625 495 625 495 579 453.5 c 128,-1,58
 533 412 533 412 481 374 c 1,59,60
 519 289 519 289 549 233 c 128,-1,61
 579 177 579 177 602 143 c 128,-1,62
 625 109 625 109 649.5 91.5 c 128,-1,63
 674 74 674 74 694 68 c 128,-1,64
 714 62 714 62 745 60 c 2,65,-1
 771 58 l 1,66,-1
 765 16 l 1,67,68
 720 -17 720 -17 663 -17 c 0,0,1
EndSplineSet
Layer: 2
SplineSet
46 72 m 4,0,1
 46 130 46 130 75 191.5 c 128,-1,2
 104 253 104 253 153 307 c 128,-1,3
 202 361 202 361 250.5 403 c 128,-1,4
 299 445 299 445 352 483 c 1,5,-1
 376 443 l 1,6,7
 331.22 403.359 331.22 403.359 305.885 379.438 c 128,-1,8
 280.549 355.516 280.549 355.516 248.786 319.903 c 128,-1,9
 217.023 284.289 217.023 284.289 200.622 255.185 c 128,-1,10
 184.221 226.08 184.221 226.08 172.159 188.01 c 128,-1,11
 160.098 149.939 160.098 149.939 159.315 109.168 c 0,12,13
 159.315 87.0702 159.315 87.0702 170.903 74.3438 c 128,-1,14
 182.491 61.6175 182.491 61.6175 201.563 59.0951 c 128,-1,15
 220.634 56.5726 220.634 56.5726 237.403 57.7541 c 128,-1,16
 254.172 58.9355 254.172 58.9355 272 63 c 1,17,-1
 266 18.1279 l 1,18,19
 206.528 -14.8721 206.528 -14.8721 133 -14.8721 c 0,20,21
 46 -14.8721 46 -14.8721 46 72 c 4,0,1
EndSplineSet
Colour: ffffff
EndChar

StartChar: y
Encoding: 121 121 77
Width: 787
VWidth: 0
Flags: MW
LayerCount: 3
Back
SplineSet
221 856.872 m 7,0,1
 237.761 856.872 237.761 856.872 250.837 854.886 c 0
 263.912 852.9 263.912 852.9 274.336 846.553 c 0
 284.759 840.207 284.759 840.207 292.071 834.86 c 0
 299.383 829.514 299.383 829.514 305.692 816.019 c 0
 312.001 802.524 312.001 802.524 315.7 793.467 c 0
 319.399 784.409 319.399 784.409 323.746 763.416 c 0
 328.092 742.423 328.092 742.423 330.331 729.304 c 0
 332.569 716.186 332.569 716.186 337.032 687.796 c 0
 338.974 675.456 338.974 675.456 340 669 c 2,2,-1
 416 95 l 1,3,4
 499.19 233.458 499.19 233.458 576.437 439.487 c 0
 653.685 645.517 653.685 645.517 653.685 722.832 c 0,5,6
 653.685 749.716 653.685 749.716 642.097 765.199 c 0
 630.508 780.682 630.508 780.682 611.437 783.751 c 0
 592.366 786.82 592.366 786.82 575.597 785.382 c 0
 558.828 783.945 558.828 783.945 541 779 c 1,7,-1
 547 823.872 l 1,8,9
 603.342 856.872 603.342 856.872 673 856.872 c 0,10,11
 760 856.872 760 856.872 760 780 c 0,12,13
 760 690 760 690 659.5 459 c 0
 559 228 559 228 434 -10 c 1,14,-1
 344 -28 l 1,15,-1
 235 689 l 2,16,17
 229.585 723.808 229.585 723.808 221.893 742.201 c 0
 214.201 760.594 214.201 760.594 199.549 771.109 c 0
 184.897 781.624 184.897 781.624 161.93 782.18 c 0
 138.964 782.736 138.964 782.736 103 781.872 c 1,18,-1
 109 823.872 l 1,19,20
 158.464 856.872 158.464 856.872 221 856.872 c 7,0,1
EndSplineSet
Fore
SplineSet
781 778 m 0,0,1
 781 684 781 684 674.5 436.5 c 128,-1,2
 568 189 568 189 456 -2 c 0,3,4
 427 -51 427 -51 409 -80 c 128,-1,5
 391 -109 391 -109 362 -152 c 128,-1,6
 333 -195 333 -195 310.5 -221 c 128,-1,7
 288 -247 288 -247 257.5 -277 c 128,-1,8
 227 -307 227 -307 199 -323.5 c 128,-1,9
 171 -340 171 -340 136.5 -351 c 128,-1,10
 102 -362 102 -362 66 -362 c 0,11,12
 4 -362 4 -362 -37.5 -334.5 c 128,-1,13
 -79 -307 -79 -307 -79 -257 c 0,14,15
 -79 -220 -79 -220 -32 -190 c 1,16,17
 7 -227 7 -227 39.5 -243.5 c 128,-1,18
 72 -260 72 -260 109 -260 c 0,19,20
 153 -260 153 -260 193 -240 c 128,-1,21
 233 -220 233 -220 265.5 -183 c 128,-1,22
 298 -146 298 -146 324.5 -102 c 128,-1,23
 351 -58 351 -58 376 0 c 1,24,-1
 256 687 l 2,25,26
 250 722 250 722 242.5 740 c 128,-1,27
 235 758 235 758 220.5 769 c 128,-1,28
 206 780 206 780 183 780 c 128,-1,29
 160 780 160 780 124 780 c 1,30,-1
 130 822 l 1,31,32
 179 855 179 855 242 855 c 0,33,34
 259 855 259 855 272 853 c 128,-1,35
 285 851 285 851 295.5 844.5 c 128,-1,36
 306 838 306 838 313.5 833 c 128,-1,37
 321 828 321 828 327 814.5 c 128,-1,38
 333 801 333 801 337 791.5 c 128,-1,39
 341 782 341 782 345 761 c 128,-1,40
 349 740 349 740 351.5 727 c 128,-1,41
 354 714 354 714 358 686 c 0,42,43
 360 674 360 674 361 667 c 2,44,-1
 437 93 l 1,45,46
 520 231 520 231 597.5 437.5 c 128,-1,47
 675 644 675 644 675 721 c 0,48,49
 675 748 675 748 663.5 763.5 c 128,-1,50
 652 779 652 779 633 782 c 128,-1,51
 614 785 614 785 597 783.5 c 128,-1,52
 580 782 580 782 562 777 c 1,53,-1
 568 822 l 1,54,55
 624 855 624 855 694 855 c 0,56,57
 781 855 781 855 781 778 c 0,0,1
EndSplineSet
Colour: ffffff
EndChar

StartChar: z
Encoding: 122 122 78
Width: 731
VWidth: 0
Flags: MW
LayerCount: 3
Back
SplineSet
158 634 m 5,0,-1
 204 874 l 1,1,-1
 782 874 l 1,2,-1
 772 806 l 1,3,-1
 222 88 l 1,4,-1
 524 88 l 1,5,-1
 640 251 l 1,6,-1
 703 243 l 1,7,-1
 624 -2 l 1,8,-1
 46 -2 l 1,9,-1
 54 79 l 1,10,-1
 595 789 l 1,11,-1
 310 789 l 1,12,-1
 222 621 l 1,13,-1
 158 634 l 5,0,-1
EndSplineSet
Fore
SplineSet
43 -8 m 1,0,-1
 0 26 l 1,1,-1
 594 739 l 1,2,-1
 215 739 l 1,3,-1
 147 579 l 1,4,-1
 109 584 l 1,5,-1
 155 837 l 1,6,-1
 722 837 l 1,7,-1
 722 786 l 1,8,-1
 169 111 l 1,9,-1
 173 107 l 1,10,11
 302 153 302 153 369 108 c 2,12,-1
 454 51 l 2,13,14
 551 -14 551 -14 640 113 c 1,15,-1
 674 84 l 1,16,17
 642 30 642 30 602.5 -5.5 c 128,-1,18
 563 -41 563 -41 523.5 -54.5 c 128,-1,19
 484 -68 484 -68 445.5 -64.5 c 128,-1,20
 407 -61 407 -61 373 -41 c 2,21,-1
 250 30 l 2,22,23
 169 76 169 76 86 21 c 2,24,-1
 43 -8 l 1,0,-1
EndSplineSet
Colour: ffffff
EndChar

StartChar: braceleft
Encoding: 123 123 79
Width: 614
VWidth: 0
Flags: MW
LayerCount: 3
Back
SplineSet
4 389 m 1,0,-1
 4 488 l 1,1,-1
 53 497 l 2,2,3
 112 507 112 507 143.5 554.5 c 0
 175 602 175 602 183.5 669.5 c 0
 192 737 192 737 193 816 c 0
 194 895 194 895 200 972.5 c 0
 206 1050 206 1050 224 1113.5 c 0
 242 1177 242 1177 292.5 1216 c 0
 343 1255 343 1255 426 1255 c 2,4,-1
 527 1255 l 1,5,-1
 518 1155 l 1,6,-1
 436 1149 l 2,7,8
 390 1145 390 1145 377 1089.5 c 0
 364 1034 364 1034 364 921 c 2,9,-1
 364 862 l 2,10,11
 364 797 364 797 362 754.5 c 0
 360 712 360 712 350.5 654.5 c 0
 341 597 341 597 324 560 c 0
 307 523 307 523 274 490.5 c 0
 241 458 241 458 194 445 c 1,12,-1
 194 438 l 1,13,14
 254 421 254 421 291.5 372.5 c 0
 329 324 329 324 343 261.5 c 0
 357 199 357 199 361.5 127 c 0
 366 55 366 55 365.5 -14 c 0
 365 -83 365 -83 369.5 -140 c 0
 374 -197 374 -197 393 -233 c 0
 412 -269 412 -269 449 -271 c 2,15,-1
 523 -277 l 1,16,-1
 531 -378 l 1,17,-1
 429 -378 l 2,18,19
 345 -378 345 -378 293.5 -338.5 c 0
 242 -299 242 -299 223.5 -235.5 c 0
 205 -172 205 -172 199 -94 c 0
 193 -16 193 -16 192 63.5 c 0
 191 143 191 143 183.5 210.5 c 0
 176 278 176 278 145 325 c 0
 114 372 114 372 56 381 c 2,20,-1
 4 389 l 1,0,-1
EndSplineSet
Fore
SplineSet
515 -378 m 1,0,-1
 413 -378 l 2,1,2
 347 -378 347 -378 305.5 -352 c 128,-1,3
 264 -326 264 -326 248.5 -282.5 c 128,-1,4
 233 -239 233 -239 230.5 -182 c 128,-1,5
 228 -125 228 -125 236 -61.5 c 128,-1,6
 244 2 244 2 253.5 66 c 128,-1,7
 263 130 263 130 268 189 c 128,-1,8
 273 248 273 248 268 295 c 128,-1,9
 263 342 263 342 237.5 372.5 c 128,-1,10
 212 403 212 403 166 408 c 2,11,-1
 114 414 l 1,12,-1
 121 463 l 1,13,-1
 171 470 l 1,14,15
 220 476 220 476 255.5 506.5 c 128,-1,16
 291 537 291 537 311 584 c 128,-1,17
 331 631 331 631 345 690 c 128,-1,18
 359 749 359 749 370 813 c 128,-1,19
 381 877 381 877 393 940 c 128,-1,20
 405 1003 405 1003 425.5 1060 c 128,-1,21
 446 1117 446 1117 475 1161 c 128,-1,22
 504 1205 504 1205 553 1230.5 c 128,-1,23
 602 1256 602 1256 667 1256 c 2,24,-1
 770 1256 l 1,25,-1
 754 1207 l 1,26,-1
 647 1200 l 2,27,28
 608 1198 608 1198 580 1167.5 c 128,-1,29
 552 1137 552 1137 537.5 1088.5 c 128,-1,30
 523 1040 523 1040 509.5 977 c 128,-1,31
 496 914 496 914 486.5 847.5 c 128,-1,32
 477 781 477 781 457 714.5 c 128,-1,33
 437 648 437 648 411.5 593 c 128,-1,34
 386 538 386 538 340.5 497 c 128,-1,35
 295 456 295 456 234 441 c 1,36,-1
 233 437 l 1,37,38
 284 429 284 429 316 398 c 128,-1,39
 348 367 348 367 359.5 321.5 c 128,-1,40
 371 276 371 276 372.5 219 c 128,-1,41
 374 162 374 162 367.5 101.5 c 128,-1,42
 361 41 361 41 352.5 -19.5 c 128,-1,43
 344 -80 344 -80 340 -134 c 128,-1,44
 336 -188 336 -188 339.5 -229.5 c 128,-1,45
 343 -271 343 -271 362 -296.5 c 128,-1,46
 381 -322 381 -322 417 -323 c 2,47,-1
 517 -329 l 1,48,-1
 515 -378 l 1,0,-1
EndSplineSet
Colour: ffffff
EndChar

StartChar: bar
Encoding: 124 124 80
Width: 226
VWidth: 0
Flags: MW
LayerCount: 3
Back
SplineSet
109 -366 m 1,0,-1
 109 1260 l 1,1,-1
 224 1248 l 1,2,-1
 224 -380 l 1,3,-1
 109 -366 l 1,0,-1
EndSplineSet
Fore
SplineSet
17 -368 m 1,0,-1
 275 1260 l 1,1,-1
 349 1248 l 1,2,-1
 91 -380 l 1,3,-1
 17 -368 l 1,0,-1
EndSplineSet
Colour: ffffff
EndChar

StartChar: braceright
Encoding: 125 125 81
Width: 614
VWidth: 0
Flags: MW
LayerCount: 3
Back
SplineSet
22 -378 m 1,0,-1
 31 -277 l 1,1,-1
 105 -271 l 2,2,3
 142 -269 142 -269 161 -233 c 0
 180 -197 180 -197 184.5 -140 c 0
 189 -83 189 -83 188.5 -14 c 0
 188 55 188 55 192.5 127 c 0
 197 199 197 199 211 261.5 c 0
 225 324 225 324 262.5 372.5 c 0
 300 421 300 421 360 438 c 1,4,-1
 360 445 l 1,5,6
 300 459 300 459 262.5 505 c 0
 225 551 225 551 212 613 c 0
 199 675 199 675 195 746.5 c 0
 191 818 191 818 192 887.5 c 0
 193 957 193 957 190 1014.5 c 0
 187 1072 187 1072 169.5 1109 c 0
 152 1146 152 1146 117 1149 c 2,7,-1
 35 1155 l 1,8,-1
 28 1255 l 1,9,-1
 129 1255 l 2,10,11
 194 1255 194 1255 239.5 1230.5 c 0
 285 1206 285 1206 307.5 1165 c 0
 330 1124 330 1124 342 1070 c 0
 354 1016 354 1016 356.5 955.5 c 0
 359 895 359 895 359.5 834 c 0
 360 773 360 773 365 716 c 0
 370 659 370 659 382.5 613 c 0
 395 567 395 567 424.5 536 c 0
 454 505 454 505 500 497 c 2,12,-1
 549 488 l 1,13,-1
 549 389 l 1,14,-1
 497 381 l 2,15,16
 439 372 439 372 408.5 325 c 0
 378 278 378 278 370 210.5 c 0
 362 143 362 143 361.5 63.5 c 0
 361 -16 361 -16 355.5 -94 c 0
 350 -172 350 -172 331.5 -235.5 c 0
 313 -299 313 -299 261.5 -338.5 c 0
 210 -378 210 -378 126 -378 c 2,17,-1
 22 -378 l 1,0,-1
EndSplineSet
Fore
SplineSet
-18 -378 m 1,0,-1
 -4 -329 l 1,1,-1
 98 -323 l 2,2,3
 135 -322 135 -322 162 -296.5 c 128,-1,4
 189 -271 189 -271 205.5 -229.5 c 128,-1,5
 222 -188 222 -188 234.5 -134 c 128,-1,6
 247 -80 247 -80 258 -19.5 c 128,-1,7
 269 41 269 41 281.5 101.5 c 128,-1,8
 294 162 294 162 313.5 219 c 128,-1,9
 333 276 333 276 359 321.5 c 128,-1,10
 385 367 385 367 426.5 398 c 128,-1,11
 468 429 468 429 522 437 c 1,12,-1
 523 441 l 1,13,14
 467 456 467 456 434 497 c 128,-1,15
 401 538 401 538 393 593 c 128,-1,16
 385 648 385 648 386.5 714.5 c 128,-1,17
 388 781 388 781 399 847.5 c 128,-1,18
 410 914 410 914 416.5 977 c 128,-1,19
 423 1040 423 1040 424 1088.5 c 128,-1,20
 425 1137 425 1137 407 1167.5 c 128,-1,21
 389 1198 389 1198 350 1200 c 2,22,-1
 245 1207 l 1,23,-1
 245 1256 l 1,24,-1
 348 1256 l 2,25,26
 413 1256 413 1256 454 1230.5 c 128,-1,27
 495 1205 495 1205 510 1161 c 128,-1,28
 525 1117 525 1117 527.5 1060 c 128,-1,29
 530 1003 530 1003 522 940 c 128,-1,30
 514 877 514 877 504.5 813 c 128,-1,31
 495 749 495 749 490.5 690 c 128,-1,32
 486 631 486 631 491 584 c 128,-1,33
 496 537 496 537 521.5 506.5 c 128,-1,34
 547 476 547 476 594 470 c 1,35,-1
 642 463 l 1,36,-1
 635 414 l 1,37,-1
 581 408 l 2,38,39
 533 403 533 403 498 372.5 c 128,-1,40
 463 342 463 342 443 295 c 128,-1,41
 423 248 423 248 409 189 c 128,-1,42
 395 130 395 130 384.5 66 c 128,-1,43
 374 2 374 2 361.5 -61.5 c 128,-1,44
 349 -125 349 -125 328.5 -182 c 128,-1,45
 308 -239 308 -239 278.5 -282.5 c 128,-1,46
 249 -326 249 -326 199.5 -352 c 128,-1,47
 150 -378 150 -378 84 -378 c 2,48,-1
 -18 -378 l 1,0,-1
EndSplineSet
Colour: ffffff
EndChar

StartChar: asciitilde
Encoding: 126 126 82
Width: 901
VWidth: 0
Flags: MW
LayerCount: 3
Back
SplineSet
149 413 m 1,0,1
 152 422 152 422 158.5 436 c 0
 165 450 165 450 186.5 486 c 0
 208 522 208 522 232 548.5 c 0
 256 575 256 575 293.5 595 c 0
 331 615 331 615 370 611 c 2,2,-1
 808 566 l 2,3,4
 825 564 825 564 848.5 579.5 c 0
 872 595 872 595 887.5 611.5 c 2
 903 628 l 1,5,-1
 968 626 l 1,6,7
 964 617 964 617 957 602.5 c 0
 950 588 950 588 927 551 c 0
 904 514 904 514 879 487 c 0
 854 460 854 460 815.5 439.5 c 0
 777 419 777 419 738 424 c 2,8,-1
 299 469 l 2,9,10
 280 471 280 471 255 454 c 0
 230 437 230 437 215 418.5 c 2
 200 400 l 1,11,-1
 149 413 l 1,0,1
EndSplineSet
Fore
SplineSet
58 422 m 1,0,1
 61 432 61 432 66 448 c 128,-1,2
 71 464 71 464 91.5 502.5 c 128,-1,3
 112 541 112 541 137 568 c 128,-1,4
 162 595 162 595 205 611 c 128,-1,5
 248 627 248 627 297 614 c 2,6,-1
 646 516 l 2,7,8
 674 508 674 508 700 516 c 128,-1,9
 726 524 726 524 743 541 c 128,-1,10
 760 558 760 558 773 575 c 128,-1,11
 786 592 786 592 792 606 c 2,12,-1
 798 620 l 1,13,-1
 844 619 l 1,14,15
 841 609 841 609 835.5 592.5 c 128,-1,16
 830 576 830 576 808.5 536 c 128,-1,17
 787 496 787 496 761 467.5 c 128,-1,18
 735 439 735 439 691.5 422.5 c 128,-1,19
 648 406 648 406 598 419 c 2,20,-1
 250 516 l 2,21,22
 224 523 224 523 199 514.5 c 128,-1,23
 174 506 174 506 156.5 489 c 128,-1,24
 139 472 139 472 125 454 c 128,-1,25
 111 436 111 436 104 422 c 2,26,-1
 97 408 l 1,27,-1
 58 422 l 1,0,1
EndSplineSet
Colour: ffffff
EndChar

StartChar: exclamdown
Encoding: 161 161 83
Width: 249
VWidth: 0
Flags: MW
LayerCount: 3
Back
SplineSet
97 -378 m 0,0,1
 97 -110 97 -110 151 534 c 1,2,-1
 151 540 l 1,3,-1
 240 520 l 1,4,-1
 240 517 l 1,5,6
 294 -208 294 -208 294 -375 c 2,7,-1
 294 -378 l 1,8,9
 289 -397 289 -397 243.5 -407.5 c 0
 198 -418 198 -418 162 -418 c 0,10,11
 137 -418 137 -418 117 -408.5 c 0
 97 -399 97 -399 97 -378 c 0,0,1
70 784 m 0,12,13
 70 836 70 836 107 873 c 0
 144 910 144 910 196 910 c 0,14,15
 248 910 248 910 284 873 c 0
 320 836 320 836 320 783 c 0,16,17
 320 734 320 734 283 700 c 0
 246 666 246 666 196 666 c 0,18,19
 145 666 145 666 107.5 700 c 0
 70 734 70 734 70 784 c 0,12,13
EndSplineSet
Fore
SplineSet
198 809 m 0,0,1
 214 910 214 910 273 910 c 0,2,3
 303 910 303 910 312 882 c 128,-1,4
 321 854 321 854 314 809 c 0,5,6
 308 768 308 768 288 742.5 c 128,-1,7
 268 717 268 717 243 717 c 0,8,9
 216 717 216 717 204 742.5 c 128,-1,10
 192 768 192 768 198 809 c 0,0,1
-1 -375 m 0,11,12
 19 -249 19 -249 74.5 11.5 c 128,-1,13
 130 272 130 272 189 515 c 1,14,-1
 195 517 l 1,15,-1
 234 509 l 1,16,-1
 233 507 l 1,17,18
 208 280 208 280 172.5 -3.5 c 128,-1,19
 137 -287 137 -287 123 -374 c 2,20,-1
 123 -375 l 1,21,22
 103 -416 103 -416 46 -416 c 0,23,24
 23 -416 23 -416 9.5 -406.5 c 128,-1,25
 -4 -397 -4 -397 -1 -375 c 0,11,12
EndSplineSet
Colour: ffffff
EndChar

StartChar: sterling
Encoding: 163 163 84
Width: 1027
VWidth: 0
Flags: MW
LayerCount: 3
Back
SplineSet
43 0 m 1,0,-1
 50 74 l 1,1,-1
 218 121 l 1,2,3
 240 191 240 191 247 264 c 0
 254 337 254 337 257 461 c 1,4,-1
 260 549 l 1,5,-1
 80 538 l 1,6,-1
 92 639 l 1,7,-1
 263 649 l 1,8,-1
 266 786 l 1,9,10
 273 1018 273 1018 383.5 1134 c 0
 494 1250 494 1250 673 1250 c 0,11,12
 813 1250 813 1250 906 1211 c 1,13,-1
 875 895 l 1,14,-1
 789 907 l 1,15,-1
 748 1121 l 1,16,17
 706 1143 706 1143 663 1143 c 0,18,19
 612 1143 612 1143 578 1128.5 c 0
 544 1114 544 1114 520.5 1085 c 0
 497 1056 497 1056 484.5 1001 c 0
 472 946 472 946 466 877.5 c 0
 460 809 460 809 458 703 c 1,20,-1
 458 655 l 1,21,-1
 676 669 l 1,22,-1
 666 568 l 1,23,-1
 455 555 l 1,24,-1
 454 515 l 1,25,26
 448 213 448 213 393 99 c 1,27,-1
 853 96 l 1,28,-1
 984 349 l 1,29,-1
 1070 331 l 1,30,-1
 1032 0 l 1,31,-1
 43 0 l 1,0,-1
EndSplineSet
Fore
SplineSet
43 0 m 1,0,-1
 56 42 l 1,1,-1
 230 72 l 1,2,3
 283 198 283 198 330 462 c 1,4,-1
 348 573 l 1,5,-1
 170 565 l 1,6,-1
 191 623 l 1,7,-1
 361 633 l 1,8,-1
 388 786 l 2,9,10
 432 1028 432 1028 527 1139.5 c 128,-1,11
 622 1251 622 1251 790 1251 c 0,12,13
 925 1251 925 1251 1015 1211 c 1,14,-1
 933 889 l 1,15,-1
 886 897 l 1,16,-1
 907 1161 l 1,17,18
 890 1170 890 1170 838 1184 c 128,-1,19
 786 1198 786 1198 761 1198 c 0,20,21
 719 1198 719 1198 691.5 1192 c 128,-1,22
 664 1186 664 1186 637 1167 c 128,-1,23
 610 1148 610 1148 591.5 1115.5 c 128,-1,24
 573 1083 573 1083 554 1026 c 128,-1,25
 535 969 535 969 519.5 891.5 c 128,-1,26
 504 814 504 814 486 701 c 2,27,-1
 476 640 l 1,28,-1
 697 653 l 1,29,-1
 677 593 l 1,30,-1
 465 580 l 1,31,-1
 455 516 l 2,32,33
 409 223 409 223 320 58 c 1,34,-1
 857 58 l 1,35,-1
 990 323 l 1,36,-1
 1030 313 l 1,37,-1
 949 0 l 1,38,-1
 43 0 l 1,0,-1
EndSplineSet
Colour: ffffff
EndChar

StartChar: yen
Encoding: 165 165 85
Width: 1041
VWidth: 0
Flags: MW
LayerCount: 3
Back
SplineSet
42 1168 m 5,0,-1
 55 1244 l 1,1,-1
 515 1244 l 1,2,-1
 504 1168 l 1,3,-1
 371 1130 l 1,4,-1
 589 636 l 1,5,-1
 806 1126 l 1,6,-1
 649 1168 l 1,7,-1
 658 1244 l 1,8,-1
 1054 1244 l 1,9,-1
 1045 1168 l 1,10,-1
 921 1130 l 1,11,-1
 667 578 l 1,12,-1
 968 578 l 1,13,-1
 957 480 l 1,14,-1
 640 480 l 1,15,-1
 640 338 l 1,16,-1
 964 338 l 1,17,-1
 953 240 l 1,18,-1
 640 240 l 1,19,-1
 640 113 l 1,20,-1
 804 78 l 1,21,-1
 794 0 l 1,22,-1
 294 0 l 1,23,-1
 304 71 l 1,24,-1
 453 119 l 1,25,-1
 453 240 l 1,26,-1
 143 240 l 1,27,-1
 155 338 l 1,28,-1
 453 338 l 1,29,-1
 453 480 l 1,30,-1
 147 480 l 1,31,-1
 159 578 l 1,32,-1
 426 578 l 1,33,-1
 178 1126 l 1,34,-1
 42 1168 l 5,0,-1
EndSplineSet
Fore
SplineSet
234 1207 m 1,0,-1
 243 1243 l 1,1,-1
 661 1243 l 1,2,-1
 651 1207 l 1,3,-1
 481 1181 l 1,4,-1
 654 641 l 1,5,-1
 976 1175 l 1,6,-1
 796 1207 l 1,7,-1
 804 1243 l 1,8,-1
 1196 1243 l 1,9,-1
 1186 1207 l 1,10,-1
 1053 1180 l 1,11,-1
 677 577 l 1,12,-1
 1036 577 l 1,13,-1
 1017 531 l 1,14,-1
 661 531 l 1,15,-1
 630 337 l 1,16,-1
 996 337 l 1,17,-1
 978 290 l 1,18,-1
 623 290 l 1,19,-1
 588 67 l 1,20,-1
 767 46 l 1,21,-1
 751 0 l 1,22,-1
 291 0 l 1,23,-1
 303 42 l 1,24,-1
 482 72 l 1,25,-1
 517 290 l 1,26,-1
 175 290 l 1,27,-1
 192 337 l 1,28,-1
 524 337 l 1,29,-1
 555 531 l 1,30,-1
 217 531 l 1,31,-1
 233 577 l 1,32,-1
 551 577 l 1,33,-1
 369 1177 l 1,34,-1
 234 1207 l 1,0,-1
EndSplineSet
Colour: ffffff
EndChar

StartChar: brokenbar
Encoding: 166 166 86
Width: 215
VWidth: 0
Flags: MW
LayerCount: 3
Back
SplineSet
109 -366 m 1,0,-1
 109 423 l 1,1,-1
 228 411 l 1,2,-1
 228 -380 l 1,3,-1
 109 -366 l 1,0,-1
109 540 m 1,4,-1
 109 1260 l 1,5,-1
 227 1248 l 1,6,-1
 225 529 l 1,7,-1
 109 540 l 1,4,-1
EndSplineSet
Fore
SplineSet
158 535 m 1,0,-1
 271 1253 l 1,1,-1
 339 1248 l 1,2,-1
 222 529 l 1,3,-1
 158 535 l 1,0,-1
14 -374 m 1,4,-1
 139 414 l 1,5,-1
 207 410 l 1,6,-1
 82 -380 l 1,7,-1
 14 -374 l 1,4,-1
EndSplineSet
Colour: ffffff
EndChar

StartChar: dieresis
Encoding: 168 168 87
Width: 541
VWidth: 0
Flags: MW
LayerCount: 3
Back
SplineSet
92 1465 m 0,0,1
 92 1498 92 1498 118.5 1520 c 0
 145 1542 145 1542 177 1542 c 0,2,3
 211 1542 211 1542 237 1520 c 0
 263 1498 263 1498 263 1465 c 0,4,5
 263 1429 263 1429 237 1406 c 0
 211 1383 211 1383 177 1383 c 0,6,7
 143 1383 143 1383 117.5 1406.5 c 0
 92 1430 92 1430 92 1465 c 0,0,1
360 1465 m 0,8,9
 360 1498 360 1498 386.5 1520 c 0
 413 1542 413 1542 445 1542 c 0,10,11
 479 1542 479 1542 505.5 1520 c 0
 532 1498 532 1498 532 1465 c 0,12,13
 532 1430 532 1430 505.5 1406.5 c 0
 479 1383 479 1383 445 1383 c 0,14,15
 411 1383 411 1383 385.5 1406.5 c 0
 360 1430 360 1430 360 1465 c 0,8,9
EndSplineSet
Fore
SplineSet
349 1465 m 0,0,1
 349 1543 349 1543 403 1543 c 0,2,3
 461 1543 461 1543 461 1465 c 0,4,5
 461 1384 461 1384 404 1384 c 0,6,7
 349 1384 349 1384 349 1465 c 0,0,1
80 1465 m 0,8,9
 80 1543 80 1543 135 1543 c 0,10,11
 193 1543 193 1543 193 1465 c 0,12,13
 193 1424 193 1424 180.5 1404 c 128,-1,14
 168 1384 168 1384 137 1384 c 0,15,16
 80 1384 80 1384 80 1465 c 0,8,9
EndSplineSet
Colour: ffffff
EndChar

StartChar: copyright
Encoding: 169 169 88
Width: 1326
VWidth: 0
Flags: MW
LayerCount: 3
Back
SplineSet
53 645 m 0,0,1
 53 831 53 831 140 987 c 0
 227 1143 227 1143 372 1231.5 c 0
 517 1320 517 1320 684 1320 c 0,2,3
 877 1320 877 1320 1024.5 1232.5 c 0
 1172 1145 1172 1145 1249.5 993 c 0
 1327 841 1327 841 1327 649 c 0,4,5
 1327 517 1327 517 1276 395 c 0
 1225 273 1225 273 1138.5 183 c 0
 1052 93 1052 93 930.5 39 c 0
 809 -15 809 -15 675 -15 c 0,6,7
 495 -15 495 -15 352.5 71.5 c 0
 210 158 210 158 131.5 308.5 c 0
 53 459 53 459 53 645 c 0,0,1
176 657 m 0,8,9
 176 411 176 411 318.5 251.5 c 0
 461 92 461 92 683 92 c 0,10,11
 790 92 790 92 886 133.5 c 0
 982 175 982 175 1052 247 c 0
 1122 319 1122 319 1163.5 421.5 c 0
 1205 524 1205 524 1205 639 c 0,12,13
 1205 803 1205 803 1145.5 932.5 c 0
 1086 1062 1086 1062 966.5 1139.5 c 0
 847 1217 847 1217 684 1217 c 0,14,15
 543 1217 543 1217 425.5 1140.5 c 0
 308 1064 308 1064 242 935.5 c 0
 176 807 176 807 176 657 c 0,8,9
344.5 643.75 m 0,16,17
 344.5 735.515 344.5 735.515 374.983 814.182 c 0
 405.466 892.85 405.466 892.85 455.98 945.028 c 0
 506.494 997.205 506.494 997.205 571.466 1026.6 c 0
 636.438 1056 636.438 1056 705.75 1056 c 0,18,19
 806.116 1056 806.116 1056 858.358 1018.35 c 0
 910.6 980.706 910.6 980.706 910.6 925.95 c 0,20,21
 910.6 887.766 910.6 887.766 882.713 864.119 c 0
 854.825 840.472 854.825 840.472 802.65 836.7 c 1,22,23
 791.283 863.897 791.283 863.897 780.958 883.48 c 0
 770.633 903.064 770.633 903.064 753.699 926.783 c 0
 736.765 950.502 736.765 950.502 714.366 963.301 c 0
 691.966 976.1 691.966 976.1 665.8 976.1 c 0,24,25
 589.899 976.1 589.899 976.1 544.124 906.689 c 0
 498.35 837.279 498.35 837.279 498.35 721.95 c 0,26,27
 498.35 677.715 498.35 677.715 507.368 630.514 c 0
 516.386 583.312 516.386 583.312 536.558 535.926 c 0
 556.729 488.539 556.729 488.539 585.296 451.32 c 0
 613.863 414.101 613.863 414.101 656.918 390.8 c 0
 699.973 367.5 699.973 367.5 750.8 367.5 c 0,28,29
 807.339 367.5 807.339 367.5 845.778 381.207 c 0
 884.216 394.914 884.216 394.914 922.5 419.35 c 1,30,-1
 943.75 370.05 l 1,31,32
 908.403 327.367 908.403 327.367 833.959 296.433 c 0
 759.515 265.5 759.515 265.5 680.25 265.5 c 0,33,34
 581.137 265.5 581.137 265.5 503.534 317.661 c 0
 425.932 369.823 425.932 369.823 385.216 455.589 c 0
 344.5 541.355 344.5 541.355 344.5 643.75 c 0,16,17
EndSplineSet
Fore
SplineSet
121 631 m 0,0,1
 121 460 121 460 188 323 c 128,-1,2
 255 186 255 186 376 108.5 c 128,-1,3
 497 31 497 31 651 31 c 0,4,5
 890 31 890 31 1047.5 196.5 c 128,-1,6
 1205 362 1205 362 1205 613 c 0,7,8
 1205 787 1205 787 1133.5 927.5 c 128,-1,9
 1062 1068 1062 1068 935.5 1147 c 128,-1,10
 809 1226 809 1226 653 1226 c 0,11,12
 499 1226 499 1226 377.5 1149 c 128,-1,13
 256 1072 256 1072 188.5 936 c 128,-1,14
 121 800 121 800 121 631 c 0,0,1
53 620 m 0,15,16
 53 766 53 766 99 890.5 c 128,-1,17
 145 1015 145 1015 225 1100 c 128,-1,18
 305 1185 305 1185 415 1233 c 128,-1,19
 525 1281 525 1281 651 1281 c 0,20,21
 933 1281 933 1281 1101.5 1100 c 128,-1,22
 1270 919 1270 919 1270 623 c 0,23,24
 1270 329 1270 329 1099.5 151 c 128,-1,25
 929 -27 929 -27 642 -27 c 0,26,27
 370 -27 370 -27 211.5 149.5 c 128,-1,28
 53 326 53 326 53 620 c 0,15,16
371 610 m 0,29,30
 371 780 371 780 460.5 891 c 128,-1,31
 550 1002 550 1002 678 1002 c 0,32,33
 728 1002 728 1002 764.5 990 c 128,-1,34
 801 978 801 978 821 957.5 c 128,-1,35
 841 937 841 937 850 914 c 128,-1,36
 859 891 859 891 859 865 c 0,37,38
 859 805 859 805 806 788 c 1,39,40
 777 875 777 875 739 914 c 128,-1,41
 701 953 701 953 639 953 c 0,42,43
 558 953 558 953 505.5 869 c 128,-1,44
 453 785 453 785 453 657 c 0,45,46
 453 481 453 481 513.5 402 c 128,-1,47
 574 323 574 323 686 323 c 0,48,49
 742 323 742 323 793.5 347 c 128,-1,50
 845 371 845 371 879 404 c 1,51,-1
 894 377 l 1,52,53
 863 329 863 329 794 295.5 c 128,-1,54
 725 262 725 262 647 262 c 0,55,56
 559 262 559 262 495.5 308.5 c 128,-1,57
 432 355 432 355 401.5 432.5 c 128,-1,58
 371 510 371 510 371 610 c 0,29,30
EndSplineSet
Colour: ffffff
EndChar

StartChar: guillemotleft
Encoding: 171 171 89
Width: 644
VWidth: 0
Flags: MW
LayerCount: 3
Back
SplineSet
23 469 m 1,0,-1
 292 820 l 1,1,-1
 335 761 l 1,2,-1
 171 461 l 1,3,-1
 338 141 l 1,4,-1
 286 77 l 1,5,-1
 24 449 l 1,6,-1
 23 469 l 1,0,-1
270 469 m 1,7,-1
 538 820 l 1,8,-1
 583 761 l 1,9,-1
 418 461 l 1,10,-1
 586 141 l 1,11,-1
 534 77 l 1,12,-1
 271 449 l 1,13,-1
 270 469 l 1,7,-1
EndSplineSet
Fore
SplineSet
21 469 m 1,0,-1
 289 822 l 1,1,-1
 317 786 l 1,2,-1
 129 462 l 1,3,-1
 316 116 l 1,4,-1
 284 78 l 1,5,-1
 24 449 l 1,6,-1
 21 469 l 1,0,-1
268 469 m 1,7,-1
 536 822 l 1,8,-1
 564 786 l 1,9,-1
 376 462 l 1,10,-1
 563 116 l 1,11,-1
 531 78 l 1,12,-1
 271 449 l 1,13,-1
 268 469 l 1,7,-1
EndSplineSet
Colour: ffffff
EndChar

StartChar: logicalnot
Encoding: 172 172 90
Width: 878
VWidth: 0
Flags: MW
LayerCount: 3
Back
SplineSet
74 559 m 1,0,-1
 86 663 l 1,1,-1
 830 663 l 1,2,-1
 832 351 l 1,3,-1
 726 332 l 1,4,-1
 726 559 l 1,5,-1
 74 559 l 1,0,-1
EndSplineSet
Fore
SplineSet
54 609 m 1,0,-1
 66 664 l 1,1,-1
 812 664 l 1,2,-1
 812 351 l 1,3,-1
 740 333 l 1,4,-1
 740 609 l 1,5,-1
 54 609 l 1,0,-1
EndSplineSet
Colour: ffffff
EndChar

StartChar: softhyphen
Encoding: 173 173 91
Width: 538
VWidth: 0
Flags: MW
LayerCount: 3
Back
SplineSet
85 406 m 1,0,-1
 92 521 l 1,1,-1
 500 581 l 1,2,-1
 492 465 l 1,3,-1
 85 406 l 1,0,-1
EndSplineSet
Fore
SplineSet
62 435 m 1,0,-1
 70 497 l 1,1,-1
 479 558 l 1,2,-1
 469 495 l 1,3,-1
 62 435 l 1,0,-1
EndSplineSet
Colour: ffffff
EndChar

StartChar: micro
Encoding: 181 181 92
Width: 821
VWidth: 0
Flags: MW
LayerCount: 3
Back
SplineSet
122 37 m 5,0,-1
 115 37 l 1,1,2
 115 -38 115 -38 110 -86 c 2,3,-1
 80 -388 l 1,4,-1
 -49 -362 l 1,5,6
 -31 -300 -31 -300 40 20 c 0
 111 340 111 340 136 497 c 2,7,-1
 175 746 l 1,8,-1
 44 770 l 1,9,-1
 54 844 l 1,10,-1
 337 869 l 1,11,-1
 356 846 l 1,12,-1
 277 375 l 1,13,14
 251 242 251 242 264 179.5 c 0
 277 117 277 117 342 117 c 0,15,16
 439 117 439 117 522 200 c 1,17,-1
 604 746 l 1,18,-1
 470 770 l 1,19,-1
 480 844 l 1,20,-1
 766 869 l 1,21,-1
 786 846 l 1,22,-1
 710 370 l 2,23,24
 692 255 692 255 691.5 195 c 0
 691 135 691 135 702.5 118 c 0
 714 101 714 101 740 96 c 2,25,-1
 806 84 l 1,26,-1
 788 15 l 1,27,28
 702 -17 702 -17 647 -17 c 0,29,30
 503 -17 503 -17 520 130 c 1,31,-1
 510 130 l 1,32,33
 483 80 483 80 409.5 30 c 0
 336 -20 336 -20 247 -20 c 0,34,35
 159 -20 159 -20 122 38 c 1,36,-1
 122 37 l 5,0,-1
EndSplineSet
Fore
SplineSet
247 -22 m 0,0,1
 158 -22 158 -22 121 61 c 1,2,-1
 121 60 l 1,3,-1
 114 60 l 1,4,5
 117 -18 117 -18 110 -86 c 2,6,-1
 80 -366 l 1,7,-1
 -29 -352 l 1,8,9
 -9 -276 -9 -276 54 33.5 c 128,-1,10
 117 343 117 343 136 497 c 1,11,-1
 164 695 l 2,12,13
 171 743 171 743 155 764.5 c 128,-1,14
 139 786 139 786 108 784.5 c 128,-1,15
 77 783 77 783 37 779 c 0,16,17
 34 779 34 779 33 779 c 1,18,-1
 40 834 l 1,19,20
 96 857 96 857 167 857 c 0,21,22
 235 857 235 857 252.5 817.5 c 128,-1,23
 270 778 270 778 255 664 c 2,24,-1
 212 345 l 2,25,26
 191 184 191 184 214.5 130.5 c 128,-1,27
 238 77 238 77 332 77 c 0,28,29
 394 77 394 77 458.5 118.5 c 128,-1,30
 523 160 523 160 565 212 c 1,31,-1
 633 694 l 2,32,33
 640 742 640 742 622 763.5 c 128,-1,34
 604 785 604 785 570 783.5 c 128,-1,35
 536 782 536 782 492 778 c 1,36,-1
 499 833 l 1,37,38
 560 856 560 856 636 856 c 0,39,40
 705 856 705 856 723.5 816 c 128,-1,41
 742 776 742 776 725 663 c 1,42,-1
 690 378 l 2,43,44
 685 335 685 335 676.5 276.5 c 128,-1,45
 668 218 668 218 664 183 c 128,-1,46
 660 148 660 148 660 125 c 0,47,48
 660 89 660 89 681 72.5 c 128,-1,49
 702 56 702 56 735 57 c 128,-1,50
 768 58 768 58 809 60 c 1,51,-1
 803 7 l 1,52,53
 753 -17 753 -17 688 -17 c 0,54,55
 614 -17 614 -17 577.5 25 c 128,-1,56
 541 67 541 67 559 132 c 1,57,-1
 548 132 l 1,58,59
 495 66 495 66 418 22 c 128,-1,60
 341 -22 341 -22 247 -22 c 0,0,1
EndSplineSet
Colour: ffffff
EndChar

StartChar: periodcentered
Encoding: 183 183 93
Width: 362
VWidth: 0
Flags: MW
LayerCount: 3
Back
SplineSet
83 504 m 0,0,1
 83 551 83 551 118.5 584.5 c 0
 154 618 154 618 203 618 c 0,2,3
 253 618 253 618 289 585 c 0
 325 552 325 552 325 504 c 0,4,5
 325 454 325 454 289 417.5 c 0
 253 381 253 381 203 381 c 0,6,7
 154 381 154 381 118.5 417.5 c 0
 83 454 83 454 83 504 c 0,0,1
EndSplineSet
Fore
SplineSet
59 504 m 0,0,1
 59 551 59 551 94.5 584.5 c 128,-1,2
 130 618 130 618 179 618 c 0,3,4
 229 618 229 618 265 585 c 128,-1,5
 301 552 301 552 301 504 c 0,6,7
 301 454 301 454 265 417.5 c 128,-1,8
 229 381 229 381 179 381 c 0,9,10
 130 381 130 381 94.5 417.5 c 128,-1,11
 59 454 59 454 59 504 c 0,0,1
EndSplineSet
Colour: ffffff
EndChar

StartChar: macron
Encoding: 175 175 94
Width: 609
VWidth: 0
Flags: MW
LayerCount: 3
Back
SplineSet
372 1480 m 1,0,-1
 813 1480 l 1,1,-1
 783 1379 l 1,2,-1
 342 1379 l 1,3,-1
 372 1480 l 1,0,-1
545 1239 m 0
EndSplineSet
Fore
SplineSet
80 1380 m 1,0,-1
 89 1432 l 1,1,-1
 529 1432 l 1,2,-1
 521 1380 l 1,3,-1
 80 1380 l 1,0,-1
EndSplineSet
Colour: ffffff
EndChar

StartChar: degree
Encoding: 176 176 95
Width: 483
VWidth: 0
Flags: MW
LayerCount: 3
Back
SplineSet
390 1237 m 0,0,1
 348 1237 348 1237 320.5 1204 c 0
 293 1171 293 1171 286 1125 c 0,2,3
 278 1075 278 1075 297.5 1035.5 c 0
 317 996 317 996 362 996 c 0,4,5
 402 996 402 996 428.5 1025.5 c 0
 455 1055 455 1055 464 1110 c 0,6,7
 472 1161 472 1161 453.5 1199 c 0
 435 1237 435 1237 390 1237 c 0,0,1
408 1285 m 0,8,9
 479 1285 479 1285 514 1240 c 0
 549 1195 549 1195 538 1123 c 1,10,11
 526 1052 526 1052 471 1000 c 0
 416 948 416 948 342 948 c 0,12,13
 272 948 272 948 236 992.5 c 0
 200 1037 200 1037 213 1113 c 0,14,15
 224 1183 224 1183 281 1234 c 0
 338 1285 338 1285 408 1285 c 0,8,9
EndSplineSet
Fore
SplineSet
120 1129 m 0,0,1
 120 1053 120 1053 153.5 1010 c 128,-1,2
 187 967 187 967 244 967 c 0,3,4
 291 967 291 967 326 1006 c 128,-1,5
 361 1045 361 1045 361 1105 c 0,6,7
 361 1176 361 1176 327 1220.5 c 128,-1,8
 293 1265 293 1265 238 1265 c 128,-1,9
 183 1265 183 1265 151.5 1228.5 c 128,-1,10
 120 1192 120 1192 120 1129 c 0,0,1
59 1107 m 0,11,12
 59 1186 59 1186 115.5 1245 c 128,-1,13
 172 1304 172 1304 252 1304 c 0,14,15
 337 1304 337 1304 380 1258 c 128,-1,16
 423 1212 423 1212 423 1128 c 0,17,18
 423 1043 423 1043 366 985.5 c 128,-1,19
 309 928 309 928 228 928 c 0,20,21
 150 928 150 928 104.5 974.5 c 128,-1,22
 59 1021 59 1021 59 1107 c 0,11,12
EndSplineSet
Colour: ffffff
EndChar

StartChar: plusminus
Encoding: 177 177 96
Width: 727
VWidth: 0
Flags: MW
LayerCount: 3
Back
SplineSet
58 13 m 1,0,-1
 74 117 l 1,1,-1
 686 123 l 1,2,-1
 670 19 l 1,3,-1
 58 13 l 1,0,-1
83 475 m 1,4,-1
 95 575 l 1,5,-1
 304 575 l 1,6,-1
 304 807 l 1,7,-1
 412 795 l 1,8,-1
 414 575 l 1,9,-1
 633 575 l 1,10,-1
 621 475 l 1,11,-1
 414 475 l 1,12,-1
 415 240 l 1,13,-1
 304 251 l 1,14,-1
 304 475 l 1,15,-1
 83 475 l 1,4,-1
EndSplineSet
Fore
SplineSet
52 36 m 1,0,-1
 69 100 l 1,1,-1
 680 100 l 1,2,-1
 663 36 l 1,3,-1
 52 36 l 1,0,-1
108 492 m 1,4,-1
 121 561 l 1,5,-1
 329 561 l 1,6,-1
 329 808 l 1,7,-1
 396 796 l 1,8,-1
 398 561 l 1,9,-1
 618 561 l 1,10,-1
 607 492 l 1,11,-1
 398 492 l 1,12,-1
 399 238 l 1,13,-1
 329 253 l 1,14,-1
 329 492 l 1,15,-1
 108 492 l 1,4,-1
EndSplineSet
Colour: ffffff
EndChar

StartChar: acute
Encoding: 180 180 97
Width: 385
VWidth: 0
Flags: MW
LayerCount: 3
Back
SplineSet
727 1666 m 1,0,-1
 494 1349 l 1,1,-1
 448 1381 l 1,2,-1
 623 1706 l 1,3,-1
 727 1666 l 1,0,-1
505 1239 m 0
EndSplineSet
Fore
SplineSet
79 1370 m 1,0,-1
 211 1707 l 1,1,-1
 307 1668 l 1,2,-1
 124 1344 l 1,3,-1
 79 1370 l 1,0,-1
EndSplineSet
Colour: ffffff
EndChar

StartChar: cedilla
Encoding: 184 184 98
Width: 328
VWidth: 0
Flags: MW
LayerCount: 3
Back
SplineSet
201 -76 m 1,0,1
 277 -152 277 -152 266 -226 c 1,2,3
 249 -330 249 -330 41 -390 c 1,4,-1
 30 -330 l 1,5,6
 120 -300 120 -300 129 -248 c 1,7,8
 135 -206 135 -206 74 -137 c 1,9,-1
 193 3 l 1,10,-1
 268 3 l 1,11,-1
 201 -76 l 1,0,1
226 0 m 0
EndSplineSet
Fore
SplineSet
56 -347 m 1,0,1
 99 -332 99 -332 136.5 -300.5 c 128,-1,2
 174 -269 174 -269 174 -247 c 0,3,4
 174 -224 174 -224 164.5 -203.5 c 128,-1,5
 155 -183 155 -183 146 -172.5 c 128,-1,6
 137 -162 137 -162 115.5 -143 c 128,-1,7
 94 -124 94 -124 88 -118 c 1,8,-1
 173 3 l 1,9,-1
 232 3 l 1,10,-1
 177 -76 l 1,11,12
 266 -155 266 -155 266 -227 c 0,13,14
 266 -283 266 -283 214.5 -322 c 128,-1,15
 163 -361 163 -361 67 -390 c 1,16,-1
 56 -347 l 1,0,1
EndSplineSet
Colour: ffffff
EndChar

StartChar: guillemotright
Encoding: 187 187 99
Width: 703
VWidth: 0
Flags: MW
LayerCount: 3
Back
SplineSet
61 141 m 1,0,-1
 228 461 l 1,1,-1
 64 761 l 1,2,-1
 108 820 l 1,3,-1
 376 469 l 1,4,-1
 374 449 l 1,5,-1
 113 77 l 1,6,-1
 61 141 l 1,0,-1
308 141 m 1,7,-1
 476 461 l 1,8,-1
 311 761 l 1,9,-1
 355 820 l 1,10,-1
 623 469 l 1,11,-1
 621 449 l 1,12,-1
 360 77 l 1,13,-1
 308 141 l 1,7,-1
EndSplineSet
Fore
SplineSet
681 430 m 1,0,-1
 413 77 l 1,1,-1
 385 113 l 1,2,-1
 573 437 l 1,3,-1
 386 783 l 1,4,-1
 418 821 l 1,5,-1
 678 450 l 1,6,-1
 681 430 l 1,0,-1
434 430 m 1,7,-1
 166 77 l 1,8,-1
 138 113 l 1,9,-1
 326 437 l 1,10,-1
 139 783 l 1,11,-1
 171 821 l 1,12,-1
 431 450 l 1,13,-1
 434 430 l 1,7,-1
EndSplineSet
Colour: ffffff
EndChar

StartChar: questiondown
Encoding: 191 191 100
Width: 650
VWidth: 0
Flags: MW
LayerCount: 3
Back
SplineSet
53 40 m 0,0,1
 53 96 53 96 74.5 138 c 0
 96 180 96 180 128 203.5 c 0
 160 227 160 227 197 249 c 0
 234 271 234 271 266 287 c 0
 298 303 298 303 319.5 330 c 0
 341 357 341 357 341 391 c 0,2,3
 341 445 341 445 319 517 c 1,4,-1
 393 534 l 1,5,6
 420 495 420 495 445 431.5 c 0
 470 368 470 368 470 314 c 0,7,8
 470 269 470 269 453 235 c 0
 436 201 436 201 409 181 c 0
 382 161 382 161 349.5 145.5 c 0
 317 130 317 130 284.5 114.5 c 0
 252 99 252 99 225 81 c 0
 198 63 198 63 181 32 c 0
 164 1 164 1 164 -40 c 0,9,10
 164 -104 164 -104 221.5 -158.5 c 0
 279 -213 279 -213 328 -213 c 0,11,12
 453 -213 453 -213 519 -142 c 1,13,14
 547 -153 547 -153 570 -184 c 0
 593 -215 593 -215 593 -253 c 0,15,16
 593 -304 593 -304 547 -346 c 0
 501 -388 501 -388 396 -388 c 0,17,18
 338 -388 338 -388 277 -356 c 0
 216 -324 216 -324 166 -269.5 c 0
 116 -215 116 -215 84.5 -133.5 c 0
 53 -52 53 -52 53 40 c 0,0,1
233 810 m 0,19,20
 233 862 233 862 269.5 899 c 0
 306 936 306 936 359 936 c 0,21,22
 411 936 411 936 446.5 898 c 0
 482 860 482 860 482 807 c 0,23,24
 482 757 482 757 445.5 723.5 c 0
 409 690 409 690 359 690 c 0,25,26
 308 690 308 690 270.5 725 c 0
 233 760 233 760 233 810 c 0,19,20
EndSplineSet
Fore
SplineSet
402 835 m 0,0,1
 396 794 396 794 375.5 768 c 128,-1,2
 355 742 355 742 330 742 c 0,3,4
 303 742 303 742 291 768 c 128,-1,5
 279 794 279 794 286 835 c 0,6,7
 302 934 302 934 360 934 c 0,8,9
 390 934 390 934 399.5 906.5 c 128,-1,10
 409 879 409 879 402 835 c 0,0,1
418 -265 m 0,11,12
 411 -311 411 -311 341 -348 c 128,-1,13
 271 -385 271 -385 200 -385 c 0,14,15
 114 -385 114 -385 48.5 -332 c 128,-1,16
 -17 -279 -17 -279 -45 -196 c 128,-1,17
 -73 -113 -73 -113 -59 -24 c 0,18,19
 -52 22 -52 22 -28.5 61 c 128,-1,20
 -5 100 -5 100 27 127.5 c 128,-1,21
 59 155 59 155 96 180 c 128,-1,22
 133 205 133 205 169.5 227.5 c 128,-1,23
 206 250 206 250 237 273 c 128,-1,24
 268 296 268 296 290 327 c 128,-1,25
 312 358 312 358 318 393 c 0,26,27
 323 422 323 422 316 464 c 128,-1,28
 309 506 309 506 295 543 c 1,29,-1
 337 559 l 1,30,31
 368 524 368 524 384 469.5 c 128,-1,32
 400 415 400 415 391 357 c 0,33,34
 384 313 384 313 360.5 274.5 c 128,-1,35
 337 236 337 236 305.5 208 c 128,-1,36
 274 180 274 180 236.5 155 c 128,-1,37
 199 130 199 130 162.5 107.5 c 128,-1,38
 126 85 126 85 95 62.5 c 128,-1,39
 64 40 64 40 42.5 12.5 c 128,-1,40
 21 -15 21 -15 16 -45 c 0,41,42
 6 -106 6 -106 20 -158.5 c 128,-1,43
 34 -211 34 -211 75.5 -246 c 128,-1,44
 117 -281 117 -281 181 -281 c 0,45,46
 237 -281 237 -281 291 -260 c 128,-1,47
 345 -239 345 -239 383 -204 c 1,48,49
 424 -227 424 -227 418 -265 c 0,11,12
EndSplineSet
Colour: ffffff
EndChar

StartChar: germandbls
Encoding: 223 223 101
Width: 875
VWidth: 0
Flags: MW
LayerCount: 3
Back
SplineSet
264 886 m 5,0,-1
 168 135 l 2,1,2
 159 68 159 68 143.5 5.5 c 0
 128 -57 128 -57 97 -124.5 c 0
 66 -192 66 -192 25 -241 c 0
 -16 -290 -16 -290 -79.5 -322 c 0
 -143 -354 -143 -354 -220 -354 c 0,3,4
 -261.051 -354 -261.051 -354 -298.23 -328.901 c 0
 -335.408 -303.801 -335.408 -303.801 -335.408 -259.646 c 0,5,6
 -335.408 -237.596 -335.408 -237.596 -319.584 -215.322 c 0
 -303.761 -193.047 -303.761 -193.047 -272 -182 c 1,7,8
 -261 -213 -261 -213 -236 -233.5 c 0
 -211 -254 -211 -254 -187 -261 c 0
 -163 -268 -163 -268 -140 -268 c 0,9,10
 -91 -268 -91 -268 -55.5 -236.5 c 0
 -20 -205 -20 -205 9.5 -122.5 c 0
 39 -40 39 -40 58 99 c 2,11,-1
 150 768 l 1,12,-1
 10 768 l 1,13,-1
 15 812 l 1,14,-1
 162 836 l 1,15,16
 177.007 938.553 177.007 938.553 208.813 1020.7 c 0
 240.62 1102.85 240.62 1102.85 280.677 1155.38 c 0
 320.734 1207.9 320.734 1207.9 369.892 1242.95 c 0
 419.05 1278 419.05 1278 466.899 1292.55 c 0
 514.748 1307.1 514.748 1307.1 564 1307.1 c 0,17,18
 681.025 1307.1 681.025 1307.1 735.724 1252.24 c 0
 790.423 1197.39 790.423 1197.39 790.423 1110.05 c 0,19,20
 790.423 1057.59 790.423 1057.59 775.838 1012.76 c 0
 761.254 967.942 761.254 967.942 737.388 936.868 c 0
 713.522 905.793 713.522 905.793 683.027 877.461 c 0
 652.532 849.128 652.532 849.128 620.711 828.777 c 0
 588.891 808.425 588.891 808.425 558.396 785.972 c 0
 527.901 763.519 527.901 763.519 504.035 743.281 c 0
 480.169 723.043 480.169 723.043 465.585 695.86 c 0
 451 668.676 451 668.676 451 638 c 0,21,22
 451 590 451 590 493 546.5 c 0
 535 503 535 503 594.5 468 c 0
 654 433 654 433 713.5 397 c 0
 773 361 773 361 815 313.5 c 0
 857 266 857 266 857 212 c 0,23,24
 857 151.87 857 151.87 830.748 104.929 c 0
 804.496 57.9869 804.496 57.9869 760.602 30.5049 c 0
 716.708 3.02297 716.708 3.02297 664.603 -10.9089 c 0
 612.498 -24.8408 612.498 -24.8408 555.841 -24.8408 c 0,25,26
 457.538 -24.8408 457.538 -24.8408 385.769 20.2682 c 0
 314 65.3771 314 65.3771 314 139 c 0,27,28
 314 174 314 174 336.5 199 c 0
 359 224 359 224 399 228 c 1,29,30
 411.248 144.712 411.248 144.712 462.811 89.8641 c 0
 514.373 35.0166 514.373 35.0166 601.958 35.0166 c 0,31,32
 754 35.0166 754 35.0166 754 161 c 0,33,34
 754 212 754 212 713.5 256 c 0
 673 300 673 300 615.5 333.5 c 0
 558 367 558 367 501 401.5 c 0
 444 436 444 436 403.5 485 c 0
 363 534 363 534 363 592 c 0,35,36
 363 646 363 646 380.5 688.5 c 0
 398 731 398 731 426 759 c 0
 454 787 454 787 488 811 c 0
 522 835 522 835 556 858 c 0
 590 881 590 881 618 907.5 c 0
 646 934 646 934 663.5 972.5 c 0
 681 1011 681 1011 681 1060 c 0,37,38
 681 1134.26 681 1134.26 639.996 1181.68 c 0
 598.992 1229.1 598.992 1229.1 511 1229.1 c 0,39,40
 403.753 1229.1 403.753 1229.1 348.482 1153.3 c 0
 293.21 1077.5 293.21 1077.5 264 886 c 5,0,-1
EndSplineSet
Fore
SplineSet
264 886 m 1,0,-1
 168 135 l 2,1,2
 159 68 159 68 143.5 5.5 c 128,-1,3
 128 -57 128 -57 97 -124.5 c 128,-1,4
 66 -192 66 -192 25 -241 c 128,-1,5
 -16 -290 -16 -290 -79.5 -322 c 128,-1,6
 -143 -354 -143 -354 -220 -354 c 0,7,8
 -261 -354 -261 -354 -298 -329 c 128,-1,9
 -335 -304 -335 -304 -335 -260 c 0,10,11
 -335 -238 -335 -238 -319.5 -215.5 c 128,-1,12
 -304 -193 -304 -193 -272 -182 c 1,13,14
 -261 -213 -261 -213 -236 -233.5 c 128,-1,15
 -211 -254 -211 -254 -187 -261 c 128,-1,16
 -163 -268 -163 -268 -140 -268 c 0,17,18
 -91 -268 -91 -268 -55.5 -236.5 c 128,-1,19
 -20 -205 -20 -205 9.5 -122.5 c 128,-1,20
 39 -40 39 -40 58 99 c 2,21,-1
 150 768 l 1,22,-1
 10 768 l 1,23,-1
 15 812 l 1,24,-1
 162 836 l 1,25,26
 177 939 177 939 209 1021 c 128,-1,27
 241 1103 241 1103 281 1155.5 c 128,-1,28
 321 1208 321 1208 370 1243 c 128,-1,29
 419 1278 419 1278 467 1292.5 c 128,-1,30
 515 1307 515 1307 564 1307 c 0,31,32
 669 1307 669 1307 727 1251 c 128,-1,33
 785 1195 785 1195 785 1099 c 0,34,35
 785 1046 785 1046 767 1000.5 c 128,-1,36
 749 955 749 955 720 922.5 c 128,-1,37
 691 890 691 890 656 861 c 128,-1,38
 621 832 621 832 586 806.5 c 128,-1,39
 551 781 551 781 522 756 c 128,-1,40
 493 731 493 731 475 700.5 c 128,-1,41
 457 670 457 670 457 636 c 0,42,43
 457 604 457 604 474 574 c 128,-1,44
 491 544 491 544 519.5 520.5 c 128,-1,45
 548 497 548 497 583.5 473 c 128,-1,46
 619 449 619 449 656.5 428.5 c 128,-1,47
 694 408 694 408 730 383.5 c 128,-1,48
 766 359 766 359 794.5 334.5 c 128,-1,49
 823 310 823 310 840 278.5 c 128,-1,50
 857 247 857 247 857 212 c 0,51,52
 857 152 857 152 830.5 105 c 128,-1,53
 804 58 804 58 760.5 30.5 c 128,-1,54
 717 3 717 3 664.5 -11 c 128,-1,55
 612 -25 612 -25 556 -25 c 0,56,57
 458 -25 458 -25 386 20 c 128,-1,58
 314 65 314 65 314 139 c 0,59,60
 314 174 314 174 336.5 199 c 128,-1,61
 359 224 359 224 399 228 c 1,62,63
 411 145 411 145 462.5 90 c 128,-1,64
 514 35 514 35 602 35 c 0,65,66
 754 35 754 35 754 161 c 0,67,68
 754 198 754 198 732.5 230.5 c 128,-1,69
 711 263 711 263 676 288.5 c 128,-1,70
 641 314 641 314 599 338.5 c 128,-1,71
 557 363 557 363 515.5 390 c 128,-1,72
 474 417 474 417 439 446 c 128,-1,73
 404 475 404 475 382.5 515.5 c 128,-1,74
 361 556 361 556 361 603 c 0,75,76
 361 647 361 647 379 684 c 128,-1,77
 397 721 397 721 425.5 748 c 128,-1,78
 454 775 454 775 488.5 800.5 c 128,-1,79
 523 826 523 826 557.5 852 c 128,-1,80
 592 878 592 878 621 907.5 c 128,-1,81
 650 937 650 937 667.5 978 c 128,-1,82
 685 1019 685 1019 685 1068 c 0,83,84
 685 1144 685 1144 641.5 1186.5 c 128,-1,85
 598 1229 598 1229 511 1229 c 0,86,87
 404 1229 404 1229 348.5 1153.5 c 128,-1,88
 293 1078 293 1078 264 886 c 1,0,-1
EndSplineSet
Layer: 2
SplineSet
-226.891 0 m 5,0,-1
 -203.329 73 l 1,1,-1
 -44.5186 116 l 1,2,-1
 61.2822 784 l 1,3,-1
 -83.7178 784 l 1,4,-1
 -64.4229 849 l 1,5,-1
 77.2207 872 l 1,6,7
 88.6651 972.267 88.6651 972.267 133.795 1055.2 c 128,-1,8
 178.924 1138.12 178.924 1138.12 245.92 1192.1 c 128,-1,9
 312.916 1246.08 312.916 1246.08 395.869 1275.54 c 128,-1,10
 478.821 1305 478.821 1305 567.801 1305 c 0,11,12
 679.06 1305 679.06 1305 741.979 1238.38 c 128,-1,13
 804.897 1171.76 804.897 1171.76 804.897 1072 c 0,14,15
 804.897 1035.31 804.897 1035.31 787.868 1000.43 c 128,-1,16
 770.838 965.538 770.838 965.538 743.606 937.344 c 128,-1,17
 716.374 909.151 716.374 909.151 683.441 881.941 c 128,-1,18
 650.508 854.732 650.508 854.732 617.574 828.814 c 128,-1,19
 584.641 802.895 584.641 802.895 557.409 777.452 c 128,-1,20
 530.177 752.008 530.177 752.008 513.147 722.452 c 128,-1,21
 496.118 692.896 496.118 692.896 496.118 663 c 0,22,23
 496.118 629.146 496.118 629.146 516.123 598.879 c 128,-1,24
 536.127 568.611 536.127 568.611 568.117 544.375 c 128,-1,25
 600.107 520.139 600.107 520.139 638.794 495.707 c 128,-1,26
 677.481 471.274 677.481 471.274 716.169 443.477 c 128,-1,27
 754.856 415.68 754.856 415.68 786.846 384.278 c 128,-1,28
 818.836 352.876 818.836 352.876 838.84 308.713 c 128,-1,29
 858.845 264.551 858.845 264.551 858.845 213 c 0,30,31
 858.845 144.439 858.845 144.439 807.316 87.5264 c 128,-1,32
 755.787 30.6138 755.787 30.6138 674.984 -0.193105 c 128,-1,33
 594.181 -31 594.181 -31 505.199 -31 c 0,34,35
 387.573 -31 387.573 -31 313.587 20.3382 c 128,-1,36
 239.6 71.6763 239.6 71.6763 239.6 142 c 0,37,38
 239.6 203.747 239.6 203.747 282.033 237.788 c 128,-1,39
 324.465 271.828 324.465 271.828 391.665 275 c 1,40,41
 410.289 180.097 410.289 180.097 456.033 123.549 c 128,-1,42
 501.778 67 501.778 67 551.721 67 c 0,43,44
 585.28 67 585.28 67 610.581 70.6944 c 128,-1,45
 635.883 74.3889 635.883 74.3889 658.451 83.6962 c 128,-1,46
 681.018 93.0035 681.018 93.0035 692.997 111.476 c 128,-1,47
 704.976 129.948 704.976 129.948 704.976 157 c 0,48,49
 704.976 181.502 704.976 181.502 689.996 204.674 c 128,-1,50
 675.016 227.845 675.016 227.845 650.503 246.471 c 128,-1,51
 625.99 265.097 625.99 265.097 594.668 286.681 c 128,-1,52
 563.346 308.266 563.346 308.266 530.662 328.69 c 128,-1,53
 497.978 349.114 497.978 349.114 466.656 376.845 c 128,-1,54
 435.334 404.577 435.334 404.577 410.821 434.533 c 128,-1,55
 386.308 464.49 386.308 464.49 371.328 506.103 c 128,-1,56
 356.348 547.717 356.348 547.717 356.348 595 c 0,57,58
 356.348 631.449 356.348 631.449 371.613 666.246 c 128,-1,59
 386.878 701.043 386.878 701.043 411.289 729.503 c 128,-1,60
 435.7 757.963 435.7 757.963 465.221 785.803 c 128,-1,61
 494.742 813.643 494.742 813.643 524.264 841.013 c 128,-1,62
 553.786 868.384 553.786 868.384 578.196 895.844 c 128,-1,63
 602.607 923.304 602.607 923.304 617.872 956.162 c 128,-1,64
 633.137 989.021 633.137 989.021 633.137 1023 c 0,65,66
 633.137 1092.97 633.137 1092.97 583.79 1145.49 c 128,-1,67
 534.443 1198 534.443 1198 467.854 1198 c 0,68,69
 418.215 1198 418.215 1198 381.41 1186.79 c 128,-1,70
 344.606 1175.58 344.606 1175.58 315.334 1149.3 c 128,-1,71
 286.063 1123.03 286.063 1123.03 271.031 1075.35 c 128,-1,72
 256 1027.68 256 1027.68 256 959 c 1,73,-1
 104.109 0 l 1,74,-1
 -226.891 0 l 5,0,-1
EndSplineSet
Colour: ffffff
EndChar

StartChar: Agrave
Encoding: 192 192 102
Width: 1288
VWidth: 0
Flags: MW
LayerCount: 3
Back
SplineSet
-37 0 m 1,0,-1
 -28 74 l 1,1,-1
 121 129 l 1,2,-1
 559 1237 l 1,3,-1
 710 1268 l 1,4,-1
 1100 124 l 1,5,-1
 1237 80 l 1,6,-1
 1228 0 l 1,7,-1
 713 0 l 1,8,-1
 725 74 l 1,9,-1
 896 129 l 1,10,-1
 787 432 l 1,11,-1
 368 432 l 1,12,-1
 256 124 l 1,13,-1
 442 80 l 1,14,-1
 431 0 l 1,15,-1
 -37 0 l 1,0,-1
406 534 m 1,16,-1
 758 534 l 1,17,-1
 592 1034 l 1,18,-1
 406 534 l 1,16,-1
436 1664 m 1,19,-1
 552 1702 l 1,20,-1
 684 1368 l 1,21,-1
 627 1334 l 1,22,-1
 436 1664 l 1,19,-1
EndSplineSet
Fore
SplineSet
677 1667 m 1,0,-1
 771 1704 l 1,1,-1
 904 1368 l 1,2,-1
 858 1341 l 1,3,-1
 677 1667 l 1,0,-1
529 534 m 1,4,-1
 922 534 l 1,5,-1
 816 1085 l 1,6,-1
 529 534 l 1,4,-1
52 0 m 1,7,-1
 64 42 l 1,8,-1
 210 72 l 1,9,-1
 836 1254 l 1,10,-1
 891 1268 l 1,11,-1
 1115 66 l 1,12,-1
 1244 47 l 1,13,-1
 1229 1 l 1,14,-1
 820 1 l 1,15,-1
 836 43 l 1,16,-1
 1007 73 l 1,17,-1
 932 478 l 1,18,-1
 500 478 l 1,19,-1
 286 65 l 1,20,-1
 467 46 l 1,21,-1
 451 0 l 1,22,-1
 52 0 l 1,7,-1
EndSplineSet
Colour: ffffff
EndChar

StartChar: Aacute
Encoding: 193 193 103
Width: 1288
VWidth: 0
Flags: MW
LayerCount: 3
Back
SplineSet
-37 0 m 1,0,-1
 -28 74 l 1,1,-1
 121 129 l 1,2,-1
 559 1237 l 1,3,-1
 710 1268 l 1,4,-1
 1100 124 l 1,5,-1
 1237 80 l 1,6,-1
 1228 0 l 1,7,-1
 713 0 l 1,8,-1
 725 74 l 1,9,-1
 896 129 l 1,10,-1
 787 432 l 1,11,-1
 368 432 l 1,12,-1
 256 124 l 1,13,-1
 442 80 l 1,14,-1
 431 0 l 1,15,-1
 -37 0 l 1,0,-1
406 534 m 1,16,-1
 758 534 l 1,17,-1
 592 1034 l 1,18,-1
 406 534 l 1,16,-1
593 1385 m 1,19,-1
 716 1710 l 1,20,-1
 827 1670 l 1,21,-1
 643 1354 l 1,22,-1
 593 1385 l 1,19,-1
EndSplineSet
Fore
SplineSet
856 1367 m 1,0,-1
 988 1704 l 1,1,-1
 1084 1665 l 1,2,-1
 901 1341 l 1,3,-1
 856 1367 l 1,0,-1
529 534 m 1,4,-1
 922 534 l 1,5,-1
 816 1085 l 1,6,-1
 529 534 l 1,4,-1
52 0 m 1,7,-1
 64 42 l 1,8,-1
 210 72 l 1,9,-1
 836 1254 l 1,10,-1
 891 1268 l 1,11,-1
 1115 66 l 1,12,-1
 1244 47 l 1,13,-1
 1229 1 l 1,14,-1
 820 1 l 1,15,-1
 836 43 l 1,16,-1
 1007 73 l 1,17,-1
 932 478 l 1,18,-1
 500 478 l 1,19,-1
 286 65 l 1,20,-1
 467 46 l 1,21,-1
 451 0 l 1,22,-1
 52 0 l 1,7,-1
EndSplineSet
Colour: ffffff
EndChar

StartChar: Acircumflex
Encoding: 194 194 104
Width: 1288
VWidth: 0
Flags: MW
LayerCount: 3
Back
SplineSet
-37 0 m 1,0,-1
 -28 74 l 1,1,-1
 121 129 l 1,2,-1
 559 1237 l 1,3,-1
 710 1268 l 1,4,-1
 1100 124 l 1,5,-1
 1237 80 l 1,6,-1
 1228 0 l 1,7,-1
 713 0 l 1,8,-1
 725 74 l 1,9,-1
 896 129 l 1,10,-1
 787 432 l 1,11,-1
 368 432 l 1,12,-1
 256 124 l 1,13,-1
 442 80 l 1,14,-1
 431 0 l 1,15,-1
 -37 0 l 1,0,-1
406 534 m 1,16,-1
 758 534 l 1,17,-1
 592 1034 l 1,18,-1
 406 534 l 1,16,-1
443 1392 m 1,19,-1
 611 1572 l 1,20,-1
 666 1585 l 1,21,-1
 844 1400 l 1,22,-1
 794 1364 l 1,23,-1
 632 1472 l 1,24,-1
 621 1472 l 1,25,-1
 480 1361 l 1,26,-1
 443 1392 l 1,19,-1
EndSplineSet
Fore
SplineSet
683 1392 m 1,0,-1
 870 1573 l 1,1,-1
 924 1586 l 1,2,-1
 1083 1400 l 1,3,-1
 1051 1363 l 1,4,-1
 885 1498 l 1,5,-1
 876 1498 l 1,6,-1
 704 1362 l 1,7,-1
 683 1392 l 1,0,-1
529 534 m 1,8,-1
 922 534 l 1,9,-1
 816 1085 l 1,10,-1
 529 534 l 1,8,-1
52 0 m 1,11,-1
 64 42 l 1,12,-1
 210 72 l 1,13,-1
 836 1254 l 1,14,-1
 891 1268 l 1,15,-1
 1115 66 l 1,16,-1
 1244 47 l 1,17,-1
 1229 1 l 1,18,-1
 820 1 l 1,19,-1
 836 43 l 1,20,-1
 1007 73 l 1,21,-1
 932 478 l 1,22,-1
 500 478 l 1,23,-1
 286 65 l 1,24,-1
 467 46 l 1,25,-1
 451 0 l 1,26,-1
 52 0 l 1,11,-1
EndSplineSet
Colour: ffffff
EndChar

StartChar: Atilde
Encoding: 195 195 105
Width: 1288
VWidth: 0
Flags: MW
LayerCount: 3
Back
SplineSet
-37 0 m 1,0,-1
 -28 74 l 1,1,-1
 121 129 l 1,2,-1
 559 1237 l 1,3,-1
 710 1268 l 1,4,-1
 1100 124 l 1,5,-1
 1237 80 l 1,6,-1
 1228 0 l 1,7,-1
 713 0 l 1,8,-1
 725 74 l 1,9,-1
 896 129 l 1,10,-1
 787 432 l 1,11,-1
 368 432 l 1,12,-1
 256 124 l 1,13,-1
 442 80 l 1,14,-1
 431 0 l 1,15,-1
 -37 0 l 1,0,-1
406 534 m 1,16,-1
 758 534 l 1,17,-1
 592 1034 l 1,18,-1
 406 534 l 1,16,-1
406 1383 m 1,19,20
 407 1389 407 1389 410 1398.5 c 0
 413 1408 413 1408 423.5 1432.5 c 0
 434 1457 434 1457 447 1476 c 0
 460 1495 460 1495 482 1510.5 c 0
 504 1526 504 1526 529 1526 c 2,21,22
 543 1526 l 1,23,-1
 764 1496 l 1,24,-1
 768 1496 l 2,25,26
 779 1496 779 1496 793.5 1506 c 0
 808 1516 808 1516 816.5 1526 c 2
 825 1536 l 1,27,-1
 872 1535 l 1,28,29
 870 1529 870 1529 867 1519.5 c 0
 864 1510 864 1510 853 1485 c 0
 842 1460 842 1460 828.5 1441 c 0
 815 1422 815 1422 792 1406.5 c 0
 769 1391 769 1391 743 1391 c 0,30,31
 734 1391 734 1391 730 1392 c 2,32,-1
 507 1423 l 1,33,-1
 504 1423 l 2,34,35
 492 1423 492 1423 477 1411.5 c 0
 462 1400 462 1400 453.5 1388 c 2
 445 1376 l 1,36,-1
 406 1383 l 1,19,20
EndSplineSet
Fore
SplineSet
647 1374 m 1,0,1
 658 1432 658 1432 681 1468 c 128,-1,2
 704 1504 704 1504 732 1516 c 128,-1,3
 760 1528 760 1528 788.5 1525 c 128,-1,4
 817 1522 817 1522 846 1506 c 2,5,-1
 919 1465 l 2,6,7
 939 1454 939 1454 952.5 1448 c 128,-1,8
 966 1442 966 1442 982.5 1437.5 c 128,-1,9
 999 1433 999 1433 1011.5 1436 c 128,-1,10
 1024 1439 1024 1439 1037.5 1448 c 128,-1,11
 1051 1457 1051 1457 1062.5 1476.5 c 128,-1,12
 1074 1496 1074 1496 1085 1526 c 1,13,-1
 1117 1518 l 1,14,15
 1103 1448 1103 1448 1073 1409 c 128,-1,16
 1043 1370 1043 1370 1003.5 1366 c 128,-1,17
 964 1362 964 1362 917 1386 c 1,18,-1
 845 1426 l 2,19,20
 827 1436 827 1436 817.5 1441 c 128,-1,21
 808 1446 808 1446 792 1452 c 128,-1,22
 776 1458 776 1458 766 1457.5 c 128,-1,23
 756 1457 756 1457 742.5 1453.5 c 128,-1,24
 729 1450 729 1450 719.5 1439.5 c 128,-1,25
 710 1429 710 1429 699 1410.5 c 128,-1,26
 688 1392 688 1392 678 1366 c 1,27,-1
 647 1374 l 1,0,1
529 534 m 1,28,-1
 922 534 l 1,29,-1
 816 1085 l 1,30,-1
 529 534 l 1,28,-1
52 0 m 1,31,-1
 64 42 l 1,32,-1
 210 72 l 1,33,-1
 836 1254 l 1,34,-1
 891 1268 l 1,35,-1
 1115 66 l 1,36,-1
 1244 47 l 1,37,-1
 1229 1 l 1,38,-1
 820 1 l 1,39,-1
 836 43 l 1,40,-1
 1007 73 l 1,41,-1
 932 478 l 1,42,-1
 500 478 l 1,43,-1
 286 65 l 1,44,-1
 467 46 l 1,45,-1
 451 0 l 1,46,-1
 52 0 l 1,31,-1
EndSplineSet
Colour: ffffff
EndChar

StartChar: Adieresis
Encoding: 196 196 106
Width: 1288
VWidth: 0
Flags: MW
LayerCount: 3
Back
SplineSet
-37 0 m 1,0,-1
 -28 74 l 1,1,-1
 121 129 l 1,2,-1
 559 1237 l 1,3,-1
 710 1268 l 1,4,-1
 1100 124 l 1,5,-1
 1237 80 l 1,6,-1
 1228 0 l 1,7,-1
 713 0 l 1,8,-1
 725 74 l 1,9,-1
 896 129 l 1,10,-1
 787 432 l 1,11,-1
 368 432 l 1,12,-1
 256 124 l 1,13,-1
 442 80 l 1,14,-1
 431 0 l 1,15,-1
 -37 0 l 1,0,-1
406 534 m 1,16,-1
 758 534 l 1,17,-1
 592 1034 l 1,18,-1
 406 534 l 1,16,-1
423 1453 m 0,19,20
 423 1487 423 1487 448.5 1508.5 c 0
 474 1530 474 1530 506 1530 c 0,21,22
 540 1530 540 1530 566 1508 c 0
 592 1486 592 1486 592 1453 c 0,23,24
 592 1418 592 1418 566.5 1395.5 c 0
 541 1373 541 1373 506 1373 c 0,25,26
 472 1373 472 1373 447.5 1395.5 c 0
 423 1418 423 1418 423 1453 c 0,19,20
690 1453 m 0,27,28
 690 1487 690 1487 715.5 1508.5 c 0
 741 1530 741 1530 773 1530 c 0,29,30
 808 1530 808 1530 834.5 1508 c 0
 861 1486 861 1486 861 1453 c 0,31,32
 861 1418 861 1418 834.5 1395.5 c 0
 808 1373 808 1373 773 1373 c 0,33,34
 739 1373 739 1373 714.5 1395.5 c 0
 690 1418 690 1418 690 1453 c 0,27,28
EndSplineSet
Fore
SplineSet
953 1446 m 0,0,1
 953 1524 953 1524 1007 1524 c 0,2,3
 1065 1524 1065 1524 1065 1446 c 0,4,5
 1065 1365 1065 1365 1008 1365 c 0,6,7
 953 1365 953 1365 953 1446 c 0,0,1
684 1446 m 0,8,9
 684 1524 684 1524 739 1524 c 0,10,11
 797 1524 797 1524 797 1446 c 0,12,13
 797 1405 797 1405 784.5 1385 c 128,-1,14
 772 1365 772 1365 741 1365 c 0,15,16
 684 1365 684 1365 684 1446 c 0,8,9
529 534 m 1,17,-1
 922 534 l 1,18,-1
 816 1085 l 1,19,-1
 529 534 l 1,17,-1
52 0 m 1,20,-1
 64 42 l 1,21,-1
 210 72 l 1,22,-1
 836 1254 l 1,23,-1
 891 1268 l 1,24,-1
 1115 66 l 1,25,-1
 1244 47 l 1,26,-1
 1229 1 l 1,27,-1
 820 1 l 1,28,-1
 836 43 l 1,29,-1
 1007 73 l 1,30,-1
 932 478 l 1,31,-1
 500 478 l 1,32,-1
 286 65 l 1,33,-1
 467 46 l 1,34,-1
 451 0 l 1,35,-1
 52 0 l 1,20,-1
EndSplineSet
Colour: ffffff
EndChar

StartChar: Aring
Encoding: 197 197 107
Width: 1288
VWidth: 0
Flags: MW
LayerCount: 3
Back
SplineSet
-37 0 m 1,0,-1
 -28 74 l 1,1,-1
 121 129 l 1,2,-1
 559 1237 l 1,3,-1
 710 1268 l 1,4,-1
 1100 124 l 1,5,-1
 1237 80 l 1,6,-1
 1228 0 l 1,7,-1
 713 0 l 1,8,-1
 725 74 l 1,9,-1
 896 129 l 1,10,-1
 787 432 l 1,11,-1
 368 432 l 1,12,-1
 256 124 l 1,13,-1
 442 80 l 1,14,-1
 431 0 l 1,15,-1
 -37 0 l 1,0,-1
406 534 m 1,16,-1
 758 534 l 1,17,-1
 592 1034 l 1,18,-1
 406 534 l 1,16,-1
480 1532 m 0,19,20
 480 1601 480 1601 530 1652.5 c 0
 580 1704 580 1704 649 1704 c 0,21,22
 720 1704 720 1704 762 1658.5 c 0
 804 1613 804 1613 804 1542 c 0,23,24
 804 1472 804 1472 757 1419.5 c 0
 710 1367 710 1367 636 1367 c 0,25,26
 566 1367 566 1367 523 1411.5 c 0
 480 1456 480 1456 480 1532 c 0,19,20
552 1543 m 0,27,28
 552 1492 552 1492 577 1453.5 c 0
 602 1415 602 1415 647 1415 c 0,29,30
 688 1415 688 1415 711 1445 c 0
 734 1475 734 1475 734 1529 c 0,31,32
 734 1579 734 1579 707 1617.5 c 0
 680 1656 680 1656 636 1656 c 0,33,34
 595 1656 595 1656 573.5 1623 c 0
 552 1590 552 1590 552 1543 c 0,27,28
EndSplineSet
Fore
SplineSet
797 1541 m 0,0,1
 797 1488 797 1488 823.5 1446.5 c 128,-1,2
 850 1405 850 1405 898 1405 c 0,3,4
 942 1405 942 1405 967 1436 c 128,-1,5
 992 1467 992 1467 992 1524 c 0,6,7
 992 1577 992 1577 963.5 1619 c 128,-1,8
 935 1661 935 1661 888 1661 c 0,9,10
 843 1661 843 1661 820 1626 c 128,-1,11
 797 1591 797 1591 797 1541 c 0,0,1
732 1530 m 0,12,13
 732 1600 732 1600 781 1650.5 c 128,-1,14
 830 1701 830 1701 900 1701 c 0,15,16
 972 1701 972 1701 1015 1655.5 c 128,-1,17
 1058 1610 1058 1610 1058 1539 c 128,-1,18
 1058 1468 1058 1468 1010 1416 c 128,-1,19
 962 1364 962 1364 888 1364 c 0,20,21
 818 1364 818 1364 775 1409 c 128,-1,22
 732 1454 732 1454 732 1530 c 0,12,13
529 534 m 1,23,-1
 922 534 l 1,24,-1
 816 1085 l 1,25,-1
 529 534 l 1,23,-1
52 0 m 1,26,-1
 64 42 l 1,27,-1
 210 72 l 1,28,-1
 836 1254 l 1,29,-1
 891 1268 l 1,30,-1
 1115 66 l 1,31,-1
 1244 47 l 1,32,-1
 1229 1 l 1,33,-1
 820 1 l 1,34,-1
 836 43 l 1,35,-1
 1007 73 l 1,36,-1
 932 478 l 1,37,-1
 500 478 l 1,38,-1
 286 65 l 1,39,-1
 467 46 l 1,40,-1
 451 0 l 1,41,-1
 52 0 l 1,26,-1
EndSplineSet
Colour: ffffff
EndChar

StartChar: Ccedilla
Encoding: 199 199 108
Width: 1040
VWidth: 0
Flags: MW
LayerCount: 3
Back
SplineSet
61 589 m 0,0,1
 61 681 61 681 83.5 773.5 c 0
 106 866 106 866 156.5 956 c 0
 207 1046 207 1046 280 1115 c 0
 353 1184 353 1184 463 1226.5 c 0
 573 1269 573 1269 705 1269 c 0,2,3
 934 1269 934 1269 1066 1169 c 1,4,-1
 1035 837 l 1,5,-1
 947 850 l 1,6,-1
 906 1070 l 1,7,8
 825 1174 825 1174 647 1174 c 0,9,10
 487 1174 487 1174 381 1034 c 0
 275 894 275 894 275 658 c 0,11,12
 275 528 275 528 312.5 422 c 0
 350 316 350 316 413.5 249 c 0
 477 182 477 182 558 146.5 c 0
 639 111 639 111 729 111 c 0,13,14
 823 111 823 111 915 153.5 c 0
 1007 196 1007 196 1078 261 c 1,15,-1
 1114 185 l 1,16,17
 1058 117 1058 117 959 59 c 0
 860 1 860 1 743 -18 c 1,18,-1
 703 -76 l 1,19,20
 792 -155 792 -155 792 -227 c 0,21,22
 792 -330 792 -330 592 -389 c 1,23,-1
 572 -331 l 1,24,25
 613 -317 613 -317 635.5 -294.5 c 0
 658 -272 658 -272 658 -248 c 0,26,27
 658 -207 658 -207 585 -138 c 1,28,-1
 663 -24 l 1,29,-1
 652 -24 l 2,30,31
 535 -24 535 -24 429.5 16.5 c 0
 324 57 324 57 241.5 132 c 0
 159 207 159 207 110 325.5 c 0
 61 444 61 444 61 589 c 0,0,1
EndSplineSet
Fore
SplineSet
457 -362 m 1,0,1
 500 -347 500 -347 537.5 -315.5 c 128,-1,2
 575 -284 575 -284 575 -262 c 0,3,4
 575 -239 575 -239 565.5 -218.5 c 128,-1,5
 556 -198 556 -198 547 -187.5 c 128,-1,6
 538 -177 538 -177 516.5 -158 c 128,-1,7
 495 -139 495 -139 489 -133 c 1,8,-1
 564 -26 l 1,9,10
 562 -26 562 -26 561 -26 c 0,11,12
 365 -26 365 -26 251.5 107.5 c 128,-1,13
 138 241 138 241 138 466 c 0,14,15
 138 583 138 583 167 698 c 128,-1,16
 196 813 196 813 255 916 c 128,-1,17
 314 1019 314 1019 394 1098.5 c 128,-1,18
 474 1178 474 1178 584 1224.5 c 128,-1,19
 694 1271 694 1271 818 1271 c 0,20,21
 913 1271 913 1271 992 1248 c 128,-1,22
 1071 1225 1071 1225 1112 1191 c 1,23,-1
 1028 854 l 1,24,-1
 982 862 l 1,25,-1
 993 1121 l 1,26,27
 977 1147 977 1147 963.5 1161.5 c 128,-1,28
 950 1176 950 1176 924.5 1190 c 128,-1,29
 899 1204 899 1204 860 1209.5 c 128,-1,30
 821 1215 821 1215 762 1215 c 0,31,32
 665 1215 665 1215 572.5 1158 c 128,-1,33
 480 1101 480 1101 409.5 1004.5 c 128,-1,34
 339 908 339 908 295.5 770.5 c 128,-1,35
 252 633 252 633 252 483 c 0,36,37
 252 279 252 279 346.5 166.5 c 128,-1,38
 441 54 441 54 620 54 c 0,39,40
 730 54 730 54 831.5 99 c 128,-1,41
 933 144 933 144 1010 218 c 1,42,-1
 1027 181 l 1,43,44
 967 109 967 109 860.5 50 c 128,-1,45
 754 -9 754 -9 626 -23 c 1,46,-1
 578 -91 l 1,47,48
 667 -170 667 -170 667 -242 c 0,49,50
 667 -298 667 -298 615.5 -337 c 128,-1,51
 564 -376 564 -376 468 -405 c 1,52,-1
 457 -362 l 1,0,1
EndSplineSet
Colour: ffffff
EndChar

